<svg width="260" height="58" viewBox="0 0 260 58" fill="none" xmlns="http://www.w3.org/2000/svg">
<path d="M28.9978 56.7776C44.3442 56.7776 56.7849 44.3386 56.7849 28.9943C56.7849 13.65 44.3442 1.21094 28.9978 1.21094C13.6515 1.21094 1.21075 13.65 1.21075 28.9943C1.21075 44.3386 13.6515 56.7776 28.9978 56.7776Z" stroke="black" stroke-width="2" stroke-miterlimit="10"/>
<path d="M23.0651 20.9314C25.8535 20.9314 28.114 18.6712 28.114 15.8832C28.114 13.0951 25.8535 10.835 23.0651 10.835C20.2766 10.835 18.0162 13.0951 18.0162 15.8832C18.0162 18.6712 20.2766 20.9314 23.0651 20.9314Z" stroke="black" stroke-width="2" stroke-miterlimit="10"/>
<path d="M20.2198 46.0398C23.0082 46.0398 25.2687 43.7796 25.2687 40.9916C25.2687 38.2035 23.0082 35.9434 20.2198 35.9434C17.4314 35.9434 15.1709 38.2035 15.1709 40.9916C15.1709 43.7796 17.4314 46.0398 20.2198 46.0398Z" stroke="black" stroke-width="2" stroke-miterlimit="10"/>
<path d="M44.1809 41.8748C46.9693 41.8748 49.2297 39.6146 49.2297 36.8265C49.2297 34.0385 46.9693 31.7783 44.1809 31.7783C41.3924 31.7783 39.132 34.0385 39.132 36.8265C39.132 39.6146 41.3924 41.8748 44.1809 41.8748Z" stroke="black" stroke-width="2" stroke-miterlimit="10"/>
<path d="M18.0162 3.46191L21.1884 11.2098" stroke="black" stroke-width="2" stroke-miterlimit="10"/>
<path d="M31.5526 1.33203L26.1163 11.8764" stroke="black" stroke-width="2" stroke-miterlimit="10"/>
<path d="M48.4791 9.15234C41.3169 9.38969 34.2774 11.0783 27.7871 14.1158" stroke="black" stroke-width="2" stroke-miterlimit="10"/>
<path d="M7.27673 11.6699C7.27673 11.6699 10.909 28.9937 17.7257 36.6205" stroke="black" stroke-width="2" stroke-miterlimit="10"/>
<path d="M23.5494 20.9072C22.2648 25.9371 21.7746 31.1369 22.0965 36.3182" stroke="black" stroke-width="2" stroke-miterlimit="10"/>
<path d="M19.2027 19.1396C12.6332 24.6257 7.12942 31.2736 2.96637 38.7514" stroke="black" stroke-width="2" stroke-miterlimit="10"/>
<path d="M15.4252 42.5645L7.04669 46.0389" stroke="black" stroke-width="2" stroke-miterlimit="10"/>
<path d="M26.1041 19.9023C29.5927 25.6007 34.455 30.3333 40.2459 33.6669" stroke="black" stroke-width="2" stroke-miterlimit="10"/>
<path d="M47.0141 9.38184C47.0141 9.38184 46.7114 25.1197 45.4764 31.9596" stroke="black" stroke-width="2" stroke-miterlimit="10"/>
<path d="M54.4603 40.156L48.8787 38.667" stroke="black" stroke-width="2" stroke-miterlimit="10"/>
<path d="M43.4907 41.8379C43.4907 41.8379 41.3719 51.1474 36.5288 55.7719" stroke="black" stroke-width="2" stroke-miterlimit="10"/>
<path d="M22.7988 45.3252L26.1163 56.6322" stroke="black" stroke-width="2" stroke-miterlimit="10"/>
<path d="M24.4454 43.7393C24.4454 43.7393 36.2261 53.8236 38.4418 53.5209" stroke="black" stroke-width="2" stroke-miterlimit="10"/>
<path d="M23.8157 37.4558C23.8157 37.4558 41.3961 22.4685 46.4086 7.33594" stroke="black" stroke-width="2" stroke-miterlimit="10"/>
<path d="M144.626 38.4245V18.8369H147.629L154.796 28.9697C156.213 30.9578 157.492 33.0409 158.622 35.2043H158.683C158.465 32.6358 158.376 30.058 158.417 27.4806V18.8369H160.911V38.4245H158.187L151.128 28.328C149.602 26.0642 148.125 23.8246 147.048 21.8029H146.951C147.096 24.2241 147.132 26.5606 147.132 29.4781V38.3882L144.626 38.4245Z" fill="black"/>
<path d="M167.631 31.948C167.691 35.1198 170.052 36.7178 172.934 36.7178C174.445 36.7611 175.95 36.4933 177.353 35.9309L177.825 37.8073C176.171 38.4871 174.395 38.8169 172.607 38.7758C167.97 38.7758 165.088 35.8583 165.088 31.6696C165.088 27.4809 167.788 24.0186 172.353 24.0186C177.51 24.0186 178.721 28.3767 178.721 30.7737C178.735 31.1796 178.702 31.5857 178.624 31.9843L167.631 31.948ZM176.106 30.0474C176.151 29.5035 176.08 28.9563 175.898 28.442C175.715 27.9277 175.425 27.4581 175.047 27.0643C174.67 26.6705 174.212 26.3615 173.706 26.1578C173.2 25.9541 172.656 25.8604 172.11 25.8829C170.977 25.8886 169.888 26.3199 169.058 27.0913C168.228 27.8627 167.719 28.9179 167.631 30.0474H176.106Z" fill="black"/>
<path d="M186.022 20.2295V24.3698H190.03V26.3915H186.022V33.6551C186.022 35.3741 186.482 36.5363 188.117 36.5363C188.682 36.5517 189.246 36.4782 189.788 36.3184L189.909 38.328C189.109 38.6132 188.263 38.7486 187.415 38.7275C186.866 38.7486 186.319 38.6514 185.812 38.4425C185.304 38.2336 184.847 37.9179 184.472 37.5169C183.688 36.4442 183.319 35.1242 183.431 33.8004V26.2946H181.106V24.3698H183.431V20.8832L186.022 20.2295Z" fill="black"/>
<path d="M195.127 24.3691L197.197 31.6328C197.645 33.2308 198.021 34.6714 198.336 36.1241C198.675 34.7198 199.183 33.2308 199.716 31.6449L202.246 24.3812H204.535L206.956 31.5117C207.513 33.2065 207.961 34.7077 208.312 36.0878H208.373C208.651 34.6835 209.063 33.1944 209.584 31.5117L211.811 24.3812H214.427L209.584 38.4363H207.089L204.789 31.7659C204.227 30.2051 203.758 28.6124 203.385 26.9961H203.324C202.944 28.6146 202.462 30.2076 201.883 31.7659L199.462 38.4363H196.967L192.463 24.3812L195.127 24.3691Z" fill="black"/>
<path d="M231.801 31.222C231.801 36.3549 227.83 38.7761 224.04 38.7761C223.062 38.8281 222.084 38.6775 221.168 38.3337C220.251 37.99 219.415 37.4605 218.712 36.7785C218.01 36.0965 217.456 35.2767 217.085 34.3705C216.714 33.4643 216.535 32.4913 216.558 31.5125C216.52 30.4975 216.696 29.4859 217.073 28.5429C217.451 27.6 218.022 26.7468 218.75 26.0383C219.478 25.3299 220.347 24.782 221.3 24.4299C222.252 24.0779 223.269 23.9296 224.282 23.9947C225.262 23.9304 226.244 24.071 227.166 24.4075C228.088 24.7441 228.929 25.2692 229.637 25.9493C230.344 26.6294 230.902 27.4496 231.275 28.3575C231.648 29.2653 231.827 30.2409 231.801 31.222ZM219.27 31.4399C219.27 34.769 221.486 36.8149 224.113 36.8149C226.74 36.8149 229.041 34.8538 229.041 31.343C229.041 28.9218 227.576 25.98 224.198 25.98C220.82 25.98 219.246 28.6071 219.246 31.4399H219.27Z" fill="black"/>
<path d="M235.966 28.9938C235.966 27.1779 235.966 25.7615 235.857 24.3693H238.17L238.267 27.3111H238.364C238.63 26.3841 239.184 25.5657 239.946 24.9739C240.707 24.3821 241.637 24.0475 242.601 24.0183C242.867 24.0123 243.132 24.045 243.388 24.1151V26.5363C243.057 26.4732 242.72 26.4448 242.383 26.4516C241.471 26.4765 240.598 26.8332 239.93 27.4549C239.261 28.0767 238.842 28.9208 238.751 29.8292C238.674 30.228 238.638 30.6336 238.642 31.0398V38.4608H235.99L235.966 28.9938Z" fill="black"/>
<path d="M249.769 30.7852C250.144 30.3131 250.701 29.6594 251.149 29.1751L255.75 24.3327H259.031L253.038 30.071L259.939 38.3878H256.622L251.186 31.5963L249.708 33.1096V38.3878H247.069V17.626H249.708L249.769 30.7852Z" fill="black"/>
<path d="M68.1904 18.6311C70.236 18.3421 72.2993 18.1964 74.3653 18.1953C78.5182 18.1953 81.4967 19.1759 83.4218 20.9797C84.3491 21.8265 85.0808 22.8651 85.5659 24.0234C86.051 25.1816 86.2779 26.4316 86.2308 27.6864C86.2578 29.0553 86.0092 30.4156 85.4995 31.6863C84.9899 32.9571 84.2298 34.1123 83.2644 35.0832C81.2182 36.996 77.8038 38.2066 73.4935 38.2066C71.723 38.2223 69.9529 38.1455 68.1904 37.9766V18.6311ZM70.8419 35.9064C71.8749 36.0222 72.9146 36.0667 73.9536 36.0396C80.3586 36.0396 83.4581 32.6257 83.4581 27.7954C83.4581 23.2677 80.516 20.2776 74.45 20.2776C73.2323 20.2604 72.0158 20.3617 70.8177 20.5802L70.8419 35.9064Z" fill="#4895F1"/>
<path d="M91.3524 31.4759C91.3524 34.6477 93.7739 36.2457 96.6555 36.2457C98.167 36.2891 99.6712 36.0212 101.075 35.4588L101.547 37.3353C99.8931 38.015 98.1163 38.3448 96.3286 38.3037C91.6914 38.3037 88.8098 35.3862 88.8098 31.1975C88.8098 27.0088 91.5098 23.5586 96.0744 23.5586C101.232 23.5586 102.443 27.9047 102.443 30.3017C102.463 30.7077 102.43 31.1146 102.346 31.5123L91.3524 31.4759ZM99.8277 29.5753C99.8728 29.0315 99.8017 28.4842 99.6192 27.9699C99.4367 27.4557 99.147 26.986 98.7691 26.5922C98.3913 26.1984 97.9341 25.8894 97.4277 25.6858C96.9214 25.4821 96.3775 25.3884 95.8322 25.4108C94.7012 25.4195 93.6147 25.8522 92.7874 26.6233C91.9601 27.3944 91.4524 28.4479 91.3645 29.5753H99.8277Z" fill="#4895F1"/>
<path d="M107.577 31.4759C107.577 34.6477 109.998 36.2457 112.88 36.2457C114.391 36.2891 115.895 36.0212 117.299 35.4588L117.771 37.3353C116.117 38.015 114.341 38.3448 112.553 38.3037C107.916 38.3037 105.034 35.3862 105.034 31.1975C105.034 27.0088 107.734 23.5586 112.299 23.5586C117.456 23.5586 118.667 27.9047 118.667 30.3017C118.68 30.7075 118.648 31.1136 118.57 31.5123L107.577 31.4759ZM116.052 29.5753C116.097 29.0304 116.026 28.4821 115.843 27.9669C115.659 27.4518 115.369 26.9815 114.989 26.5875C114.61 26.1935 114.151 25.8848 113.644 25.6819C113.136 25.479 112.591 25.3866 112.044 25.4108C110.915 25.4225 109.832 25.8566 109.007 26.6274C108.182 27.3982 107.676 28.4499 107.589 29.5753H116.052Z" fill="#4895F1"/>
<path d="M122.384 28.5219C122.384 26.8512 122.384 25.3138 122.263 23.8731H124.685L124.83 26.4759C125.426 25.525 126.266 24.7509 127.263 24.2336C128.259 23.7164 129.375 23.4749 130.496 23.5342C134.213 23.5342 137.083 26.4881 137.083 30.6283C137.083 35.6402 133.681 38.2793 130.024 38.2793C129.059 38.3327 128.096 38.1382 127.227 37.7144C126.358 37.2906 125.612 36.6516 125.06 35.8581V43.727H122.421L122.384 28.5219ZM125.024 32.0205C125.024 32.6007 125.144 33.1747 125.375 33.7067C125.607 34.2386 125.946 34.7171 126.371 35.1124C126.796 35.5076 127.297 35.8111 127.845 36.004C128.392 36.1969 128.973 36.275 129.552 36.2334C132.543 36.2334 134.395 34.1148 134.395 30.7736C134.395 28.0013 132.664 25.6043 129.649 25.6043C128.648 25.6091 127.676 25.942 126.882 26.5521C126.088 27.1622 125.516 28.0157 125.254 28.9819C125.149 29.316 125.083 29.6614 125.06 30.0109L125.024 32.0205Z" fill="#4895F1"/>
</svg>
