<svg width="90" height="90" viewBox="0 0 90 90" fill="none" xmlns="http://www.w3.org/2000/svg">
<rect x="1.5" y="1.5" width="87" height="87" rx="8.5" stroke="#727272" stroke-width="3"/>
<line x1="2" y1="18.5" x2="88" y2="18.5" stroke="#727272" stroke-width="3"/>
<circle cx="22.5" cy="11.5" r="2.5" fill="#727272"/>
<circle cx="33.5" cy="11.5" r="2.5" fill="#727272"/>
<circle cx="49" cy="30" r="1" fill="#727272"/>
<circle cx="32.5" cy="39.5" r="1.5" fill="#727272"/>
<circle cx="32.5" cy="43.5" r="1.5" fill="#727272"/>
<circle cx="33.5" cy="47.5" r="1.5" fill="#727272"/>
<circle cx="36.5" cy="50.5" r="1.5" fill="#727272"/>
<circle cx="40.5" cy="52.5" r="1.5" fill="#727272"/>
<circle cx="44.5" cy="53.5" r="1.5" fill="#727272"/>
<circle cx="49.5" cy="52.5" r="1.5" fill="#727272"/>
<circle cx="53.5" cy="50.5" r="1.5" fill="#727272"/>
<circle cx="56.5" cy="46.5" r="1.5" fill="#727272"/>
<circle cx="57.5" cy="42.5" r="1.5" fill="#727272"/>
<circle cx="57.5" cy="38.5" r="1.5" fill="#727272"/>
<circle cx="55.5" cy="34.5" r="1.5" fill="#727272"/>
<circle cx="52.5" cy="31.5" r="1.5" fill="#727272"/>
<circle cx="34" cy="35" r="2" fill="#727272"/>
<circle cx="37.5" cy="30.5" r="2.5" fill="#727272"/>
<circle cx="44" cy="29" r="3" fill="#727272"/>
<rect x="14.5" y="64.5" width="64" height="13" rx="6.5" stroke="#727272" stroke-width="3"/>
<path d="M16 71C16 68.2386 18.2386 66 21 66H27V76H21C18.2386 76 16 73.7614 16 71Z" fill="#C4C4C4"/>
</svg>
