<svg width="104" height="104" viewBox="0 0 104 104" fill="none" xmlns="http://www.w3.org/2000/svg">
<rect x="41.312" y="36.3643" width="24.1304" height="24.1304" rx="1.5" stroke="#727272" stroke-width="3"/>
<path d="M46.9641 27.2998C46.9641 24.8145 48.9788 22.7998 51.4641 22.7998H55.2902C57.7755 22.7998 59.7902 24.8145 59.7902 27.2998V36.7563H46.9641V27.2998Z" stroke="#727272" stroke-width="3"/>
<circle cx="53.3771" cy="46.1691" r="1.5" stroke="#727272" stroke-width="1.52174"/>
<path d="M53.3772 48.4297V51.821" stroke="#727272" stroke-linecap="round" stroke-linejoin="round"/>
<path fill-rule="evenodd" clip-rule="evenodd" d="M55.0812 0.25244C55.3738 0.354754 55.6292 0.503358 55.8264 0.631323C56.0871 0.800556 56.356 1.00748 56.6214 1.22469C57.0151 1.54696 57.477 1.95569 57.9772 2.39822L57.9782 2.39916C58.1413 2.54345 58.3085 2.69134 58.4786 2.841C59.897 4.08847 61.7204 5.63457 64.013 7.09034C68.5749 9.98706 75.0122 12.5387 83.7145 11.4604L85.4562 11.2446L85.3981 12.9986C85.0029 24.9365 85.0581 34.4124 85.1029 42.1163C85.1142 44.0564 85.1248 45.8841 85.1275 47.6105C85.1404 56.1316 84.9646 62.3261 83.6126 67.2535C82.2256 72.3088 79.6209 75.9812 74.9989 79.5512C70.5392 82.9958 64.1382 86.3911 55.096 90.9187L54.975 91.1641C54.9129 91.1335 54.8508 91.1029 54.7889 91.0724C54.7304 91.1016 54.6719 91.1309 54.6132 91.1602L54.4974 90.9287C45.0305 86.2598 38.2691 82.7986 33.5 79.3399C28.5766 75.7692 25.6806 72.135 24.0434 67.1093C22.4443 62.2004 22.0795 56.0459 21.9474 47.5566C21.9093 45.1135 21.8909 42.4686 21.8708 39.588C21.8204 32.3785 21.7598 23.6935 21.3565 13.0056L21.291 11.2701L23.0175 11.4578C33.0667 12.5501 40.2434 10.096 45.2481 7.26319C47.7631 5.8396 49.7478 4.30978 51.3004 3.04343C51.5977 2.80098 51.8897 2.55925 52.1694 2.3278L52.1698 2.32745L52.1699 2.32739C52.598 1.97302 52.9971 1.64275 53.341 1.3709C53.8078 1.00193 54.3228 0.615814 54.8273 0.365873L54.8714 0.189453C54.9429 0.207323 55.0126 0.228508 55.0804 0.252176C55.0806 0.252101 55.0808 0.252027 55.081 0.251952L55.0812 0.25244ZM55.0639 3.83384C54.7781 4.0627 54.4721 4.3161 54.1282 4.60092L54.1279 4.60115C53.8462 4.83448 53.539 5.0889 53.1966 5.36819C51.5875 6.68064 49.4532 8.33017 46.7259 9.87397C41.5429 12.8077 34.2835 15.3219 24.4164 14.5973C24.7661 24.562 24.8235 32.7801 24.8712 39.6152C24.8912 42.4809 24.9096 45.1036 24.947 47.5099C25.0799 56.0478 25.4569 61.7628 26.8959 66.1801C28.2968 70.4804 30.7351 73.6288 35.2613 76.9114C39.6194 80.072 45.8221 83.2937 54.7785 87.7216C63.306 83.4359 69.1327 80.2915 73.1651 77.177C77.3473 73.9467 79.5284 70.8012 80.7195 66.4597C81.9458 61.9904 82.1405 56.2094 82.1275 47.615C82.1249 45.9045 82.1143 44.0881 82.103 42.1561L82.103 42.1538C82.0602 34.8174 82.0078 25.8142 82.3456 14.6116C73.6689 15.2713 67.1032 12.6062 62.4049 9.62291C59.913 8.04063 57.9509 6.37206 56.4974 5.09372C56.303 4.92277 56.1208 4.7616 55.9494 4.60994L55.9491 4.60966C55.6172 4.31606 55.3256 4.05809 55.0639 3.83384Z" fill="#727272"/>
<line x1="1.5" y1="12.0654" x2="1.5" y2="1.50021" stroke="#727272" stroke-width="3" stroke-linecap="round" stroke-linejoin="round"/>
<line x1="1.5" y1="30.1523" x2="1.5" y2="19.5871" stroke="#727272" stroke-width="3" stroke-linecap="round" stroke-linejoin="round"/>
<line x1="1.5" y1="48.2393" x2="1.5" y2="37.674" stroke="#727272" stroke-width="3" stroke-linecap="round" stroke-linejoin="round"/>
<line x1="11.6738" y1="12.0654" x2="11.6738" y2="1.50021" stroke="#727272" stroke-width="3" stroke-linecap="round" stroke-linejoin="round"/>
<line x1="11.6738" y1="30.1523" x2="11.6738" y2="19.5871" stroke="#727272" stroke-width="3" stroke-linecap="round" stroke-linejoin="round"/>
<line x1="93.0652" y1="12.0654" x2="93.0652" y2="1.50021" stroke="#727272" stroke-width="3" stroke-linecap="round" stroke-linejoin="round"/>
<line x1="93.0652" y1="30.1523" x2="93.0652" y2="19.5871" stroke="#727272" stroke-width="3" stroke-linecap="round" stroke-linejoin="round"/>
<line x1="102.109" y1="12.0654" x2="102.109" y2="1.50021" stroke="#727272" stroke-width="3" stroke-linecap="round" stroke-linejoin="round"/>
<line x1="102.109" y1="30.1523" x2="102.109" y2="19.5871" stroke="#727272" stroke-width="3" stroke-linecap="round" stroke-linejoin="round"/>
<line x1="102.109" y1="48.2393" x2="102.109" y2="37.674" stroke="#727272" stroke-width="3" stroke-linecap="round" stroke-linejoin="round"/>
<rect x="9.02173" y="37.6738" width="7.17391" height="11.6957" rx="1.5" stroke="#727272" stroke-width="3"/>
<rect x="9.02173" y="56.8916" width="7.17391" height="11.6957" rx="1.5" stroke="#727272" stroke-width="3"/>
<rect x="9.02173" y="76.1084" width="7.17391" height="11.6957" rx="1.5" stroke="#727272" stroke-width="3"/>
<rect x="90.4131" y="56.8916" width="7.17391" height="11.6957" rx="1.5" stroke="#727272" stroke-width="3"/>
<rect x="90.4131" y="76.1084" width="7.17391" height="11.6957" rx="1.5" stroke="#727272" stroke-width="3"/>
<circle cx="32.9564" cy="85.3475" r="17.1522" fill="white" stroke="#727272" stroke-width="3"/>
<path d="M29 78.2504C29.8877 75.5978 34.326 74.2718 36.5452 78.2501C37.4329 80.4628 36.9891 83.5582 32.1069 83.998V89.3045" stroke="#727272" stroke-width="3" stroke-linecap="round" stroke-linejoin="round"/>
<circle cx="31.826" cy="94.391" r="1.69565" fill="#727272"/>
</svg>
