<svg width="89" height="86" viewBox="0 0 89 86" fill="none" xmlns="http://www.w3.org/2000/svg">
<rect x="2.16809" y="14.416" width="85" height="56" rx="5.5" fill="#D8D8D8" stroke="#727272" stroke-width="3"/>
<rect x="35.1681" y="70.416" width="19" height="13" fill="#A0A0A0" stroke="#727272" stroke-width="3"/>
<line x1="27.6681" y1="83.916" x2="61.6681" y2="83.916" stroke="#727272" stroke-width="4" stroke-linecap="round" stroke-linejoin="round"/>
<path fill-rule="evenodd" clip-rule="evenodd" d="M45.2245 68.9273L81.6585 68.9751C83.8677 68.978 85.6601 67.1895 85.662 64.9804L85.6681 57.9804L44.4212 57.9263L44.4212 57.9695L3.67419 57.916L3.66809 64.916C3.66617 67.1251 5.45546 68.9184 7.6646 68.9213L45.2245 68.9705L45.2245 68.9273Z" fill="#A0A0A0"/>
<line x1="2.66809" y1="58.416" x2="86.6681" y2="58.416" stroke="#727272" stroke-width="3"/>
<rect x="17.1681" y="18.416" width="49" height="34" rx="5.5" fill="#C4C4C4" stroke="#727272" stroke-width="3"/>
<rect x="24.1681" y="10.416" width="49" height="34" rx="5.5" fill="#C4C4C4" stroke="#727272" stroke-width="3"/>
<rect x="31.1681" y="2.41602" width="49" height="34" rx="5.5" fill="#A0A0A0" stroke="#727272" stroke-width="3"/>
<rect x="38.1681" y="9.41602" width="22" height="14" rx="4.5" fill="#D8D8D8" stroke="#727272" stroke-width="3"/>
<line x1="37.1681" y1="29.416" x2="59.1681" y2="29.416" stroke="#727272" stroke-width="3" stroke-linecap="round" stroke-linejoin="round"/>
<line x1="66.1681" y1="10.416" x2="73.1681" y2="10.416" stroke="#727272" stroke-width="3" stroke-linecap="round" stroke-linejoin="round"/>
<line x1="66.1681" y1="16.416" x2="73.1681" y2="16.416" stroke="#727272" stroke-width="3" stroke-linecap="round" stroke-linejoin="round"/>
<line x1="66.1681" y1="22.416" x2="73.1681" y2="22.416" stroke="#727272" stroke-width="3" stroke-linecap="round" stroke-linejoin="round"/>
<line x1="66.1681" y1="29.416" x2="73.1681" y2="29.416" stroke="#727272" stroke-width="3" stroke-linecap="round" stroke-linejoin="round"/>
</svg>
