<svg width="37" height="37" viewBox="0 0 37 37" fill="none" xmlns="http://www.w3.org/2000/svg">
<rect x="2.16809" y="2.41602" width="33" height="33" rx="2.5" stroke="black" stroke-width="3" stroke-linecap="square" stroke-linejoin="round"/>
<path d="M13.9064 27.916H11.0587V15.2363H13.9064V27.916ZM10.8829 11.9434C10.8829 11.5059 11.0197 11.1426 11.2931 10.8535C11.5743 10.5645 11.9728 10.4199 12.4884 10.4199C13.004 10.4199 13.4025 10.5645 13.6837 10.8535C13.965 11.1426 14.1056 11.5059 14.1056 11.9434C14.1056 12.373 13.965 12.7324 13.6837 13.0215C13.4025 13.3027 13.004 13.4434 12.4884 13.4434C11.9728 13.4434 11.5743 13.3027 11.2931 13.0215C11.0197 12.7324 10.8829 12.373 10.8829 11.9434ZM19.6603 15.2363L19.7423 16.7012C20.6798 15.5684 21.9103 15.002 23.4337 15.002C26.0743 15.002 27.4181 16.5137 27.465 19.5371V27.916H24.6173V19.7012C24.6173 18.8965 24.4415 18.3027 24.09 17.9199C23.7462 17.5293 23.1798 17.334 22.3907 17.334C21.2423 17.334 20.3868 17.8535 19.8243 18.8926V27.916H16.9767V15.2363H19.6603Z" fill="black"/>
</svg>
