<svg width="79" height="96" viewBox="0 0 79 96" fill="none" xmlns="http://www.w3.org/2000/svg">
<ellipse cx="52.3462" cy="86.0331" rx="26.6538" ry="9.25481" fill="#ECECEC" fill-opacity="0.48"/>
<circle cx="39.7597" cy="36.0573" r="8.14423" fill="#434343"/>
<circle cx="39.7596" cy="36.0579" r="28.8558" stroke="#979797" stroke-width="3"/>
<path d="M50.8461 35.6876C50.8461 43.6043 49.4214 50.6996 47.1797 55.7595C46.058 58.2913 44.7611 60.2472 43.3969 61.5496C42.0403 62.8447 40.6886 63.4328 39.3893 63.4328C38.0901 63.4328 36.7384 62.8447 35.3818 61.5496C34.0176 60.2472 32.7207 58.2913 31.599 55.7595C29.3573 50.6996 27.9326 43.6043 27.9326 35.6876C27.9326 27.7708 29.3573 20.6756 31.599 15.6157C32.7207 13.0838 34.0176 11.128 35.3818 9.82557C36.7384 8.53044 38.0901 7.94238 39.3893 7.94238C40.6886 7.94238 42.0403 8.53044 43.3969 9.82557C44.7611 11.128 46.058 13.0838 47.1797 15.6157C49.4214 20.6756 50.8461 27.7708 50.8461 35.6876Z" stroke="#979797" stroke-width="3"/>
<line x1="67.1345" y1="36.0771" x2="22.7499" y2="36.0771" stroke="#979797" stroke-width="3" stroke-linecap="round" stroke-linejoin="round"/>
<line x1="16.7883" y1="36.0771" x2="15.346" y2="36.0771" stroke="#979797" stroke-width="3" stroke-linecap="round" stroke-linejoin="round"/>
<path d="M18.2883 19.7695C24.4582 23.8416 44.9422 27.9138 61.6008 19.7695" stroke="#979797" stroke-width="3"/>
<path d="M18.2883 54.5674C24.4055 50.079 44.7144 45.5907 61.2306 54.5674" stroke="#979797" stroke-width="3"/>
<path d="M72.5186 66.4135L69.187 62.7115C59.1657 70.046 49.7141 73.3776 41.2404 73.7877M9.95606 2L14.3986 6.07212C-11.7881 28.0926 6.51677 75.4684 41.2404 73.7877M41.2404 73.7877V83.4423M41.2404 83.4423H23.101M41.2404 83.4423H59.0096" stroke="#727272" stroke-width="3" stroke-linecap="round" stroke-linejoin="round"/>
</svg>
