<svg width="113" height="107" viewBox="0 0 113 107" fill="none" xmlns="http://www.w3.org/2000/svg">
<circle cx="21.4731" cy="27.3935" r="17.7129" stroke="#727272" stroke-width="3"/>
<circle cx="22.0382" cy="26.8285" r="6.3461" stroke="#727272" stroke-width="2"/>
<circle cx="80.6407" cy="75.2593" r="8.29223" transform="rotate(-8.1694 80.6407 75.2593)" stroke="#727272" stroke-width="2"/>
<circle cx="18.8407" cy="79.0097" r="4.87832" transform="rotate(-8.1694 18.8407 79.0097)" stroke="#727272" stroke-width="2"/>
<circle cx="84.2522" cy="21.5514" r="4.87832" transform="rotate(-23.0964 84.2522 21.5514)" stroke="#727272" stroke-width="2"/>
<circle cx="80.6398" cy="75.2603" r="12.5809" transform="rotate(-8.1694 80.6398 75.2603)" stroke="#727272" stroke-width="2"/>
<circle cx="18.8403" cy="79.0099" r="7.59139" transform="rotate(-8.1694 18.8403 79.0099)" stroke="#727272" stroke-width="2"/>
<circle cx="84.2517" cy="21.5521" r="7.59139" transform="rotate(-23.0964 84.2517 21.5521)" stroke="#727272" stroke-width="2"/>
<circle cx="22.0383" cy="26.8284" r="2.32542" stroke="#727272"/>
<path fill-rule="evenodd" clip-rule="evenodd" d="M78.1154 46.715L86.6817 47.1521L87.6239 51.9473C90.7789 52.7235 93.6875 54.094 96.2318 55.9281L100.052 53.8656L106.461 60.8846L103.869 64.791C105.131 67.2389 106 69.9164 106.395 72.7357L111.069 74.1609L110.632 82.7272L105.493 83.7368C105.006 85.2932 104.371 86.7815 103.606 88.1865L106.951 93.8401L100.038 100.364L95.3068 97.1818C92.2896 99.1571 88.8276 100.495 85.1205 101.015L83.6952 105.689L75.1289 105.252L74.1189 100.111C71.6605 99.3409 69.3719 98.2035 67.3135 96.766L62.022 99.5083L55.7324 92.3822L59.198 87.3458C58.2524 85.4413 57.5432 83.4025 57.107 81.2698L52.0963 79.742L52.5334 71.1757L57.3286 70.2336C57.9375 67.759 58.9119 65.4359 60.189 63.3214L57.4547 58.4282L64.3797 51.9179L68.7943 54.7554C71.1714 53.3334 73.7992 52.2964 76.5875 51.726L78.1154 46.715ZM94.4425 57.1194L101.822 65.2013C103.799 68.8122 104.832 72.9983 104.607 77.4114C103.959 90.1071 93.1424 99.8739 80.4467 99.2261C67.7509 98.5783 57.9842 87.7612 58.632 75.0655C59.2798 62.3698 70.0968 52.603 82.7925 53.2508C87.1135 53.4713 91.0952 54.8698 94.4425 57.1194Z" fill="#727272"/>
<path fill-rule="evenodd" clip-rule="evenodd" d="M17.2432 60.9524L22.6623 61.2289L23.2582 64.262C25.2542 64.7531 27.0944 65.6202 28.704 66.7806L31.1205 65.4761L35.1748 69.9163L33.5351 72.3875C34.3336 73.936 34.883 75.6299 35.1331 77.4134L38.0902 78.315L37.8137 83.7341L34.5622 84.3729C34.2537 85.3573 33.8522 86.2986 33.3685 87.1872L35.4846 90.7644L31.1118 94.8913L28.1179 92.8779C26.2094 94.1273 24.0195 94.9734 21.6746 95.3022L20.7728 98.2595L15.3537 97.983L14.7148 94.7309C13.1599 94.2436 11.7124 93.5242 10.4104 92.6151L7.06235 94.3503L3.08353 89.8423L5.27604 86.656C4.67779 85.4513 4.22913 84.1616 3.95312 82.8126L0.783331 81.8461L1.05984 76.427L4.09283 75.8311C4.47794 74.2653 5.09443 72.7955 5.90238 71.4576L4.17305 68.3628L8.55385 64.2444L11.3456 66.0388C12.8497 65.1389 14.5124 64.4828 16.2767 64.1219L17.2432 60.9524ZM18.7552 93.437C26.3813 93.8261 32.8789 87.9594 33.268 80.3333C33.6571 72.7072 27.7904 66.2095 20.1643 65.8204C12.5382 65.4313 6.04055 71.298 5.65143 78.9241C5.26231 86.5502 11.129 93.0479 18.7552 93.437Z" fill="#727272"/>
<path fill-rule="evenodd" clip-rule="evenodd" d="M78.0568 4.51497L83.3643 3.38625L84.7214 6.1635C86.7766 6.12383 88.7781 6.48769 90.6324 7.19439L92.6313 5.31142L97.6925 8.55748L96.7447 11.3677C97.915 12.6582 98.8821 14.1532 99.5831 15.8119L102.673 15.9214L103.801 21.2289L100.824 22.6837C100.78 23.7142 100.634 24.727 100.396 25.7102L103.362 28.6213L100.199 33.7353L96.7888 32.5613C95.2664 34.2604 93.3682 35.6424 91.1868 36.5641L91.0773 39.6539L85.7698 40.7826L84.3148 37.8049C82.6865 37.7345 81.1023 37.4122 79.6098 36.869L76.8225 39.4072L71.8167 36.0762L73.1142 32.4334C72.2258 31.4234 71.46 30.2927 70.8458 29.0601L67.5344 28.9427L66.4057 23.6353L69.1828 22.2782C69.1517 20.6661 69.3689 19.087 69.805 17.5861L67.3365 15.0409L70.5086 9.93295L73.6694 10.948C74.8907 9.69147 76.328 8.62945 77.9394 7.82648L78.0568 4.51497ZM87.8855 35.5139C95.3544 33.9255 100.122 26.583 98.5332 19.114C96.9448 11.645 89.6023 6.87785 82.1333 8.46626C74.6643 10.0547 69.8972 17.3971 71.4856 24.8661C73.074 32.3351 80.4165 37.1023 87.8855 35.5139Z" fill="#727272"/>
<path d="M12.228 21.7432C10.0379 24.1423 8.12161 29.5949 14.6923 34.175" stroke="#727272" stroke-width="2"/>
<path d="M62.7241 98.0286L6.77826 37.5618" stroke="#727272" stroke-width="2"/>
<path d="M62.7241 98.0286L6.77826 37.5618" stroke="#727272" stroke-width="2"/>
<path d="M99.4509 55.0901L32.7747 13.2667" stroke="#727272" stroke-width="2"/>
</svg>
