<svg width="75" height="74" viewBox="0 0 75 74" fill="none" xmlns="http://www.w3.org/2000/svg">
<circle cx="4.72432" cy="4.72432" r="3.22432" fill="#C4C4C4" stroke="#7A7A7A" stroke-width="3"/>
<rect x="8.39893" y="7.34863" width="57.7417" height="57.7417" fill="#C4C4C4"/>
<rect x="14.1729" y="54.0674" width="2.62462" height="2.62462" fill="#727272"/>
<rect x="3.67432" y="52.4922" width="2.62462" height="2.62462" fill="#727272"/>
<rect x="18.3723" y="25.1963" width="2.62462" height="2.62462" fill="#727272"/>
<rect x="12.5981" y="3.15039" width="2.62462" height="2.62462" fill="#727272"/>
<rect x="17.3225" y="3.15039" width="2.62462" height="2.62462" fill="#727272"/>
<rect x="18.3723" y="29.3955" width="2.62462" height="2.62462" fill="#727272"/>
<rect x="23.0967" y="29.3955" width="2.62462" height="2.62462" fill="#727272"/>
<rect x="27.821" y="29.3955" width="2.62462" height="2.62462" fill="#727272"/>
<rect x="46.1934" y="19.9473" width="2.62462" height="2.62462" fill="#727272"/>
<rect x="50.3926" y="19.9473" width="2.62462" height="2.62462" fill="#727272"/>
<rect x="46.1934" y="23.6221" width="2.62462" height="2.62462" fill="#727272"/>
<rect x="58.2666" y="46.1943" width="2.62462" height="2.62462" fill="#727272"/>
<rect x="51.4429" y="54.5918" width="2.62462" height="2.62462" fill="#727272"/>
<rect x="51.4429" y="58.793" width="2.62462" height="2.62462" fill="#727272"/>
<rect x="56.1667" y="54.5918" width="2.62462" height="2.62462" fill="#727272"/>
<rect x="60.8914" y="54.5918" width="2.62462" height="2.62462" fill="#727272"/>
<rect x="58.2666" y="50.918" width="2.62462" height="2.62462" fill="#727272"/>
<rect x="32.5452" y="54.5918" width="2.62462" height="2.62462" fill="#727272"/>
<rect x="36.22" y="61.9414" width="2.62462" height="2.62462" fill="#727272"/>
<rect x="58.2666" y="41.4688" width="2.62462" height="2.62462" fill="#727272"/>
<rect x="61.9412" y="44.0938" width="2.62462" height="2.62462" fill="#727272"/>
<rect x="41.4692" y="19.9473" width="2.62462" height="2.62462" fill="#727272"/>
<rect x="3.67432" y="57.2158" width="2.62462" height="2.62462" fill="#727272"/>
<rect x="11.5486" y="67.1904" width="2.62462" height="2.62462" fill="#727272"/>
<rect x="16.7976" y="67.1904" width="2.62462" height="2.62462" fill="#727272"/>
<rect x="22.0466" y="67.1904" width="2.62462" height="2.62462" fill="#727272"/>
<rect x="27.2959" y="67.1904" width="2.62462" height="2.62462" fill="#727272"/>
<rect x="35.6948" y="49.8672" width="2.62462" height="2.62462" fill="#727272"/>
<rect x="45.1436" y="3.15039" width="2.62462" height="2.62462" fill="#727272"/>
<rect x="60.8914" y="9.44824" width="2.62462" height="2.62462" fill="#727272"/>
<rect x="35.6948" y="54.0674" width="2.62462" height="2.62462" fill="#727272"/>
<rect x="35.6948" y="58.2666" width="2.62462" height="2.62462" fill="#727272"/>
<line x1="8.39893" y1="44.1689" x2="49.3565" y2="44.1689" stroke="#727272" stroke-width="3"/>
<line x1="39.894" y1="68.3145" x2="66.1403" y2="68.3145" stroke="#727272" stroke-width="3"/>
<line x1="69.7402" y1="37.7949" x2="69.7402" y2="64.0412" stroke="#727272" stroke-width="3"/>
<line x1="5.17432" y1="7.87402" x2="5.17432" y2="34.1203" stroke="#727272" stroke-width="3"/>
<line x1="37.1948" y1="5.77441" x2="37.1948" y2="32.0206" stroke="#727272" stroke-width="3"/>
<circle cx="37.2695" cy="4.72432" r="3.22432" fill="#C4C4C4" stroke="#7A7A7A" stroke-width="3"/>
<line x1="69.7402" y1="7.34863" x2="69.7402" y2="21.5216" stroke="#727272" stroke-width="3"/>
<line x1="65.6155" y1="4.65039" x2="50.3927" y2="4.65039" stroke="#727272" stroke-width="3"/>
<line x1="37.2698" y1="17.248" x2="22.047" y2="17.248" stroke="#727272" stroke-width="3"/>
<circle cx="5.24898" cy="44.0935" r="3.22432" fill="#C4C4C4" stroke="#7A7A7A" stroke-width="3"/>
<circle cx="26.2463" cy="55.6423" r="3.22432" fill="#C4C4C4" stroke="#7A7A7A" stroke-width="3"/>
<circle cx="5.24898" cy="68.7653" r="3.22432" fill="#C4C4C4" stroke="#7A7A7A" stroke-width="3"/>
<circle cx="37.2695" cy="68.7653" r="3.22432" fill="#C4C4C4" stroke="#7A7A7A" stroke-width="3"/>
<circle cx="69.29" cy="67.1892" r="3.22432" fill="#C4C4C4" stroke="#7A7A7A" stroke-width="3"/>
<circle cx="37.2695" cy="29.3962" r="3.22432" fill="#C4C4C4" stroke="#7A7A7A" stroke-width="3"/>
<circle cx="69.29" cy="29.9206" r="3.22432" fill="#C4C4C4" stroke="#7A7A7A" stroke-width="3"/>
<circle cx="69.29" cy="4.72432" r="3.22432" fill="#C4C4C4" stroke="#7A7A7A" stroke-width="3"/>
<circle cx="19.4226" cy="16.7966" r="3.22432" fill="#C4C4C4" stroke="#7A7A7A" stroke-width="3"/>
<circle cx="51.4428" cy="44.0935" r="3.22432" fill="#C4C4C4" stroke="#7A7A7A" stroke-width="3"/>
<circle cx="59.8413" cy="17.8474" r="3.22432" fill="#C4C4C4" stroke="#7A7A7A" stroke-width="3"/>
</svg>
