<svg width="148" height="151" viewBox="0 0 148 151" fill="none" xmlns="http://www.w3.org/2000/svg">
<mask id="path-1-inside-1" fill="white">
<path fill-rule="evenodd" clip-rule="evenodd" d="M70.5546 99.0125C84.3575 105.569 100.862 99.6954 107.419 85.8924C113.976 72.0895 108.102 55.5846 94.2993 49.0276C80.4964 42.4707 63.9915 48.3448 57.4346 62.1477C50.8776 75.9506 56.7517 92.4556 70.5546 99.0125ZM77.678 84.0173C83.1992 86.6401 89.8012 84.2905 92.4239 78.7693C95.0467 73.2481 92.6971 66.6462 87.1759 64.0234C81.6547 61.4006 75.0528 63.7502 72.43 69.2714C69.8072 74.7926 72.1569 81.3946 77.678 84.0173Z"/>
</mask>
<path fill-rule="evenodd" clip-rule="evenodd" d="M70.5546 99.0125C84.3575 105.569 100.862 99.6954 107.419 85.8924C113.976 72.0895 108.102 55.5846 94.2993 49.0276C80.4964 42.4707 63.9915 48.3448 57.4346 62.1477C50.8776 75.9506 56.7517 92.4556 70.5546 99.0125ZM77.678 84.0173C83.1992 86.6401 89.8012 84.2905 92.4239 78.7693C95.0467 73.2481 92.6971 66.6462 87.1759 64.0234C81.6547 61.4006 75.0528 63.7502 72.43 69.2714C69.8072 74.7926 72.1569 81.3946 77.678 84.0173Z" fill="#C4C4C4"/>
<path d="M104.71 84.6052C98.8636 96.9115 84.1482 102.149 71.8419 96.3027L69.2674 101.722C84.5669 108.99 102.861 102.479 110.129 87.1797L104.71 84.6052ZM93.0121 51.7374C105.318 57.5834 110.556 72.2988 104.71 84.6052L110.129 87.1797C117.397 71.8802 110.886 53.5857 95.5866 46.3178L93.0121 51.7374ZM60.1443 63.435C65.9903 51.1286 80.7057 45.8914 93.0121 51.7374L95.5866 46.3178C80.2871 39.05 61.9926 45.5609 54.7248 60.8604L60.1443 63.435ZM71.8419 96.3027C59.5355 90.4567 54.2984 75.7413 60.1443 63.435L54.7248 60.8604C47.4569 76.16 53.9678 94.4544 69.2674 101.722L71.8419 96.3027ZM89.7142 77.4821C87.8023 81.5067 82.9899 83.2194 78.9653 81.3075L76.3908 86.7271C83.4085 90.0608 91.8 87.0743 95.1337 80.0566L89.7142 77.4821ZM85.8887 66.7332C89.9133 68.645 91.626 73.4575 89.7142 77.4821L95.1337 80.0566C98.4674 73.0388 95.4809 64.6473 88.4632 61.3136L85.8887 66.7332ZM75.1398 70.5587C77.0516 66.5341 81.8641 64.8213 85.8887 66.7332L88.4632 61.3136C81.4454 57.9799 73.0539 60.9664 69.7202 67.9842L75.1398 70.5587ZM78.9653 81.3075C74.9407 79.3957 73.228 74.5833 75.1398 70.5587L69.7202 67.9842C66.3865 75.0019 69.373 83.3934 76.3908 86.7271L78.9653 81.3075Z" fill="#727272" mask="url(#path-1-inside-1)"/>
<rect x="64.5065" y="93.6895" width="14.3879" height="8.85408" transform="rotate(25.4095 64.5065 93.6895)" fill="#727272"/>
<rect x="90.1508" y="39.7061" width="14.3879" height="8.85408" transform="rotate(25.4095 90.1508 39.7061)" fill="#727272"/>
<rect x="48.587" y="65.2979" width="14.3879" height="8.85408" transform="rotate(-64.5687 48.587 65.2979)" fill="#727272"/>
<rect x="102.571" y="90.9424" width="14.3879" height="8.85408" transform="rotate(-64.5687 102.571 90.9424)" fill="#727272"/>
<rect x="85.9205" y="100.198" width="14.3879" height="8.85408" transform="rotate(-24.9451 85.9205 100.198)" fill="#727272"/>
<rect x="51.7837" y="91.3379" width="14.3879" height="8.85408" transform="rotate(-106.625 51.7837 91.3379)" fill="#727272"/>
<rect x="109.504" y="70.4795" width="14.3879" height="8.85408" transform="rotate(-113.018 109.504 70.4795)" fill="#727272"/>
<rect x="65.1578" y="43.3115" width="14.3879" height="8.85408" transform="rotate(-16.1963 65.1578 43.3115)" fill="#727272"/>
<path d="M107.881 35.916C122.127 46.3425 142.669 75.185 110.865 107.143M110.865 107.143L111.446 99.4572M110.865 107.143L118.551 107.724" stroke="#4D4D4D" stroke-width="3"/>
<path d="M102.215 113.972C85.9936 120.939 50.7133 123.966 39.361 80.3326M39.361 80.3326L45.6843 84.7399M39.361 80.3326L34.9536 86.6558" stroke="#4D4D4D" stroke-width="3"/>
<path d="M39.1151 68.7021C41.4009 51.1965 56.8021 19.3112 100.12 31.8156M100.12 31.8156L93.1026 35.0044M100.12 31.8156L96.931 24.7985" stroke="#4D4D4D" stroke-width="3"/>
</svg>
