<svg width="119" height="104" viewBox="0 0 119 104" fill="none" xmlns="http://www.w3.org/2000/svg">
<path d="M21.2988 98.0615V87.1705L2.1958 86.5298V62.1852H25.1194V44.2471H51.2267" stroke="#868686" stroke-width="3" stroke-linecap="round" stroke-linejoin="round"/>
<path d="M69.165 98.0618H81.5909V78.9277H111.021" stroke="#6A6A6A" stroke-width="3" stroke-linecap="round" stroke-linejoin="round"/>
<path d="M52.4226 90.8864V78.8218H71.5566V43.263H90.6906V19.1338" stroke="#919191" stroke-width="3" stroke-linecap="round" stroke-linejoin="round"/>
<path d="M64.3813 82.5154V70.8084H82.9174V34.3866H101.454V8.37109" stroke="#B0B0B0" stroke-width="3" stroke-linecap="round" stroke-linejoin="round"/>
<path d="M48.835 34.6807H60.51V52.6188H87.103" stroke="#CECECE" stroke-width="3" stroke-linecap="round" stroke-linejoin="round"/>
<path d="M48.835 74.1446V61.2056H65.5772V34.6807" stroke="#A0A0A0" stroke-width="3" stroke-linecap="round" stroke-linejoin="round"/>
<path d="M20.134 65.7727H77.5361V7.1748" stroke="#535353" stroke-width="3" stroke-linecap="round" stroke-linejoin="round"/>
<path d="M113.412 52.6183V86.1028H32.0928V27.5049" stroke="#A4A4A4" stroke-width="3" stroke-linecap="round" stroke-linejoin="round"/>
<path d="M117 101.65V92.3787H99.0618V65.7734" stroke="#494949" stroke-width="3" stroke-linecap="round" stroke-linejoin="round"/>
<path d="M5.78345 19.1338H16.0864V38.2678H39.9119V19.1338H64.3814" stroke="#737373" stroke-width="3" stroke-linecap="round" stroke-linejoin="round"/>
<path d="M39.2681 74.1441V50.2266H95.4742" stroke="#7C7C7C" stroke-width="3" stroke-linecap="round" stroke-linejoin="round"/>
<path d="M111.021 47.8349V25.1133H56.0103" stroke="#757575" stroke-width="3" stroke-linecap="round" stroke-linejoin="round"/>
<path d="M57.2063 43.649L50.031 48.3095V38.9886L57.2063 43.649Z" fill="#868686"/>
<path d="M44.0515 34.6804L51.2268 30.5377V38.823L44.0515 34.6804Z" fill="#CECECE"/>
<path d="M66.1753 28.7012L70.3609 35.8764H61.9897L66.1753 28.7012Z" fill="#A0A0A0"/>
<path d="M32.0928 19.1338L36.2355 27.206H27.9502L32.0928 19.1338Z" fill="#A4A4A4"/>
<path d="M76.9381 0L81.5986 8.07217H72.2776L76.9381 0Z" fill="#535353"/>
<path d="M91.2887 11.959L95.9491 19.1342H86.6282L91.2887 11.959Z" fill="#909090"/>
<path d="M101.454 1.19629L105.596 9.26845H97.311L101.454 1.19629Z" fill="#B0B0B0"/>
<path d="M99.0618 58.5977L103.204 66.6698H94.9192L99.0618 58.5977Z" fill="#494949"/>
<path d="M1 19.1345L9.07217 14.9918L9.07217 23.2771L1 19.1345Z" fill="#737373"/>
<path d="M50.031 25.7113L58.1032 21.0509V30.3718L50.031 25.7113Z" fill="#737373"/>
</svg>
