<svg width="108" height="108" viewBox="0 0 108 108" fill="none" xmlns="http://www.w3.org/2000/svg">
<rect x="39.3457" y="2" width="66.6542" height="66.6542" rx="6" stroke="#727272" stroke-width="4"/>
<path d="M70.1494 26.2422L82.8242 48.1955H57.4747L70.1494 26.2422Z" fill="#727272"/>
<path d="M79.7382 35.3262L88.4794 50.4664H70.997L79.7382 35.3262Z" fill="#727272"/>
<circle cx="87.8132" cy="20.1869" r="6.05607" fill="#727272"/>
<mask id="path-5-inside-1" fill="white">
<path fill-rule="evenodd" clip-rule="evenodd" d="M4.83722 46.4106L12.5012 56.3133L19.4784 55.3469L21.8416 49.0844L14.1776 39.1817C19.979 38.9143 31.0439 42.3425 28.8925 58.1948L54.7554 91.6122C54.8948 91.7489 55.026 91.8962 55.1481 92.0539C56.854 94.2581 56.1284 97.6768 53.4834 99.7239C50.8383 101.771 47.4821 101.511 45.7762 99.3071C45.4226 99.0015 45.155 98.648 44.9662 98.2613L19.5521 65.4237C13.6537 65.344 2.453 61.4298 4.83722 46.4106Z"/>
</mask>
<path d="M12.5012 56.3133L10.9196 57.5374L11.6284 58.4532L12.7756 58.2944L12.5012 56.3133ZM4.83722 46.4106L6.41887 45.1865L3.58729 41.5278L2.86195 46.097L4.83722 46.4106ZM19.4784 55.3469L19.7528 57.328L20.93 57.165L21.3496 56.053L19.4784 55.3469ZM21.8416 49.0844L23.7128 49.7905L24.1076 48.7445L23.4233 47.8603L21.8416 49.0844ZM14.1776 39.1817L14.0855 37.1839L10.2396 37.3612L12.596 40.4058L14.1776 39.1817ZM28.8925 58.1948L26.9107 57.9259L26.798 58.7562L27.3109 59.4189L28.8925 58.1948ZM54.7554 91.6122L53.1737 92.8363L53.2574 92.9445L53.3551 93.0402L54.7554 91.6122ZM45.7762 99.3071L47.3579 98.083L47.2354 97.9248L47.084 97.7939L45.7762 99.3071ZM44.9662 98.2613L46.7635 97.3839L46.6735 97.1995L46.5479 97.0372L44.9662 98.2613ZM19.5521 65.4237L21.1337 64.1996L20.5435 63.4369L19.5791 63.4239L19.5521 65.4237ZM14.0829 55.0892L6.41887 45.1865L3.25557 47.6347L10.9196 57.5374L14.0829 55.0892ZM19.204 53.3658L12.2268 54.3322L12.7756 58.2944L19.7528 57.328L19.204 53.3658ZM19.9704 48.3783L17.6072 54.6408L21.3496 56.053L23.7128 49.7905L19.9704 48.3783ZM12.596 40.4058L20.26 50.3085L23.4233 47.8603L15.7593 37.9576L12.596 40.4058ZM30.8744 58.4638C32.0209 50.0154 29.6623 44.4703 25.8305 41.1348C22.1167 37.902 17.3448 37.0336 14.0855 37.1839L14.2698 41.1796C16.8118 41.0624 20.4731 41.7744 23.2042 44.1519C25.8174 46.4267 27.9155 50.5219 26.9107 57.9259L30.8744 58.4638ZM56.337 90.3881L30.4742 56.9707L27.3109 59.4189L53.1737 92.8363L56.337 90.3881ZM53.3551 93.0402C53.4297 93.1134 53.5003 93.1926 53.5664 93.278L56.7297 90.8298C56.5517 90.5998 56.3598 90.3844 56.1556 90.1842L53.3551 93.0402ZM53.5664 93.278C54.4075 94.3647 54.2966 96.5655 52.2593 98.1423L54.7074 101.306C57.9602 98.7881 59.3005 94.1515 56.7297 90.8298L53.5664 93.278ZM52.2593 98.1423C50.2855 99.6698 48.2412 99.2244 47.3579 98.083L44.1946 100.531C46.723 103.798 51.3911 103.872 54.7074 101.306L52.2593 98.1423ZM47.084 97.7939C46.9346 97.6649 46.8336 97.5275 46.7635 97.3839L43.1689 99.1386C43.4763 99.7684 43.9106 100.338 44.4684 100.82L47.084 97.7939ZM17.9705 66.6478L43.3846 99.4853L46.5479 97.0372L21.1337 64.1996L17.9705 66.6478ZM2.86195 46.097C1.57734 54.1893 3.94549 59.6397 7.76347 63.0174C11.4568 66.2848 16.2416 67.3791 19.5251 67.4235L19.5791 63.4239C16.9643 63.3886 13.1995 62.4859 10.4139 60.0215C7.75297 57.6674 5.71288 53.6511 6.81249 46.7242L2.86195 46.097Z" fill="#727272" mask="url(#path-5-inside-1)"/>
<circle cx="49.643" cy="95.3332" r="1.51402" transform="rotate(-37.7375 49.643 95.3332)" fill="#727272"/>
<path d="M60.8873 79.1534C72.2823 74.1006 88.0902 66.6015 102.4 88.4421M102.4 88.4421L99.0549 75.755M102.4 88.4421L91.8838 83.4269" stroke="#727272" stroke-width="3"/>
<path d="M101.597 94.9514C90.3739 100.376 74.8209 108.39 59.8011 87.0315M59.8011 87.0315L63.5614 99.6019M59.8011 87.0315L70.4766 91.6985" stroke="#727272" stroke-width="3"/>
</svg>
