<svg width="45" height="31" viewBox="0 0 45 31" fill="none" xmlns="http://www.w3.org/2000/svg">
<path d="M30.8649 4.04485C31.799 4.05638 32.721 4.23686 33.5759 4.57554C34.4308 4.91422 35.201 5.40416 35.8408 6.01616C35.8408 6.01616 38.5562 5.53691 40.0561 4.588C40.0561 4.588 39.6793 6.46665 37.1807 7.9044H37.202C37.394 7.9044 38.7943 7.87245 40.9979 6.9459C40.9979 6.9459 40.575 8.029 37.6925 10.0898C37.8667 14.9653 35.1832 23.9784 25.2527 27.1861C23.0718 27.9033 20.7687 28.2741 18.4464 28.282C14.7257 28.2973 11.0813 27.3344 7.96146 25.512C8.49459 25.5599 8.97441 25.5599 9.45423 25.5599C15.3258 25.5599 18.1692 22.8505 18.0128 22.8505H17.796C12.8201 22.8505 11.6081 18.5693 11.6081 18.5693C12.0066 18.7858 12.469 18.8883 12.9338 18.8632C13.5346 18.852 14.1316 18.7736 14.7109 18.63C9.09525 17.435 9.30495 12.5914 9.30495 12.5914C10.0638 13.0467 10.9518 13.2973 11.864 13.3135C12.014 13.315 12.1639 13.3043 12.3118 13.2816C7.18308 9.63288 10.2717 5.27812 10.2717 5.27812C16.0509 11.3071 23.1558 11.5211 24.1332 11.5211H24.2505C23.7244 8.69036 25.0217 5.97143 28.5155 4.49215C29.2444 4.19128 30.038 4.03856 30.84 4.04485H30.8649ZM43.326 0L38.7304 2.90105C38.0285 3.27925 37.2695 3.56441 36.477 3.74772C34.8685 2.61864 32.8914 1.99665 30.8506 1.9777C29.7098 1.9682 28.5809 2.18645 27.5452 2.61669C24.2824 3.99373 22.2992 6.3708 21.9047 9.22392C18.042 8.5078 14.5616 6.64007 12.0275 3.92344L10.0016 1.81156L8.3311 4.15348C7.25417 5.74823 6.82701 7.62977 7.12266 9.47633L6.99115 12.5211C6.96164 14.454 7.67607 16.3367 9.01351 17.8504L9.36893 19.0964C9.8787 20.7055 10.9138 22.1401 12.3403 23.2148C11.3912 23.4014 10.4222 23.4936 9.45068 23.4895C9.02772 23.4895 8.59055 23.4736 8.14983 23.4416L0 22.8314L6.59308 27.1861C10.1115 29.2671 14.2348 30.3685 18.4464 30.3524C21.0385 30.3461 23.6096 29.9353 26.0453 29.1383C30.9315 27.5707 34.9637 24.3795 37.3122 20.2211C38.9368 17.3813 39.8549 14.2579 40.0028 11.0674C42.3592 9.24309 43.0061 8.08012 43.1802 7.63602L45 2.98092L42.512 4.02249L43.326 0Z" fill="black"/>
</svg>
