<svg width="94" height="127" viewBox="0 0 94 127" fill="none" xmlns="http://www.w3.org/2000/svg">
<circle cx="56" cy="49.9961" r="17.5" stroke="#727272" stroke-width="3"/>
<path d="M62.4999 99.5041L58.4999 125.004M58.4999 125.004H14.9999C10.5 122.496 7.49989 114.496 14.9999 109.504H43.9999C42.9999 93.4961 51.036 69.1575 71.4999 71.4968C84.4999 72.9828 92.9999 81.5039 91.9999 125.004H58.4999Z" stroke="#727272" stroke-width="3" stroke-linecap="round" stroke-linejoin="round"/>
<rect x="2.4426" y="34.0054" width="10.8047" height="56.0314" transform="rotate(-20.1884 2.4426 34.0054)" stroke="#727272" stroke-width="3"/>
<path d="M14.9999 68.4957L6.00006 101.993" stroke="#727272" stroke-width="3"/>
<line y1="102.496" x2="19" y2="102.496" stroke="#727272" stroke-width="3"/>
<path d="M83.2568 10L76.6605 20.9616L73.5959 16.1385L67.2905 29.6233" stroke="#727272" stroke-width="3" stroke-linecap="round" stroke-linejoin="round"/>
<path d="M92.0134 23.9961L83.6784 29.9911L82.9455 25.4641L74.026 33.412" stroke="#727272" stroke-width="3" stroke-linecap="round" stroke-linejoin="round"/>
<path d="M62.3201 2L63.1409 14.7669L57.8751 12.5478L60.3722 27.2231" stroke="#727272" stroke-width="3" stroke-linecap="round" stroke-linejoin="round"/>
</svg>
