<svg width="143" height="115" viewBox="0 0 143 115" fill="none" xmlns="http://www.w3.org/2000/svg">
<rect x="38.7234" y="14.4297" width="4.45425" height="4.80737" stroke="#727272" stroke-width="3"/>
<rect x="38.7234" y="23.7998" width="8.9268" height="11.0533" stroke="#727272" stroke-width="3"/>
<rect x="58.8496" y="12.0889" width="14.1448" height="14.957" stroke="#727272" stroke-width="3"/>
<rect x="38.7234" y="39.4141" width="4.45425" height="4.80737" stroke="#727272" stroke-width="3"/>
<line x1="61.0862" y1="27.7031" x2="61.0862" y2="30.949" stroke="#727272" stroke-width="3" stroke-linecap="round"/>
<line x1="61.0862" y1="8.18359" x2="61.0862" y2="11.4295" stroke="#727272" stroke-width="3" stroke-linecap="round" stroke-linejoin="round"/>
<line x1="1.5" y1="-1.5" x2="4.46349" y2="-1.5" transform="matrix(0.999906 0.013724 -0.0125108 0.999922 72.2588 25.4209)" stroke="#727272" stroke-width="3" stroke-linecap="round" stroke-linejoin="round"/>
<line x1="1.5" y1="-1.5" x2="4.46349" y2="-1.5" transform="matrix(0.999906 0.013724 -0.0125108 0.999922 52.8772 25.4209)" stroke="#727272" stroke-width="3" stroke-linecap="round" stroke-linejoin="round"/>
<line x1="66.304" y1="27.7031" x2="66.304" y2="30.949" stroke="#727272" stroke-width="3" stroke-linecap="round"/>
<line x1="66.304" y1="8.18359" x2="66.304" y2="11.4295" stroke="#727272" stroke-width="3" stroke-linecap="round" stroke-linejoin="round"/>
<line x1="1.5" y1="-1.5" x2="4.46349" y2="-1.5" transform="matrix(0.999906 0.013724 -0.0125108 0.999922 72.3267 19.9561)" stroke="#727272" stroke-width="3" stroke-linecap="round" stroke-linejoin="round"/>
<line x1="1.5" y1="-1.5" x2="4.46349" y2="-1.5" transform="matrix(0.999906 0.013724 -0.0125108 0.999922 52.9458 19.9561)" stroke="#727272" stroke-width="3" stroke-linecap="round" stroke-linejoin="round"/>
<line x1="71.5222" y1="27.7031" x2="71.5222" y2="30.949" stroke="#727272" stroke-width="3" stroke-linecap="round"/>
<line x1="71.5222" y1="8.18359" x2="71.5222" y2="11.4295" stroke="#727272" stroke-width="3" stroke-linecap="round" stroke-linejoin="round"/>
<line x1="1.5" y1="-1.5" x2="4.46349" y2="-1.5" transform="matrix(0.999906 0.013724 -0.0125108 0.999922 72.395 14.4922)" stroke="#727272" stroke-width="3" stroke-linecap="round" stroke-linejoin="round"/>
<line x1="1.5" y1="-1.5" x2="4.46349" y2="-1.5" transform="matrix(0.999906 0.013724 -0.0125108 0.999922 53.0142 14.4922)" stroke="#727272" stroke-width="3" stroke-linecap="round" stroke-linejoin="round"/>
<rect x="58.1045" y="39.4141" width="14.8902" height="13.3955" stroke="#727272" stroke-width="3"/>
<line x1="70.0222" y1="44.0977" x2="61.0771" y2="44.0977" stroke="#727272" stroke-width="3"/>
<line x1="70.0222" y1="48.7822" x2="61.0771" y2="48.7822" stroke="#727272" stroke-width="3"/>
<rect x="46.1777" y="58.1523" width="43.2164" height="4.02664" stroke="#727272" stroke-width="3"/>
<rect x="46.1777" y="67.5195" width="43.2164" height="4.02664" stroke="#727272" stroke-width="3"/>
<rect x="85.6855" y="7.40332" width="3.70883" height="37.5984" stroke="#727272" stroke-width="3"/>
<rect x="94.6309" y="7.40332" width="3.70883" height="37.5984" stroke="#727272" stroke-width="3"/>
<line x1="52.1414" y1="37.9141" x2="52.1414" y2="43.3792" stroke="#727272" stroke-width="3"/>
<line x1="99.1028" y1="49.625" x2="99.1028" y2="55.0902" stroke="#727272" stroke-width="3"/>
<line x1="99.1028" y1="58.2139" x2="99.1028" y2="63.679" stroke="#727272" stroke-width="3"/>
<line x1="99.1028" y1="66.8008" x2="99.1028" y2="72.2659" stroke="#727272" stroke-width="3"/>
<line x1="52.1414" y1="47.2822" x2="52.1414" y2="52.7474" stroke="#727272" stroke-width="3"/>
<line x1="46.1777" y1="47.2822" x2="46.1777" y2="52.7474" stroke="#727272" stroke-width="3"/>
<line x1="84.9302" y1="31.7295" x2="89.4027" y2="31.7295" stroke="#727272" stroke-width="3"/>
<line x1="94.6208" y1="31.7295" x2="99.0934" y2="31.7295" stroke="#727272" stroke-width="3"/>
<path d="M38.7146 10.9785V2H104.685V76.1701H38.7146V47.6731" stroke="#727272" stroke-width="3"/>
<path fill-rule="evenodd" clip-rule="evenodd" d="M112.789 79.687L140 60.6155L112.789 41.5439V53.2748H46.2749V85.5736H62.6368V67.6298H112.789V79.687Z" fill="white"/>
<path d="M140 60.6155L140.861 61.8438L142.613 60.6155L140.861 59.3872L140 60.6155ZM112.789 79.687H111.289V82.5701L113.65 80.9154L112.789 79.687ZM112.789 41.5439L113.65 40.3156L111.289 38.6609V41.5439H112.789ZM112.789 53.2748V54.7748H114.289V53.2748H112.789ZM46.2749 53.2748V51.7748H44.7749V53.2748H46.2749ZM46.2749 85.5736H44.7749V87.0736H46.2749V85.5736ZM62.6368 85.5736V87.0736H64.1368V85.5736H62.6368ZM62.6368 67.6298V66.1298H61.1368V67.6298H62.6368ZM112.789 67.6298H114.289V66.1298H112.789V67.6298ZM139.139 59.3872L111.929 78.4587L113.65 80.9154L140.861 61.8438L139.139 59.3872ZM111.929 42.7723L139.139 61.8438L140.861 59.3872L113.65 40.3156L111.929 42.7723ZM114.289 53.2748V41.5439H111.289V53.2748H114.289ZM112.789 51.7748H46.2749V54.7748H112.789V51.7748ZM44.7749 53.2748V85.5736H47.7749V53.2748H44.7749ZM46.2749 87.0736H62.6368V84.0736H46.2749V87.0736ZM64.1368 85.5736V67.6298H61.1368V85.5736H64.1368ZM62.6368 69.1298H112.789V66.1298H62.6368V69.1298ZM114.289 79.687V67.6298H111.289V79.687H114.289Z" fill="#727272"/>
<path fill-rule="evenodd" clip-rule="evenodd" d="M30.2105 73.4506L3.00007 92.5222L30.2105 111.594V99.8629H96.7251V67.5641H80.3632V85.5079H30.2105V73.4506Z" fill="white"/>
<path d="M3.00007 92.5222L2.13914 91.2939L0.386604 92.5222L2.13914 93.7505L3.00007 92.5222ZM30.2105 73.4506H31.7105V70.5676L29.3496 72.2223L30.2105 73.4506ZM30.2105 111.594L29.3496 112.822L31.7105 114.477V111.594H30.2105ZM30.2105 99.8629V98.3629H28.7105V99.8629H30.2105ZM96.7251 99.8629V101.363H98.2251V99.8629H96.7251ZM96.7251 67.5641H98.2251V66.0641H96.7251V67.5641ZM80.3632 67.5641V66.0641H78.8632V67.5641H80.3632ZM80.3632 85.5079V87.0079H81.8632V85.5079H80.3632ZM30.2105 85.5079H28.7105V87.0079H30.2105V85.5079ZM3.86099 93.7505L31.0715 74.679L29.3496 72.2223L2.13914 91.2939L3.86099 93.7505ZM31.0715 110.365L3.86099 91.2939L2.13914 93.7505L29.3496 112.822L31.0715 110.365ZM28.7105 99.8629V111.594H31.7105V99.8629H28.7105ZM30.2105 101.363H96.7251V98.3629H30.2105V101.363ZM98.2251 99.8629V67.5641H95.2251V99.8629H98.2251ZM96.7251 66.0641H80.3632V69.0641H96.7251V66.0641ZM78.8632 67.5641V85.5079H81.8632V67.5641H78.8632ZM80.3632 84.0079H30.2105V87.0079H80.3632V84.0079ZM28.7105 73.4506V85.5079H31.7105V73.4506H28.7105Z" fill="#727272"/>
</svg>
