<svg width="192" height="100" viewBox="0 0 192 100" fill="none" xmlns="http://www.w3.org/2000/svg">
<line x1="48.1025" y1="65.0449" x2="146.403" y2="65.0449" stroke="#727272" stroke-width="3"/>
<path d="M81.4234 90.4231L91.893 72.2891L102.363 90.4231H81.4234Z" stroke="#727272" stroke-width="3"/>
<path d="M189.668 2H181.984V23.0219H142.605V2H137.802L133 6.56997V56.8396H189.668V2Z" stroke="#727272" stroke-width="3"/>
<mask id="path-4-inside-1" fill="white">
<path d="M141.848 32C141.848 30.8954 142.744 30 143.848 30H178.236C179.34 30 180.236 30.8954 180.236 32V57.4198H141.848V32Z"/>
</mask>
<path d="M141.848 32C141.848 30.8954 142.744 30 143.848 30H178.236C179.34 30 180.236 30.8954 180.236 32V57.4198H141.848V32Z" stroke="#727272" stroke-width="6" mask="url(#path-4-inside-1)"/>
<line x1="146.848" y1="38" x2="174.268" y2="38" stroke="#727272" stroke-width="2"/>
<line x1="146.848" y1="43.4834" x2="174.268" y2="43.4834" stroke="#727272" stroke-width="2"/>
<line x1="146.848" y1="48.9648" x2="174.268" y2="48.9648" stroke="#727272" stroke-width="2"/>
<rect x="136.656" y="49.5273" width="3.65597" height="3.65597" fill="#727272"/>
<rect x="182.356" y="49.5273" width="3.65597" height="3.65597" fill="#727272"/>
<line x1="143.968" y1="5.98438" x2="180.528" y2="5.98438" stroke="#727272" stroke-width="3"/>
<line x1="148.848" y1="10" x2="148.848" y2="19.1399" stroke="#727272" stroke-width="4"/>
<path d="M15.6724 31.3483C5.65917 26.1726 1.80074 37.2731 3.26124 41.3563C10.1296 60.559 64.1879 53.263 71.7631 45.6212C83.2398 34.0435 67.3844 18.3778 56.8652 27.9856C51.9309 7.83537 36.0351 14.8262 33.7514 26.1762C25.1552 17.1587 16.3131 23.1641 15.6724 31.3483Z" stroke="#727272" stroke-width="3"/>
</svg>
