<svg aria-hidden="true" style="position: absolute; width: 0; height: 0; overflow: hidden;" version="1.1" xmlns="http://www.w3.org/2000/svg" xmlns:xlink="http://www.w3.org/1999/xlink">
<defs>
<symbol id="icon-github" viewBox="0 0 32 32">
<title>github</title>
<path d="M16 0.396c-8.84 0-16 7.164-16 16 0 7.071 4.584 13.067 10.94 15.18 0.8 0.151 1.093-0.344 1.093-0.769 0-0.38-0.013-1.387-0.020-2.72-4.451 0.965-5.389-2.147-5.389-2.147-0.728-1.847-1.78-2.34-1.78-2.34-1.449-0.992 0.112-0.972 0.112-0.972 1.607 0.112 2.451 1.648 2.451 1.648 1.427 2.447 3.745 1.74 4.66 1.331 0.144-1.035 0.556-1.74 1.013-2.14-3.553-0.4-7.288-1.776-7.288-7.907 0-1.747 0.62-3.173 1.647-4.293-0.18-0.404-0.72-2.031 0.14-4.235 0 0 1.34-0.429 4.4 1.64 1.28-0.356 2.64-0.532 4-0.54 1.36 0.008 2.72 0.184 4 0.54 3.040-2.069 4.38-1.64 4.38-1.64 0.86 2.204 0.32 3.831 0.16 4.235 1.020 1.12 1.64 2.547 1.64 4.293 0 6.147-3.74 7.5-7.3 7.893 0.56 0.48 1.080 1.461 1.080 2.96 0 2.141-0.020 3.861-0.020 4.381 0 0.42 0.28 0.92 1.1 0.76 6.401-2.099 10.981-8.099 10.981-15.159 0-8.836-7.164-16-16-16z"></path>
</symbol>
<symbol id="icon-twitter" viewBox="0 0 32 32">
<title>twitter</title>
<path fill="#1da1f2" style="fill: var(--color1, #1da1f2)" d="M31.939 6.092c-1.18 0.519-2.44 0.872-3.767 1.033 1.352-0.815 2.392-2.099 2.884-3.631-1.268 0.74-2.673 1.279-4.169 1.579-1.195-1.279-2.897-2.079-4.788-2.079-3.623 0-6.56 2.937-6.56 6.556 0 0.52 0.060 1.020 0.169 1.499-5.453-0.257-10.287-2.876-13.521-6.835-0.569 0.963-0.888 2.081-0.888 3.3 0 2.28 1.16 4.284 2.917 5.461-1.076-0.035-2.088-0.331-2.971-0.821v0.081c0 3.18 2.257 5.832 5.261 6.436-0.551 0.148-1.132 0.228-1.728 0.228-0.419 0-0.82-0.040-1.221-0.115 0.841 2.604 3.26 4.503 6.139 4.556-2.24 1.759-5.079 2.807-8.136 2.807-0.52 0-1.039-0.031-1.56-0.089 2.919 1.859 6.357 2.945 10.076 2.945 12.072 0 18.665-9.995 18.665-18.648 0-0.279 0-0.56-0.020-0.84 1.281-0.919 2.4-2.080 3.28-3.397l-0.063-0.027z"></path>
</symbol>
<symbol id="icon-linkedin" viewBox="0 0 32 32">
<title>linkedin</title>
<path fill="#0077b5" style="fill: var(--color2, #0077b5)" d="M27.263 27.269h-4.739v-7.425c0-1.771-0.036-4.049-2.469-4.049-2.471 0-2.848 1.927-2.848 3.919v7.556h-4.739v-15.269h4.552v2.081h0.061c0.636-1.2 2.183-2.467 4.493-2.467 4.801 0 5.689 3.16 5.689 7.273v8.381zM7.116 9.911c-1.525 0-2.751-1.235-2.751-2.753 0-1.517 1.227-2.751 2.751-2.751 1.52 0 2.752 1.233 2.752 2.751 0 1.519-1.233 2.753-2.752 2.753zM9.492 27.269h-4.752v-15.269h4.752v15.269zM29.633 0h-27.272c-1.305 0-2.361 1.032-2.361 2.305v27.389c0 1.275 1.056 2.305 2.361 2.305h27.268c1.304 0 2.371-1.031 2.371-2.305v-27.389c0-1.273-1.067-2.305-2.371-2.305h0.004z"></path>
</symbol>
<symbol id="icon-facebook" viewBox="0 0 32 32">
<title>facebook</title>
<path fill="#4172b8" style="fill: var(--color3, #4172b8)" d="M31.997 15.999c0-8.836-7.163-15.999-15.999-15.999s-15.999 7.163-15.999 15.999c0 7.985 5.851 14.604 13.499 15.804v-11.18h-4.062v-4.625h4.062v-3.525c0-4.010 2.389-6.225 6.043-6.225 1.75 0 3.581 0.312 3.581 0.312v3.937h-2.017c-1.987 0-2.607 1.233-2.607 2.498v3.001h4.437l-0.709 4.625h-3.728v11.18c7.649-1.2 13.499-7.819 13.499-15.804z"></path>
</symbol>
<symbol id="icon-caret-left" viewBox="0 0 11 28">
<title>caret-left</title>
<path d="M10 7v14c0 0.547-0.453 1-1 1-0.266 0-0.516-0.109-0.703-0.297l-7-7c-0.187-0.187-0.297-0.438-0.297-0.703s0.109-0.516 0.297-0.703l7-7c0.187-0.187 0.438-0.297 0.703-0.297 0.547 0 1 0.453 1 1z"></path>
</symbol>
<symbol id="icon-caret-right" viewBox="0 0 9 28">
<title>caret-right</title>
<path d="M9 14c0 0.266-0.109 0.516-0.297 0.703l-7 7c-0.187 0.187-0.438 0.297-0.703 0.297-0.547 0-1-0.453-1-1v-14c0-0.547 0.453-1 1-1 0.266 0 0.516 0.109 0.703 0.297l7 7c0.187 0.187 0.297 0.438 0.297 0.703z"></path>
</symbol>
<symbol id="icon-envelope" viewBox="0 0 28 28">
<title>envelope</title>
<path d="M28 11.094v12.406c0 1.375-1.125 2.5-2.5 2.5h-23c-1.375 0-2.5-1.125-2.5-2.5v-12.406c0.469 0.516 1 0.969 1.578 1.359 2.594 1.766 5.219 3.531 7.766 5.391 1.313 0.969 2.938 2.156 4.641 2.156h0.031c1.703 0 3.328-1.188 4.641-2.156 2.547-1.844 5.172-3.625 7.781-5.391 0.562-0.391 1.094-0.844 1.563-1.359zM28 6.5c0 1.75-1.297 3.328-2.672 4.281-2.438 1.687-4.891 3.375-7.313 5.078-1.016 0.703-2.734 2.141-4 2.141h-0.031c-1.266 0-2.984-1.437-4-2.141-2.422-1.703-4.875-3.391-7.297-5.078-1.109-0.75-2.688-2.516-2.688-3.938 0-1.531 0.828-2.844 2.5-2.844h23c1.359 0 2.5 1.125 2.5 2.5z"></path>
</symbol>
<symbol id="icon-map-o" viewBox="0 0 32 28">
<title>map-o</title>
<path d="M31.563 0.172c0.266 0.187 0.438 0.5 0.438 0.828v22c0 0.406-0.25 0.781-0.625 0.922l-10 4c-0.25 0.109-0.5 0.109-0.75 0l-9.625-3.844-9.625 3.844c-0.125 0.063-0.25 0.078-0.375 0.078-0.203 0-0.391-0.063-0.562-0.172-0.266-0.187-0.438-0.5-0.438-0.828v-22c0-0.406 0.25-0.781 0.625-0.922l10-4c0.25-0.109 0.5-0.109 0.75 0l9.625 3.844 9.625-3.844c0.313-0.125 0.656-0.094 0.938 0.094zM11.5 2.281v19.844l9 3.594v-19.844zM2 5.672v19.844l8.5-3.391v-19.844zM30 22.328v-19.844l-8.5 3.391v19.844z"></path>
</symbol>
<symbol id="icon-phone" viewBox="0 0 22 28">
<title>phone</title>
<path d="M22 19.375c0 0.562-0.25 1.656-0.484 2.172-0.328 0.766-1.203 1.266-1.906 1.656-0.922 0.5-1.859 0.797-2.906 0.797-1.453 0-2.766-0.594-4.094-1.078-0.953-0.344-1.875-0.766-2.734-1.297-2.656-1.641-5.859-4.844-7.5-7.5-0.531-0.859-0.953-1.781-1.297-2.734-0.484-1.328-1.078-2.641-1.078-4.094 0-1.047 0.297-1.984 0.797-2.906 0.391-0.703 0.891-1.578 1.656-1.906 0.516-0.234 1.609-0.484 2.172-0.484 0.109 0 0.219 0 0.328 0.047 0.328 0.109 0.672 0.875 0.828 1.188 0.5 0.891 0.984 1.797 1.5 2.672 0.25 0.406 0.719 0.906 0.719 1.391 0 0.953-2.828 2.344-2.828 3.187 0 0.422 0.391 0.969 0.609 1.344 1.578 2.844 3.547 4.813 6.391 6.391 0.375 0.219 0.922 0.609 1.344 0.609 0.844 0 2.234-2.828 3.187-2.828 0.484 0 0.984 0.469 1.391 0.719 0.875 0.516 1.781 1 2.672 1.5 0.313 0.156 1.078 0.5 1.188 0.828 0.047 0.109 0.047 0.219 0.047 0.328z"></path>
</symbol>
<symbol id="icon-long-arrow-up" viewBox="0 0 12 28">
<title>long-arrow-up</title>
<path d="M11.953 7.703c-0.078 0.172-0.25 0.297-0.453 0.297h-3.5v19.5c0 0.281-0.219 0.5-0.5 0.5h-3c-0.281 0-0.5-0.219-0.5-0.5v-19.5h-3.5c-0.203 0-0.375-0.109-0.453-0.297s-0.047-0.391 0.078-0.547l5.469-6c0.094-0.094 0.219-0.156 0.359-0.156v0c0.141 0 0.281 0.063 0.375 0.156l5.547 6c0.125 0.156 0.156 0.359 0.078 0.547z"></path>
</symbol>
<symbol id="icon-archive" viewBox="0 0 28 28">
<title>archive</title>
<path d="M17 13c0-0.547-0.453-1-1-1h-4c-0.547 0-1 0.453-1 1s0.453 1 1 1h4c0.547 0 1-0.453 1-1zM26 10v15c0 0.547-0.453 1-1 1h-22c-0.547 0-1-0.453-1-1v-15c0-0.547 0.453-1 1-1h22c0.547 0 1 0.453 1 1zM27 3v4c0 0.547-0.453 1-1 1h-24c-0.547 0-1-0.453-1-1v-4c0-0.547 0.453-1 1-1h24c0.547 0 1 0.453 1 1z"></path>
</symbol>
<symbol id="icon-mobile" viewBox="0 0 12 28">
<title>mobile</title>
<path d="M7.25 22c0-0.688-0.562-1.25-1.25-1.25s-1.25 0.562-1.25 1.25 0.562 1.25 1.25 1.25 1.25-0.562 1.25-1.25zM10.5 19.5v-11c0-0.266-0.234-0.5-0.5-0.5h-8c-0.266 0-0.5 0.234-0.5 0.5v11c0 0.266 0.234 0.5 0.5 0.5h8c0.266 0 0.5-0.234 0.5-0.5zM7.5 6.25c0-0.141-0.109-0.25-0.25-0.25h-2.5c-0.141 0-0.25 0.109-0.25 0.25s0.109 0.25 0.25 0.25h2.5c0.141 0 0.25-0.109 0.25-0.25zM12 6v16c0 1.094-0.906 2-2 2h-8c-1.094 0-2-0.906-2-2v-16c0-1.094 0.906-2 2-2h8c1.094 0 2 0.906 2 2z"></path>
</symbol>
<symbol id="icon-recycle" viewBox="0 0 28 28">
<title>recycle</title>
<path d="M13.062 18.266l-0.234 5.75-0.031 0.344-6.563-0.453c-0.812-0.063-1.484-0.828-1.781-1.516-0.625-1.453 0.187-3.172 0.656-4.562 0 0 1.203 0.187 7.953 0.438zM7.016 9.109l2.812 5.922-2.297-1.437c-3.516 4.016-3.844 7-3.844 7l-2.969-5.578c-0.609-0.906-0.063-1.891-0.063-1.891s0.547-0.984 1.781-2.938l-2.188-1.344zM26.25 17.187l-2.938 5.609c-0.406 1.016-1.531 1.109-1.531 1.109s-1.109 0.109-3.422 0.187l0.125 2.562-3.594-5.734 3.297-5.656 0.109 2.703c5.297 0.641 7.953-0.781 7.953-0.781zM13.984 2.75c0 0-0.734 0.969-4.141 6.797l-4.953-2.922-0.297-0.187 3.516-5.563c0.438-0.688 1.422-0.938 2.188-0.859 1.563 0.141 2.688 1.656 3.687 2.734zM24.219 7.547l3.313 5.672c0.422 0.703 0.172 1.687-0.234 2.344-0.844 1.313-2.719 1.625-4.125 2.016 0 0-0.531-1.109-4.141-6.813l4.891-3.047zM21.984 4.016l2.219-1.297-3.437 5.828-6.547-0.313 2.359-1.344c-1.875-4.984-4.359-6.703-4.359-6.703l6.328 0.016c1.094-0.094 1.687 0.844 1.687 0.844s0.609 0.953 1.75 2.969z"></path>
</symbol>
<symbol id="icon-magic" viewBox="0 0 26 28">
<title>magic</title>
<path d="M18.594 9.078l4.578-4.578-1.672-1.672-4.578 4.578zM25.578 4.5c0 0.266-0.094 0.516-0.281 0.703l-20.094 20.094c-0.187 0.187-0.438 0.281-0.703 0.281s-0.516-0.094-0.703-0.281l-3.094-3.094c-0.187-0.187-0.281-0.438-0.281-0.703s0.094-0.516 0.281-0.703l20.094-20.094c0.187-0.187 0.438-0.281 0.703-0.281s0.516 0.094 0.703 0.281l3.094 3.094c0.187 0.187 0.281 0.438 0.281 0.703zM4.469 1.531l1.531 0.469-1.531 0.469-0.469 1.531-0.469-1.531-1.531-0.469 1.531-0.469 0.469-1.531zM9.938 4.062l3.063 0.938-3.063 0.938-0.938 3.063-0.938-3.063-3.063-0.938 3.063-0.938 0.938-3.063zM24.469 11.531l1.531 0.469-1.531 0.469-0.469 1.531-0.469-1.531-1.531-0.469 1.531-0.469 0.469-1.531zM14.469 1.531l1.531 0.469-1.531 0.469-0.469 1.531-0.469-1.531-1.531-0.469 1.531-0.469 0.469-1.531z"></path>
</symbol>
<symbol id="icon-cloud-upload" viewBox="0 0 30 28">
<title>cloud-upload</title>
<path d="M20 13.5c0-0.125-0.047-0.266-0.141-0.359l-5.5-5.5c-0.094-0.094-0.219-0.141-0.359-0.141-0.125 0-0.266 0.047-0.359 0.141l-5.484 5.484c-0.094 0.109-0.156 0.234-0.156 0.375 0 0.281 0.219 0.5 0.5 0.5h3.5v5.5c0 0.266 0.234 0.5 0.5 0.5h3c0.266 0 0.5-0.234 0.5-0.5v-5.5h3.5c0.281 0 0.5-0.234 0.5-0.5zM30 18c0 3.313-2.688 6-6 6h-17c-3.859 0-7-3.141-7-7 0-2.719 1.578-5.187 4.031-6.328-0.016-0.234-0.031-0.453-0.031-0.672 0-4.422 3.578-8 8-8 3.25 0 6.172 1.969 7.406 4.969 0.719-0.625 1.641-0.969 2.594-0.969 2.203 0 4 1.797 4 4 0 0.766-0.219 1.516-0.641 2.156 2.719 0.641 4.641 3.063 4.641 5.844z"></path>
</symbol>
<symbol id="icon-bars" viewBox="0 0 24 28">
<title>bars</title>
<path d="M24 21v2c0 0.547-0.453 1-1 1h-22c-0.547 0-1-0.453-1-1v-2c0-0.547 0.453-1 1-1h22c0.547 0 1 0.453 1 1zM24 13v2c0 0.547-0.453 1-1 1h-22c-0.547 0-1-0.453-1-1v-2c0-0.547 0.453-1 1-1h22c0.547 0 1 0.453 1 1zM24 5v2c0 0.547-0.453 1-1 1h-22c-0.547 0-1-0.453-1-1v-2c0-0.547 0.453-1 1-1h22c0.547 0 1 0.453 1 1z"></path>
</symbol>
<symbol id="icon-rocket" viewBox="0 0 26 28">
<title>rocket</title>
<path d="M22.5 7c0-0.828-0.672-1.5-1.5-1.5s-1.5 0.672-1.5 1.5 0.672 1.5 1.5 1.5 1.5-0.672 1.5-1.5zM26 2.5c0 5.187-1.437 8.641-5.141 12.359-0.906 0.891-1.937 1.813-3.047 2.75l-0.313 5.922c-0.016 0.156-0.109 0.313-0.25 0.406l-6 3.5c-0.078 0.047-0.156 0.063-0.25 0.063-0.125 0-0.25-0.047-0.359-0.141l-1-1c-0.125-0.141-0.172-0.328-0.125-0.5l1.328-4.312-4.391-4.391-4.312 1.328c-0.047 0.016-0.094 0.016-0.141 0.016-0.125 0-0.266-0.047-0.359-0.141l-1-1c-0.156-0.172-0.187-0.422-0.078-0.609l3.5-6c0.094-0.141 0.25-0.234 0.406-0.25l5.922-0.313c0.938-1.109 1.859-2.141 2.75-3.047 3.906-3.891 6.891-5.141 12.328-5.141 0.281 0 0.531 0.219 0.531 0.5z"></path>
</symbol>
</defs>
</svg>
