<svg width="37" height="34" viewBox="0 0 37 34" fill="none" xmlns="http://www.w3.org/2000/svg">
<path d="M35 3.67426V30.6855C35 31.614 34.1825 32.3597 33.1807 32.3597H24.7686V20.6063H29.0556L29.6966 16.0242H24.7612V13.096C24.7612 11.7675 25.159 10.8661 27.2289 10.8661H29.8659V6.76511C29.4092 6.71091 27.8476 6.58219 26.0208 6.58219C22.2199 6.58219 19.6123 8.71729 19.6123 12.6419V16.0242H15.3105V20.6063H19.6123V32.3665H3.81946C2.81762 32.3665 2 31.6141 2 30.6922V3.67426C2 2.75237 2.81762 2 3.81946 2H33.1733C34.1825 2 35 2.75237 35 3.67426Z" stroke="black" stroke-width="3" stroke-miterlimit="10" stroke-linecap="round" stroke-linejoin="round"/>
</svg>
