<svg width="98" height="102" viewBox="0 0 98 102" fill="none" xmlns="http://www.w3.org/2000/svg">
<path fill-rule="evenodd" clip-rule="evenodd" d="M3 59.0776L3.49893 37.6232C3.95901 35.1926 5.93847 34.0769 7.9861 34.1338C10.059 34.1915 12.0573 35.4472 12.5067 37.6545L16.4959 67.0755C16.3016 67.6418 16.293 68.2883 16.4098 68.9601C16.5583 69.8142 16.9175 70.7594 17.4322 71.7408C19.4822 75.6489 24.185 80.473 29.2763 83.0189L29.7236 82.1245C24.8149 79.6699 20.2678 74.9938 18.3178 71.2762C17.8326 70.3512 17.5199 69.5072 17.395 68.7888C17.2694 68.0663 17.3413 67.5201 17.5592 67.1387C17.7675 66.7741 18.1553 66.4799 18.8481 66.3471C19.5409 66.2143 20.5113 66.2509 21.8141 66.54L30.2397 71.4953L39.5 77.3439V99.0684H21V95.5714V95.3094L20.7846 95.1603C19.1397 94.0216 17.1839 92.8865 15.195 91.74L14.9196 91.5812L14.9194 91.5811C13.0123 90.482 11.0825 89.3699 9.33822 88.2169C7.50753 87.0067 5.90968 85.7696 4.77323 84.4826C3.63693 83.1958 3 81.9029 3 80.5713V59.0776ZM21 100.068V100.071H20V95.8347C18.4399 94.7725 16.6026 93.7057 14.6956 92.6063L14.4116 92.4426C12.512 91.3479 10.5576 90.2217 8.78678 89.0511C6.92997 87.8237 5.24657 86.5295 4.02364 85.1445C2.80057 83.7594 2 82.2397 2 80.5713V59.0718V59.0602L2.00014 59.0602L2.50014 37.5598L2.50105 37.5206L2.50806 37.482C3.0614 34.4386 5.57209 33.0663 8.0139 33.1342C10.4364 33.2016 12.9337 34.6904 13.4903 37.4734L13.4934 37.4887L13.4955 37.5042L17.3467 65.9075C17.702 65.6454 18.1431 65.464 18.6598 65.365C19.5552 65.1934 20.7015 65.2617 22.1108 65.5817L22.1865 65.599L22.2535 65.6383L30.7535 70.6374L30.7603 70.6414L30.767 70.6456L40.267 76.6456L40.5 76.7928V77.0684V99.5684V100.068H40H21Z" fill="#D1D1D1"/>
<path d="M3.49893 37.6232L2.0251 37.3442L2.0022 37.4652L1.99934 37.5883L3.49893 37.6232ZM3 59.0776L1.50041 59.0428L1.5 59.0602V59.0776H3ZM7.9861 34.1338L8.0278 32.6344L7.9861 34.1338ZM12.5067 37.6545L13.9931 37.453L13.9864 37.4039L13.9765 37.3553L12.5067 37.6545ZM16.4959 67.0755L17.9147 67.5623L18.0301 67.2261L17.9823 66.8739L16.4959 67.0755ZM16.4098 68.9601L14.9319 69.2171L16.4098 68.9601ZM17.4322 71.7408L18.7606 71.044L17.4322 71.7408ZM29.2763 83.0189L28.6055 84.3605L29.9471 85.0314L30.618 83.6898L29.2763 83.0189ZM29.7236 82.1245L31.0652 82.7953L31.7361 81.4537L30.3945 80.7829L29.7236 82.1245ZM18.3178 71.2762L16.9895 71.973H16.9895L18.3178 71.2762ZM17.395 68.7888L15.9172 69.0458L17.395 68.7888ZM17.5592 67.1387L16.2567 66.3946L17.5592 67.1387ZM18.8481 66.3471L19.1304 67.8203L19.1305 67.8203L18.8481 66.3471ZM21.8141 66.54L22.5745 65.2471L22.3703 65.127L22.139 65.0756L21.8141 66.54ZM30.2397 71.4953L31.0407 70.2271L31.0206 70.2144L31.0001 70.2024L30.2397 71.4953ZM39.5 77.3439H41V76.5172L40.301 76.0757L39.5 77.3439ZM39.5 99.0684V100.568H41V99.0684H39.5ZM21 99.0684H19.5V100.568H21V99.0684ZM21 95.3094H22.5V94.5235L21.8538 94.0761L21 95.3094ZM20.7846 95.1603L21.6384 93.927L21.6383 93.927L20.7846 95.1603ZM15.195 91.74L15.9442 90.4404L15.944 90.4404L15.195 91.74ZM14.9196 91.5812L15.6687 90.2816L15.6576 90.2753L15.6464 90.2691L14.9196 91.5812ZM14.9194 91.5811L14.1705 92.8808L14.1815 92.8871L14.1927 92.8933L14.9194 91.5811ZM9.33822 88.2169L8.51105 89.4682H8.51105L9.33822 88.2169ZM4.77323 84.4826L3.64884 85.4755H3.64885L4.77323 84.4826ZM21 100.068V98.5684H19.5V100.068H21ZM21 100.071V101.571H22.5V100.071H21ZM20 100.071H18.5V101.571H20V100.071ZM20 95.8347H21.5V95.0413L20.8442 94.5948L20 95.8347ZM14.6956 92.6063L15.4447 91.3068L15.4446 91.3067L14.6956 92.6063ZM14.4116 92.4426L15.1606 91.143L15.1605 91.143L14.4116 92.4426ZM8.78678 89.0511L7.95961 90.3024H7.95961L8.78678 89.0511ZM4.02364 85.1445L5.14803 84.1517H5.14803L4.02364 85.1445ZM2 59.0602L2.02117 57.5604L0.5 57.5389V59.0602H2ZM2.00014 59.0602L1.97897 60.5601L3.46517 60.581L3.49973 59.0951L2.00014 59.0602ZM2.50014 37.5598L1.00054 37.5249V37.5249L2.50014 37.5598ZM2.50105 37.5206L1.02524 37.2523L1.00419 37.3681L1.00145 37.4857L2.50105 37.5206ZM2.50806 37.482L3.98387 37.7503L3.98387 37.7503L2.50806 37.482ZM8.0139 33.1342L7.9722 34.6336L8.0139 33.1342ZM13.4903 37.4734L12.0194 37.7676L12.0194 37.7676L13.4903 37.4734ZM13.4934 37.4887L14.9798 37.2872L14.9734 37.2406L14.9642 37.1945L13.4934 37.4887ZM13.4955 37.5042L12.0091 37.7058L12.0091 37.7058L13.4955 37.5042ZM17.3467 65.9075L15.8603 66.1091L16.2004 68.6174L18.2373 67.1146L17.3467 65.9075ZM18.6598 65.365L18.3775 63.8918L18.3774 63.8918L18.6598 65.365ZM22.1108 65.5817L22.443 64.119H22.443L22.1108 65.5817ZM22.1865 65.599L22.947 64.306L22.746 64.1878L22.5188 64.1362L22.1865 65.599ZM22.2535 65.6383L23.0139 64.3454L23.0139 64.3454L22.2535 65.6383ZM30.7535 70.6374L29.993 71.9303L29.9934 71.9306L30.7535 70.6374ZM30.7603 70.6414L31.5616 69.3733L31.5411 69.3604L31.5203 69.3482L30.7603 70.6414ZM30.767 70.6456L29.9657 71.9137L29.966 71.9138L30.767 70.6456ZM40.267 76.6456L41.068 75.3774V75.3774L40.267 76.6456ZM40.5 76.7928H42V75.966L41.301 75.5245L40.5 76.7928ZM40.5 100.068V101.568H42V100.068H40.5ZM1.99934 37.5883L1.50041 59.0428L4.49959 59.1125L4.99853 37.658L1.99934 37.5883ZM8.0278 32.6344C5.40449 32.5615 2.65007 34.0426 2.0251 37.3442L4.97276 37.9021C5.26796 36.3426 6.47244 35.5923 7.94441 35.6332L8.0278 32.6344ZM13.9765 37.3553C13.3556 34.3051 10.621 32.7065 8.0278 32.6344L7.94441 35.6332C9.49697 35.6764 10.7591 36.5893 11.0368 37.9538L13.9765 37.3553ZM17.9823 66.8739L13.9931 37.453L11.0203 37.8561L15.0095 67.277L17.9823 66.8739ZM17.8876 68.7031C17.7981 68.1885 17.8281 67.8147 17.9147 67.5623L15.0771 66.5887C14.7751 67.4689 14.7878 68.3881 14.9319 69.2171L17.8876 68.7031ZM18.7606 71.044C18.2901 70.147 18.0007 69.3537 17.8876 68.7031L14.9319 69.2171C15.1158 70.2746 15.5449 71.3719 16.1039 72.4375L18.7606 71.044ZM29.9472 81.6773C25.1299 79.2684 20.6606 74.6663 18.7606 71.044L16.1039 72.4375C18.3038 76.6314 23.2402 81.6777 28.6055 84.3605L29.9472 81.6773ZM28.382 81.4536L27.9347 82.348L30.618 83.6898L31.0652 82.7953L28.382 81.4536ZM16.9895 71.973C19.0894 75.9764 23.8701 80.8746 29.0527 83.4661L30.3945 80.7829C25.7598 78.4653 21.4463 74.0112 19.6462 70.5795L16.9895 71.973ZM15.9172 69.0458C16.0775 69.9677 16.46 70.9636 16.9895 71.973L19.6462 70.5795C19.2051 69.7387 18.9623 69.0467 18.8728 68.5318L15.9172 69.0458ZM16.2567 66.3946C15.8022 67.1902 15.7581 68.131 15.9172 69.0458L18.8728 68.5318C18.7806 68.0017 18.8804 67.85 18.8616 67.8828L16.2567 66.3946ZM18.5657 64.8739C17.5468 65.0692 16.7299 65.5664 16.2567 66.3946L18.8616 67.8828C18.8567 67.8913 18.8496 67.9013 18.8413 67.9101C18.833 67.9188 18.8298 67.9199 18.8373 67.915C18.8527 67.905 18.9325 67.8582 19.1304 67.8203L18.5657 64.8739ZM22.139 65.0756C20.733 64.7636 19.5379 64.6876 18.5657 64.8739L19.1305 67.8203C19.5439 67.741 20.2896 67.7382 21.4891 68.0044L22.139 65.0756ZM31.0001 70.2024L22.5745 65.2471L21.0536 67.833L29.4793 72.7883L31.0001 70.2024ZM40.301 76.0757L31.0407 70.2271L29.4387 72.7636L38.699 78.6122L40.301 76.0757ZM41 99.0684V77.3439H38V99.0684H41ZM21 100.568H39.5V97.5684H21V100.568ZM19.5 95.5714V99.0684H22.5V95.5714H19.5ZM19.5 95.3094V95.5714H22.5V95.3094H19.5ZM19.9308 96.3936L20.1462 96.5428L21.8538 94.0761L21.6384 93.927L19.9308 96.3936ZM14.4459 93.0395C16.4447 94.1918 18.3457 95.2963 19.9308 96.3937L21.6383 93.927C19.9337 92.7469 17.923 91.5812 15.9442 90.4404L14.4459 93.0395ZM14.1706 92.8808L14.446 93.0396L15.944 90.4404L15.6687 90.2816L14.1706 92.8808ZM14.1927 92.8933L14.1929 92.8934L15.6464 90.2691L15.6462 90.269L14.1927 92.8933ZM8.51105 89.4682C10.3006 90.6512 12.2717 91.7865 14.1705 92.8808L15.6684 90.2815C13.7528 89.1776 11.8643 88.0887 10.1654 86.9656L8.51105 89.4682ZM3.64885 85.4755C4.91504 86.9094 6.64125 88.2322 8.51105 89.4682L10.1654 86.9656C8.37381 85.7813 6.90432 84.6298 5.89762 83.4898L3.64885 85.4755ZM1.5 80.5713C1.5 82.4078 2.38208 84.0409 3.64884 85.4755L5.89762 83.4898C4.89179 82.3507 4.5 81.398 4.5 80.5713H1.5ZM1.5 59.0776V80.5713H4.5V59.0776H1.5ZM19.5 100.068V100.071H22.5V100.068H19.5ZM21 98.5714H20V101.571H21V98.5714ZM21.5 100.071V95.8347H18.5V100.071H21.5ZM20.8442 94.5948C19.2298 93.4956 17.3432 92.4012 15.4447 91.3068L13.9465 93.9059C15.8621 95.0102 17.65 96.0493 19.1558 97.0746L20.8442 94.5948ZM15.4446 91.3067L15.1606 91.143L13.6625 93.7422L13.9466 93.9059L15.4446 91.3067ZM15.1605 91.143C13.2527 90.0436 11.3395 88.9405 9.61395 87.7998L7.95961 90.3024C9.77565 91.5029 11.7712 92.6523 13.6626 93.7423L15.1605 91.143ZM9.61395 87.7998C7.79636 86.5983 6.24126 85.3897 5.14803 84.1517L2.89925 86.1374C4.25188 87.6692 6.06358 89.0491 7.95961 90.3024L9.61395 87.7998ZM5.14803 84.1517C4.05486 82.9137 3.5 81.7342 3.5 80.5713H0.5C0.5 82.7452 1.54627 84.6051 2.89925 86.1374L5.14803 84.1517ZM3.5 80.5713V59.0718H0.5V80.5713H3.5ZM3.5 59.0718V59.0602H0.5V59.0718H3.5ZM1.97883 60.5601L1.97897 60.5601L2.0213 57.5604L2.02117 57.5604L1.97883 60.5601ZM3.49973 59.0951L3.99973 37.5947L1.00054 37.5249L0.500541 59.0253L3.49973 59.0951ZM3.99973 37.5947L4.00064 37.5555L1.00145 37.4857L1.00054 37.5249L3.99973 37.5947ZM3.97685 37.7889L3.98387 37.7503L1.03226 37.2137L1.02524 37.2523L3.97685 37.7889ZM3.98387 37.7503C4.37663 35.5901 6.10215 34.5816 7.9722 34.6336L8.05559 31.6348C5.04204 31.551 1.74618 33.287 1.03226 37.2137L3.98387 37.7503ZM7.9722 34.6336C9.88062 34.6867 11.6332 35.8368 12.0194 37.7676L14.9612 37.1792C14.2341 33.5441 10.9921 31.7164 8.05559 31.6348L7.9722 34.6336ZM12.0194 37.7676L12.0225 37.783L14.9642 37.1945L14.9611 37.1791L12.0194 37.7676ZM12.007 37.6903L12.0091 37.7058L14.9819 37.3027L14.9798 37.2872L12.007 37.6903ZM12.0091 37.7058L15.8603 66.1091L18.8331 65.706L14.9819 37.3027L12.0091 37.7058ZM18.2373 67.1146C18.379 67.01 18.601 66.9036 18.9422 66.8382L18.3774 63.8918C17.6852 64.0245 17.0249 64.2808 16.4561 64.7005L18.2373 67.1146ZM18.9422 66.8382C19.5537 66.721 20.4721 66.7478 21.7786 67.0445L22.443 64.119C20.931 63.7756 19.5568 63.6658 18.3775 63.8918L18.9422 66.8382ZM21.7785 67.0445L21.8543 67.0617L22.5188 64.1362L22.443 64.119L21.7785 67.0445ZM21.4261 66.8919L21.4931 66.9313L23.0139 64.3454L22.947 64.306L21.4261 66.8919ZM21.4931 66.9313L29.993 71.9303L31.5139 69.3444L23.0139 64.3454L21.4931 66.9313ZM29.9934 71.9306L30.0003 71.9346L31.5203 69.3482L31.5135 69.3442L29.9934 71.9306ZM29.959 71.9094L29.9657 71.9137L31.5683 69.3776L31.5616 69.3733L29.959 71.9094ZM29.966 71.9138L39.466 77.9138L41.068 75.3774L31.568 69.3774L29.966 71.9138ZM39.466 77.9138L39.699 78.061L41.301 75.5245L41.068 75.3774L39.466 77.9138ZM39 76.7928V77.0684H42V76.7928H39ZM39 77.0684V99.5684H42V77.0684H39ZM39 99.5684V100.068H42V99.5684H39ZM40.5 98.5684H40V101.568H40.5V98.5684ZM40 98.5684H21V101.568H40V98.5684Z" fill="#727272"/>
<path fill-rule="evenodd" clip-rule="evenodd" d="M95.5 59.0777L95.0011 37.6232C94.541 35.1926 92.5615 34.0769 90.5139 34.1338C88.441 34.1915 86.4427 35.4472 85.9933 37.6546L82.0041 67.0755C82.1984 67.6418 82.207 68.2883 82.0902 68.9601C81.9417 69.8142 81.5825 70.7594 81.0677 71.7407C79.0178 75.6488 74.3149 80.473 69.2236 83.0189L68.7764 82.1245C73.6851 79.6699 78.2322 74.9938 80.1822 71.2762C80.6674 70.3511 80.9801 69.5072 81.105 68.7888C81.2306 68.0663 81.1587 67.5201 80.9408 67.1387C80.7325 66.7741 80.3447 66.4799 79.6519 66.3471C78.959 66.2143 77.9887 66.2509 76.6859 66.54L68.2603 71.4953L59 77.3439V99.0683H77.5V95.5715V95.3095L77.7154 95.1603C79.3603 94.0217 81.3161 92.8865 83.305 91.74L83.5803 91.5813L83.5805 91.5812C85.4877 90.4821 87.4175 89.37 89.1618 88.2169C90.9925 87.0068 92.5903 85.7696 93.7268 84.4826C94.8631 83.1958 95.5 81.9029 95.5 80.5713V59.0777ZM77.5 100.068V100.071H78.5V95.8347C80.0601 94.7725 81.8974 93.7057 83.8044 92.6063L84.0885 92.4426C85.9881 91.3479 87.9424 90.2217 89.7132 89.0511C91.57 87.8237 93.2534 86.5295 94.4764 85.1445C95.6994 83.7594 96.5 82.2397 96.5 80.5713V59.0719V59.0602L96.4999 59.0602L95.9999 37.5598L95.999 37.5206L95.9919 37.482C95.4386 34.4386 92.9279 33.0663 90.4861 33.1342C88.0636 33.2016 85.5663 34.6904 85.0097 37.4734L85.0066 37.4887L85.0045 37.5043L81.1533 65.9075C80.798 65.6454 80.3569 65.464 79.8402 65.365C78.9447 65.1933 77.7984 65.2617 76.3892 65.5817L76.3134 65.5989L76.2465 65.6383L67.7465 70.6374L67.7397 70.6414L67.733 70.6456L58.233 76.6456L58 76.7928V77.0683V99.5683V100.068H58.5H77.5Z" fill="#D1D1D1"/>
<path d="M95.0011 37.6232L96.4749 37.3442L96.4978 37.4652L96.5007 37.5883L95.0011 37.6232ZM95.5 59.0777L96.9996 59.0428L97 59.0602V59.0777H95.5ZM90.5139 34.1338L90.5556 35.6333L90.5139 34.1338ZM85.9933 37.6546L84.5069 37.453L84.5136 37.4039L84.5234 37.3553L85.9933 37.6546ZM82.0041 67.0755L80.5853 67.5622L80.4699 67.2261L80.5177 66.8739L82.0041 67.0755ZM82.0902 68.9601L83.568 69.2171L82.0902 68.9601ZM81.0677 71.7407L79.7394 71.044H79.7394L81.0677 71.7407ZM69.2236 83.0189L69.8945 84.3605L68.5529 85.0314L67.882 83.6897L69.2236 83.0189ZM68.7764 82.1245L67.4348 82.7953L66.7639 81.4537L68.1055 80.7828L68.7764 82.1245ZM80.1822 71.2762L78.8538 70.5795L80.1822 71.2762ZM81.105 68.7888L82.5828 69.0457L81.105 68.7888ZM80.9408 67.1387L82.2432 66.3946L80.9408 67.1387ZM79.6519 66.3471L79.3695 67.8203L79.3695 67.8203L79.6519 66.3471ZM76.6859 66.54L75.9255 65.247L76.1297 65.127L76.361 65.0756L76.6859 66.54ZM68.2603 71.4953L67.4593 70.2271L67.4794 70.2144L67.4999 70.2023L68.2603 71.4953ZM59 77.3439H57.5V76.5172L58.199 76.0757L59 77.3439ZM59 99.0683V100.568H57.5V99.0683H59ZM77.5 99.0683H79V100.568H77.5V99.0683ZM77.5 95.3095H76V94.5235L76.6462 94.0761L77.5 95.3095ZM77.7154 95.1603L76.8616 93.927L76.8616 93.927L77.7154 95.1603ZM83.305 91.74L82.5558 90.4405L82.5559 90.4404L83.305 91.74ZM83.5803 91.5813L82.8313 90.2817L82.8434 90.2747L82.8557 90.2679L83.5803 91.5813ZM83.5805 91.5812L84.3295 92.8808L84.3173 92.8878L84.3051 92.8946L83.5805 91.5812ZM89.1618 88.2169L89.9889 89.4682H89.9889L89.1618 88.2169ZM93.7268 84.4826L94.8512 85.4755L94.8512 85.4755L93.7268 84.4826ZM77.5 100.068V98.5683H79V100.068H77.5ZM77.5 100.071V101.571H76V100.071H77.5ZM78.5 100.071H80V101.571H78.5V100.071ZM78.5 95.8347H77V95.0413L77.6558 94.5948L78.5 95.8347ZM83.8044 92.6063L83.0553 91.3068L83.0554 91.3067L83.8044 92.6063ZM84.0885 92.4426L83.3395 91.143L83.3395 91.143L84.0885 92.4426ZM89.7132 89.0511L90.5404 90.3025H90.5404L89.7132 89.0511ZM94.4764 85.1445L93.352 84.1517L93.352 84.1517L94.4764 85.1445ZM96.5 59.0602L96.4788 57.5604L98 57.5389V59.0602H96.5ZM96.4999 59.0602L96.521 60.5601L95.0348 60.5811L95.0003 59.0951L96.4999 59.0602ZM95.9999 37.5598L97.4995 37.5249L97.4995 37.5249L95.9999 37.5598ZM95.999 37.5206L97.4748 37.2523L97.4958 37.3681L97.4985 37.4857L95.999 37.5206ZM95.9919 37.482L97.4677 37.2137L97.4677 37.2137L95.9919 37.482ZM90.4861 33.1342L90.5278 34.6337L90.4861 33.1342ZM85.0097 37.4734L86.4806 37.7676L86.4806 37.7676L85.0097 37.4734ZM85.0066 37.4887L83.5202 37.2872L83.5265 37.2406L83.5358 37.1945L85.0066 37.4887ZM85.0045 37.5043L86.4909 37.7058L86.4909 37.7058L85.0045 37.5043ZM81.1533 65.9075L82.6397 66.1091L82.2996 68.6174L80.2627 67.1145L81.1533 65.9075ZM79.8402 65.365L80.1225 63.8918H80.1225L79.8402 65.365ZM76.3892 65.5817L76.057 64.119L76.057 64.119L76.3892 65.5817ZM76.3134 65.5989L75.553 64.306L75.7539 64.1878L75.9812 64.1362L76.3134 65.5989ZM76.2465 65.6383L75.4861 64.3454L75.4861 64.3454L76.2465 65.6383ZM67.7465 70.6374L68.5069 71.9303L68.5065 71.9305L67.7465 70.6374ZM67.7397 70.6414L66.9384 69.3733L66.9588 69.3604L66.9797 69.3482L67.7397 70.6414ZM67.733 70.6456L68.5343 71.9136L68.534 71.9138L67.733 70.6456ZM58.233 76.6456L57.432 75.3774L57.432 75.3774L58.233 76.6456ZM58 76.7928H56.5V75.966L57.199 75.5245L58 76.7928ZM58 100.068V101.568H56.5V100.068H58ZM96.5007 37.5883L96.9996 59.0428L94.0004 59.1125L93.5015 37.6581L96.5007 37.5883ZM90.4722 32.6344C93.0955 32.5615 95.8499 34.0426 96.4749 37.3442L93.5272 37.9022C93.232 36.3427 92.0276 35.5923 90.5556 35.6333L90.4722 32.6344ZM84.5234 37.3553C85.1444 34.3051 87.879 32.7065 90.4722 32.6344L90.5556 35.6333C89.003 35.6764 87.7409 36.5893 87.4632 37.9538L84.5234 37.3553ZM80.5177 66.8739L84.5069 37.453L87.4797 37.8561L83.4905 67.277L80.5177 66.8739ZM80.6124 68.7031C80.7019 68.1885 80.6719 67.8147 80.5853 67.5622L83.4229 66.5887C83.7249 67.4689 83.7122 68.3881 83.568 69.2171L80.6124 68.7031ZM79.7394 71.044C80.2099 70.147 80.4993 69.3537 80.6124 68.7031L83.568 69.2171C83.3841 70.2746 82.9551 71.3718 82.3961 72.4375L79.7394 71.044ZM68.5528 81.6773C73.3701 79.2684 77.8394 74.6663 79.7394 71.044L82.3961 72.4375C80.1962 76.6314 75.2598 81.6776 69.8945 84.3605L68.5528 81.6773ZM70.118 81.4536L70.5653 82.348L67.882 83.6897L67.4348 82.7953L70.118 81.4536ZM81.5105 71.973C79.4106 75.9764 74.6299 80.8746 69.4473 83.4661L68.1055 80.7828C72.7402 78.4653 77.0537 74.0112 78.8538 70.5795L81.5105 71.973ZM82.5828 69.0457C82.4225 69.9677 82.04 70.9636 81.5105 71.973L78.8538 70.5795C79.2948 69.7387 79.5376 69.0467 79.6272 68.5318L82.5828 69.0457ZM82.2432 66.3946C82.6978 67.1902 82.7419 68.131 82.5828 69.0457L79.6272 68.5318C79.7194 68.0017 79.6196 67.85 79.6383 67.8828L82.2432 66.3946ZM79.9343 64.8739C80.9532 65.0692 81.7701 65.5664 82.2432 66.3946L79.6383 67.8828C79.6432 67.8913 79.6504 67.9013 79.6587 67.9101C79.667 67.9188 79.6702 67.9199 79.6627 67.915C79.6472 67.905 79.5675 67.8582 79.3695 67.8203L79.9343 64.8739ZM76.361 65.0756C77.767 64.7636 78.962 64.6875 79.9343 64.8739L79.3695 67.8203C78.9561 67.741 78.2104 67.7382 77.0109 68.0044L76.361 65.0756ZM67.4999 70.2023L75.9255 65.247L77.4463 67.833L69.0207 72.7883L67.4999 70.2023ZM58.199 76.0757L67.4593 70.2271L69.0613 72.7635L59.801 78.6122L58.199 76.0757ZM57.5 99.0683V77.3439H60.5V99.0683H57.5ZM77.5 100.568H59V97.5683H77.5V100.568ZM79 95.5715V99.0683H76V95.5715H79ZM79 95.3095V95.5715H76V95.3095H79ZM78.5692 96.3937L78.3538 96.5428L76.6462 94.0761L76.8616 93.927L78.5692 96.3937ZM84.0541 93.0395C82.0553 94.1918 80.1543 95.2963 78.5692 96.3937L76.8616 93.927C78.5663 92.747 80.577 91.5812 82.5558 90.4405L84.0541 93.0395ZM84.3293 92.8809L84.054 93.0396L82.5559 90.4404L82.8313 90.2817L84.3293 92.8809ZM84.3051 92.8946L84.3049 92.8947L82.8557 90.2679L82.8559 90.2678L84.3051 92.8946ZM89.9889 89.4682C88.1994 90.6512 86.2282 91.7866 84.3295 92.8808L82.8315 90.2816C84.7471 89.1776 86.6356 88.0887 88.3346 86.9656L89.9889 89.4682ZM94.8512 85.4755C93.585 86.9094 91.8587 88.2322 89.9889 89.4682L88.3346 86.9656C90.1262 85.7813 91.5957 84.6298 92.6024 83.4898L94.8512 85.4755ZM97 80.5713C97 82.4078 96.1179 84.0409 94.8512 85.4755L92.6024 83.4898C93.6082 82.3507 94 81.398 94 80.5713H97ZM97 59.0777V80.5713H94V59.0777H97ZM79 100.068V100.071H76V100.068H79ZM77.5 98.5714H78.5V101.571H77.5V98.5714ZM77 100.071V95.8347H80V100.071H77ZM77.6558 94.5948C79.2701 93.4956 81.1568 92.4012 83.0553 91.3068L84.5535 93.9059C82.6379 95.0102 80.85 96.0494 79.3442 97.0746L77.6558 94.5948ZM83.0554 91.3067L83.3395 91.143L84.8375 93.7422L84.5534 93.906L83.0554 91.3067ZM83.3395 91.143C85.2473 90.0436 87.1605 88.9405 88.886 87.7998L90.5404 90.3025C88.7244 91.5029 86.7288 92.6523 84.8374 93.7423L83.3395 91.143ZM88.886 87.7998C90.7036 86.5983 92.2587 85.3897 93.352 84.1517L95.6007 86.1374C94.2481 87.6692 92.4364 89.0491 90.5404 90.3025L88.886 87.7998ZM93.352 84.1517C94.4451 82.9137 95 81.7342 95 80.5713H98C98 82.7452 96.9537 84.6051 95.6007 86.1374L93.352 84.1517ZM95 80.5713V59.0719H98V80.5713H95ZM95 59.0719V59.0602H98V59.0719H95ZM96.5212 60.5601L96.521 60.5601L96.4787 57.5604L96.4788 57.5604L96.5212 60.5601ZM95.0003 59.0951L94.5003 37.5947L97.4995 37.5249L97.9995 59.0254L95.0003 59.0951ZM94.5003 37.5947L94.4994 37.5555L97.4985 37.4857L97.4995 37.5249L94.5003 37.5947ZM94.5231 37.7889L94.5161 37.7503L97.4677 37.2137L97.4748 37.2523L94.5231 37.7889ZM94.5161 37.7503C94.1234 35.5901 92.3978 34.5817 90.5278 34.6337L90.4444 31.6348C93.458 31.551 96.7538 33.287 97.4677 37.2137L94.5161 37.7503ZM90.5278 34.6337C88.6194 34.6867 86.8668 35.8368 86.4806 37.7676L83.5388 37.1792C84.2659 33.5441 87.5079 31.7165 90.4444 31.6348L90.5278 34.6337ZM86.4806 37.7676L86.4775 37.783L83.5358 37.1945L83.5388 37.1792L86.4806 37.7676ZM86.493 37.6903L86.4909 37.7058L83.5181 37.3027L83.5202 37.2872L86.493 37.6903ZM86.4909 37.7058L82.6397 66.1091L79.6669 65.706L83.5181 37.3027L86.4909 37.7058ZM80.2627 67.1145C80.121 67.01 79.899 66.9036 79.5578 66.8382L80.1225 63.8918C80.8148 64.0245 81.475 64.2808 82.0439 64.7005L80.2627 67.1145ZM79.5578 66.8382C78.9463 66.7209 78.0279 66.7478 76.7214 67.0445L76.057 64.119C77.569 63.7756 78.9432 63.6657 80.1225 63.8918L79.5578 66.8382ZM76.7214 67.0445L76.6457 67.0617L75.9812 64.1362L76.057 64.119L76.7214 67.0445ZM77.0739 66.8919L77.0069 66.9313L75.4861 64.3454L75.553 64.306L77.0739 66.8919ZM77.0069 66.9313L68.5069 71.9303L66.9861 69.3444L75.4861 64.3454L77.0069 66.9313ZM68.5065 71.9305L68.4997 71.9346L66.9797 69.3482L66.9865 69.3442L68.5065 71.9305ZM68.541 71.9094L68.5343 71.9136L66.9317 69.3776L66.9384 69.3733L68.541 71.9094ZM68.534 71.9138L59.034 77.9138L57.432 75.3774L66.932 69.3774L68.534 71.9138ZM59.034 77.9138L58.801 78.061L57.199 75.5245L57.432 75.3774L59.034 77.9138ZM59.5 76.7928V77.0683H56.5V76.7928H59.5ZM59.5 77.0683V99.5683H56.5V77.0683H59.5ZM59.5 99.5683V100.068H56.5V99.5683H59.5ZM58 98.5683H58.5V101.568H58V98.5683ZM58.5 98.5683H77.5V101.568H58.5V98.5683Z" fill="#727272"/>
<path d="M49.8792 19.1982C32.085 21.3985 35.4845 39.4084 43.6468 44.3246C43.4167 50.878 48.7562 53.6091 51.579 53.0642C57.2449 51.9704 57.2449 46.5082 57.2449 44.3246C72.3126 30.6676 58.7145 18.1057 49.8792 19.1982Z" fill="#C4C4C4" stroke="#727272" stroke-width="3"/>
<path d="M47 53.1318C47 58.6496 53.4167 60.8567 54 53.1318H47Z" fill="#BEBEBE" stroke="#727272" stroke-width="3"/>
<line x1="21.5" y1="26.6318" x2="28.5" y2="26.6318" stroke="#727272" stroke-width="3" stroke-linecap="round" stroke-linejoin="round"/>
<line x1="73.5" y1="26.6318" x2="80.5" y2="26.6318" stroke="#727272" stroke-width="3" stroke-linecap="round" stroke-linejoin="round"/>
<line x1="32.1213" y1="9.1179" x2="37.1034" y2="14.035" stroke="#727272" stroke-width="3" stroke-linecap="round" stroke-linejoin="round"/>
<line x1="71.1763" y1="9.25266" x2="66.1208" y2="14.0943" stroke="#727272" stroke-width="3" stroke-linecap="round" stroke-linejoin="round"/>
<line x1="49.5" y1="8.5" x2="49.5" y2="1.5" stroke="#727272" stroke-width="3" stroke-linecap="round" stroke-linejoin="round"/>
</svg>
