<svg width="82" height="81" viewBox="0 0 82 81" fill="none" xmlns="http://www.w3.org/2000/svg">
<rect x="18.9629" y="1.5" width="61.537" height="59.1212" rx="4.5" fill="#B9BEBD" stroke="#727272" stroke-width="3"/>
<rect x="1.5" y="44.6201" width="35.7222" height="34.2727" rx="4.5" fill="#B7B7B7" fill-opacity="0.64" stroke="#727272" stroke-width="3"/>
<mask id="path-3-outside-1" maskUnits="userSpaceOnUse" x="29.0896" y="0.208798" width="53.2026" height="49.8817" fill="black">
<rect fill="white" x="29.0896" y="0.208798" width="53.2026" height="49.8817"/>
<path d="M53.9695 14.2169L69.3429 13.0384L66.2191 27.5397C64.3939 31.9418 60.1254 29.8101 61.3551 22.0111L42.7384 38.3558C40.311 39.5911 38.3756 37.7068 39.9869 35.4521L58.6036 19.1074C47.7127 20.2702 50.4159 14.8173 53.9695 14.2169Z"/>
</mask>
<path d="M53.9695 14.2169L69.3429 13.0384L66.2191 27.5397C64.3939 31.9418 60.1254 29.8101 61.3551 22.0111L42.7384 38.3558C40.311 39.5911 38.3756 37.7068 39.9869 35.4521L58.6036 19.1074C47.7127 20.2702 50.4159 14.8173 53.9695 14.2169Z" fill="#F4F4F4"/>
<path d="M69.3429 13.0384L72.3355 13.6456L73.1655 9.79244L69.0898 10.1049L69.3429 13.0384ZM53.9695 14.2169L53.7164 11.2835L53.573 11.2945L53.4312 11.3184L53.9695 14.2169ZM58.6036 19.1074L60.6671 21.285L67.6173 15.183L58.2563 16.1825L58.6036 19.1074ZM39.9869 35.4521L37.9234 33.2745L37.6653 33.5011L37.4672 33.7782L39.9869 35.4521ZM42.7384 38.3558L44.1737 40.9586L44.5159 40.7845L44.8018 40.5335L42.7384 38.3558ZM61.3551 22.0111L64.3767 22.4627L65.675 14.2292L59.2916 19.8335L61.3551 22.0111ZM66.2191 27.5397L69.058 28.639L69.1573 28.3995L69.2117 28.147L66.2191 27.5397ZM69.0898 10.1049L53.7164 11.2835L54.2227 17.1504L69.596 15.9718L69.0898 10.1049ZM53.4312 11.3184C51.875 11.5813 50.4702 12.35 49.4678 13.3429C48.5284 14.2735 47.4978 15.8833 47.8619 17.8342C48.267 20.0038 50.0984 21.2057 51.9074 21.734C53.702 22.2582 56.0489 22.3421 58.9509 22.0322L58.2563 16.1825C55.7129 16.4541 54.3136 16.2925 53.663 16.1025C53.0268 15.9167 53.7141 15.9358 53.8778 16.8125C54.0006 17.4705 53.6314 17.6771 53.8579 17.4528C54.0215 17.2907 54.2873 17.1527 54.5079 17.1154L53.4312 11.3184ZM56.5401 16.9297L37.9234 33.2745L42.0503 37.6298L60.6671 21.285L56.5401 16.9297ZM37.4672 33.7782C36.1362 35.6407 35.7384 38.2972 37.6275 40.2271C39.4443 42.0831 42.1569 41.985 44.1737 40.9586L41.303 35.7531C41.1209 35.8457 41.1191 35.7938 41.29 35.8069C41.4681 35.8205 41.7859 35.9093 42.0687 36.1983C42.3596 36.4955 42.4552 36.8446 42.4515 37.0841C42.4482 37.3026 42.3713 37.3152 42.5065 37.126L37.4672 33.7782ZM44.8018 40.5335L63.4186 24.1887L59.2916 19.8335L40.6749 36.1782L44.8018 40.5335ZM58.3335 21.5595C57.9862 23.7622 58.0016 25.7132 58.3432 27.3532C58.6736 28.9391 59.3703 30.5029 60.6386 31.5668C62.0645 32.7628 64.0355 33.128 65.856 32.279C67.4415 31.5397 68.4527 30.099 69.058 28.639L63.3802 26.4404C63.0729 27.1815 62.8661 27.125 63.1763 26.9804C63.3663 26.8918 63.6633 26.8217 64.0082 26.8728C64.3436 26.9225 64.5569 27.0614 64.6444 27.1348C64.7712 27.2411 64.5173 27.0849 64.3361 26.2151C64.1662 25.3996 64.1092 24.1595 64.3767 22.4627L58.3335 21.5595ZM69.2117 28.147L72.3355 13.6456L66.3503 12.4311L63.2265 26.9324L69.2117 28.147Z" fill="#727272" mask="url(#path-3-outside-1)"/>
</svg>
