<svg width="128" height="113" viewBox="0 0 128 113" fill="none" xmlns="http://www.w3.org/2000/svg">
<path fill-rule="evenodd" clip-rule="evenodd" d="M95.8479 0.0930121C96.1161 0.19609 96.3527 0.334503 96.5417 0.457141C96.8146 0.634213 97.0972 0.851582 97.378 1.08142C97.7947 1.42252 98.2834 1.8549 98.8142 2.32462L98.8143 2.32471C98.9882 2.47856 99.1666 2.63641 99.3485 2.79637C100.856 4.12258 102.798 5.7689 105.24 7.31938C110.1 10.4055 116.96 13.1246 126.231 11.9758L127.973 11.76L127.915 13.514C127.495 26.1978 127.553 36.2666 127.601 44.4508V44.4515V44.4524C127.613 46.5129 127.624 48.4539 127.627 50.2871C127.641 59.3419 127.453 65.9097 126.021 71.1301C124.554 76.4783 121.8 80.3633 116.903 84.1453C112.192 87.7842 105.434 91.3736 95.8854 96.1565L95.7297 96.4723C95.6497 96.4329 95.5699 96.3936 95.4903 96.3543C95.4143 96.3923 95.3383 96.4303 95.262 96.4685L95.1116 96.1676C85.1107 91.2344 77.9696 87.5745 72.9293 83.9191C67.7113 80.1348 64.649 76.2891 62.9171 70.9726C61.2233 65.773 60.8353 59.2485 60.695 50.2283C60.6546 47.6341 60.635 44.8249 60.6136 41.7652C60.5601 34.1058 60.4957 24.8768 60.0672 13.521L60.0017 11.7855L61.7282 11.9732C72.4258 13.136 80.0695 10.5233 85.401 7.50545C88.0795 5.98935 90.1926 4.36041 91.8438 3.01366C92.1611 2.75486 92.472 2.49751 92.7694 2.25142C93.2234 1.87563 93.6457 1.5261 94.0105 1.23775C94.4849 0.862749 94.9987 0.477349 95.5012 0.216845L95.5555 0C95.6402 0.021178 95.7226 0.0469462 95.8024 0.0760096C95.8135 0.0714294 95.8246 0.0669254 95.8357 0.0624988L95.8479 0.0930121ZM95.7847 3.65967C95.4632 3.91583 95.118 4.20169 94.7275 4.5251L94.7274 4.52516C94.4282 4.77301 94.1023 5.04292 93.74 5.33843C92.0323 6.73127 89.7696 8.47991 86.8788 10.1162C81.3686 13.2352 73.6421 15.908 63.1273 15.1145C63.502 25.7459 63.5632 34.5076 63.6141 41.7923C63.6353 44.8373 63.6548 47.6242 63.6946 50.1816C63.8357 59.2503 64.2359 65.3354 65.7696 70.0434C67.2652 74.6345 69.8698 77.9943 74.6906 81.4905C79.3344 84.8584 85.9437 88.2895 95.4798 93.0036C104.561 88.4404 110.771 85.091 115.07 81.771C119.526 78.3288 121.857 74.9707 123.128 70.3363C124.435 65.574 124.641 59.4196 124.627 50.2917C124.624 48.4733 124.613 46.5426 124.601 44.489C124.556 36.6725 124.5 27.0768 124.862 15.1294C115.617 15.8576 108.628 13.0249 103.631 9.85195C100.99 8.17496 98.9103 6.40617 97.3673 5.04908C97.1615 4.8681 96.9683 4.69723 96.7864 4.53626L96.7863 4.5362L96.7861 4.536C96.4083 4.20178 96.0788 3.91027 95.7847 3.65967Z" fill="#727272"/>
<path d="M27.4177 84.1491C27.4177 71.2042 37.5948 60.5466 50.526 59.9498L60.4833 59.4902L70.3854 59.9472C83.3474 60.5455 93.5488 71.2286 93.5488 84.2044C93.5488 88.1349 90.7252 91.4974 86.8538 92.1768L66.5456 95.7413C63.2168 96.3256 59.8133 96.3432 56.4787 95.7934L34.1791 92.1166C30.279 91.4735 27.4177 88.1018 27.4177 84.1491Z" fill="#727272"/>
<ellipse cx="60.4833" cy="41.6868" rx="14.7523" ry="15.261" fill="#727272"/>
<path d="M36.1347 71.2184L36.0655 71.2152L35.9964 71.2184L26.0399 71.6779C12.3076 72.3117 1.5 83.6297 1.5 97.3766C1.5 102.064 4.89289 106.062 9.51752 106.824L31.8168 110.501C35.3182 111.079 38.892 111.06 42.3873 110.447L62.6952 106.882C67.2841 106.077 70.6311 102.091 70.6311 97.4319C70.6311 83.654 59.7991 72.3106 46.0359 71.6754L36.1347 71.2184Z" fill="#727272" stroke="white" stroke-width="3"/>
<path d="M36.0655 71.6744C45.089 71.6744 52.3179 64.1219 52.3179 54.9134C52.3179 45.7048 45.089 38.1523 36.0655 38.1523C27.0421 38.1523 19.8132 45.7048 19.8132 54.9134C19.8132 64.1219 27.0421 71.6744 36.0655 71.6744Z" fill="#727272" stroke="white" stroke-width="3"/>
</svg>
