<svg width="155" height="101" viewBox="0 0 155 101" fill="none" xmlns="http://www.w3.org/2000/svg">
<path fill-rule="evenodd" clip-rule="evenodd" d="M1 39H1.5H41.2144H41.4014L41.5425 39.1227L55.7686 51.495L55.9405 51.6445V51.8723V99.393V99.893H55.4405H1.5H1V99.393V39.5V39ZM2 40V98.893H54.9405V52.1001L41.0274 40H2Z" fill="white"/>
<path d="M1 39V38H0V39H1ZM41.4014 39L42.0576 38.2454L41.7754 38H41.4014V39ZM41.5425 39.1227L42.1987 38.3682V38.3682L41.5425 39.1227ZM55.7686 51.495L56.4248 50.7404L56.4248 50.7404L55.7686 51.495ZM55.9405 51.6445H56.9405V51.1889L56.5967 50.8899L55.9405 51.6445ZM55.9405 99.893V100.893H56.9405V99.893H55.9405ZM1 99.893H0V100.893H1V99.893ZM2 98.893H1V99.893H2V98.893ZM2 40V39H1V40H2ZM54.9405 98.893V99.893H55.9405V98.893H54.9405ZM54.9405 52.1001H55.9405V51.6445L55.5967 51.3455L54.9405 52.1001ZM41.0274 40L41.6836 39.2454L41.4014 39H41.0274V40ZM1.5 38H1V40H1.5V38ZM41.2144 38H1.5V40H41.2144V38ZM41.4014 38H41.2144V40H41.4014V38ZM42.1987 38.3682L42.0576 38.2454L40.7452 39.7546L40.8863 39.8773L42.1987 38.3682ZM56.4248 50.7404L42.1987 38.3682L40.8863 39.8773L55.1123 52.2495L56.4248 50.7404ZM56.5967 50.8899L56.4248 50.7404L55.1123 52.2495L55.2842 52.399L56.5967 50.8899ZM56.9405 51.8723V51.6445H54.9405V51.8723H56.9405ZM56.9405 99.393V51.8723H54.9405V99.393H56.9405ZM56.9405 99.893V99.393H54.9405V99.893H56.9405ZM55.4405 100.893H55.9405V98.893H55.4405V100.893ZM1.5 100.893H55.4405V98.893H1.5V100.893ZM1 100.893H1.5V98.893H1V100.893ZM0 99.393V99.893H2V99.393H0ZM0 39.5V99.393H2V39.5H0ZM0 39V39.5H2V39H0ZM3 98.893V40H1V98.893H3ZM54.9405 97.893H2V99.893H54.9405V97.893ZM53.9405 52.1001V98.893H55.9405V52.1001H53.9405ZM40.3712 40.7546L54.2842 52.8546L55.5967 51.3455L41.6836 39.2454L40.3712 40.7546ZM2 41H41.0274V39H2V41Z" fill="#727272"/>
<path d="M12.54 67.2031H14.7549V76.1768C14.7549 77.4014 14.3711 78.374 13.6035 79.0947C12.8418 79.8154 11.834 80.1758 10.5801 80.1758C9.24414 80.1758 8.21289 79.8389 7.48633 79.165C6.75977 78.4912 6.39648 77.5537 6.39648 76.3525H8.61133C8.61133 77.0322 8.77832 77.5449 9.1123 77.8906C9.45215 78.2305 9.94141 78.4004 10.5801 78.4004C11.1777 78.4004 11.6523 78.2041 12.0039 77.8115C12.3613 77.4131 12.54 76.8652 12.54 76.168V67.2031ZM23.9922 76.7041C23.9922 76.1416 23.793 75.708 23.3945 75.4033C23.002 75.0986 22.29 74.791 21.2588 74.4805C20.2275 74.1699 19.4072 73.8242 18.7979 73.4434C17.6318 72.7109 17.0488 71.7559 17.0488 70.5781C17.0488 69.5469 17.4678 68.6973 18.3057 68.0293C19.1494 67.3613 20.2422 67.0273 21.584 67.0273C22.4746 67.0273 23.2686 67.1914 23.9658 67.5195C24.6631 67.8477 25.2109 68.3164 25.6094 68.9258C26.0078 69.5293 26.207 70.2002 26.207 70.9385H23.9922C23.9922 70.2705 23.7812 69.749 23.3594 69.374C22.9434 68.9932 22.3457 68.8027 21.5664 68.8027C20.8398 68.8027 20.2744 68.958 19.8701 69.2686C19.4717 69.5791 19.2725 70.0127 19.2725 70.5693C19.2725 71.0381 19.4893 71.4307 19.9229 71.7471C20.3564 72.0576 21.0713 72.3623 22.0674 72.6611C23.0635 72.9541 23.8633 73.291 24.4668 73.6719C25.0703 74.0469 25.5127 74.4805 25.7939 74.9727C26.0752 75.459 26.2158 76.0303 26.2158 76.6865C26.2158 77.7529 25.8057 78.6025 24.9854 79.2354C24.1709 79.8623 23.0635 80.1758 21.6631 80.1758C20.7373 80.1758 19.8848 80.0059 19.1055 79.666C18.332 79.3203 17.7285 78.8457 17.2949 78.2422C16.8672 77.6387 16.6533 76.9355 16.6533 76.1328H18.877C18.877 76.8594 19.1172 77.4219 19.5977 77.8203C20.0781 78.2188 20.7666 78.418 21.6631 78.418C22.4365 78.418 23.0166 78.2627 23.4033 77.9521C23.7959 77.6357 23.9922 77.2197 23.9922 76.7041ZM38.3799 73.9355C38.3799 75.1895 38.1631 76.291 37.7295 77.2402C37.2959 78.1836 36.6748 78.9102 35.8662 79.4199C35.0635 79.9238 34.1377 80.1758 33.0889 80.1758C32.0518 80.1758 31.126 79.9238 30.3115 79.4199C29.5029 78.9102 28.876 78.1865 28.4307 77.249C27.9912 76.3115 27.7686 75.2305 27.7627 74.0059V73.2852C27.7627 72.0371 27.9824 70.9355 28.4219 69.9805C28.8672 69.0254 29.4912 68.2959 30.2939 67.792C31.1025 67.2822 32.0283 67.0273 33.0713 67.0273C34.1143 67.0273 35.0371 67.2793 35.8398 67.7832C36.6484 68.2812 37.2725 69.002 37.7119 69.9453C38.1514 70.8828 38.374 71.9756 38.3799 73.2236V73.9355ZM36.1562 73.2676C36.1562 71.8496 35.8867 70.7627 35.3477 70.0068C34.8145 69.251 34.0557 68.873 33.0713 68.873C32.1104 68.873 31.3574 69.251 30.8125 70.0068C30.2734 70.7568 29.998 71.8203 29.9863 73.1973V73.9355C29.9863 75.3418 30.2588 76.4287 30.8037 77.1963C31.3545 77.9639 32.1162 78.3477 33.0889 78.3477C34.0732 78.3477 34.8291 77.9727 35.3564 77.2227C35.8896 76.4727 36.1562 75.377 36.1562 73.9355V73.2676ZM50.7461 80H48.5225L42.8184 70.9209V80H40.5947V67.2031H42.8184L48.54 76.3174V67.2031H50.7461V80Z" fill="#727272"/>
<ellipse cx="132" cy="60.5" rx="23" ry="5.5" fill="#727272"/>
<ellipse cx="83.5" cy="59" rx="23.5" ry="6" fill="#727272"/>
<path d="M153 66C135.174 72.8998 118.239 68.8749 112 66L117.793 95.4025C128.489 100.107 141.859 97.3626 147.207 95.4025L153 66Z" fill="white" stroke="#727272" stroke-width="3"/>
<rect x="121" y="76" width="8" height="8" fill="#727272"/>
<path d="M138 76L142.33 82.75H133.67L138 76Z" fill="#727272"/>
<circle cx="133" cy="90" r="4" fill="#727272"/>
<path d="M106 65C84.3226 72.1411 66.9677 67.9755 61 65V72.8106C78.8064 80.398 98.4194 75.972 106 72.8106V65Z" fill="white" stroke="#727272" stroke-width="2"/>
<path d="M106 78C84.3226 83.9509 66.9677 80.4796 61 78V84.5088C78.8064 90.8317 98.4194 87.1433 106 84.5088V78Z" fill="white" stroke="#727272" stroke-width="2"/>
<path d="M106 89C84.3226 95.546 66.9677 91.7275 61 89V96.1597C78.8064 103.115 98.4194 99.0577 106 96.1597V89Z" fill="white" stroke="#727272" stroke-width="2"/>
<path d="M107.5 26C107.5 39.5586 96.7275 50.5 83.5 50.5C70.2725 50.5 59.5 39.5586 59.5 26C59.5 12.4414 70.2725 1.5 83.5 1.5C96.7275 1.5 107.5 12.4414 107.5 26Z" fill="white" stroke="#727272" stroke-width="3"/>
<path d="M73.877 27.6865H69.9395V30.3525H74.5605V32H67.8887V22.0469H74.5469V23.708H69.9395V26.0801H73.877V27.6865ZM83.3926 23.708H80.3438V32H78.293V23.708H75.2852V22.0469H83.3926V23.708ZM86.6191 30.3525H90.9736V32H84.5684V22.0469H86.6191V30.3525Z" fill="#727272"/>
<path d="M96.1016 29.9844C96.1016 28.9453 96.2305 28.1172 96.4883 27.5C96.7461 26.8828 97.2539 26.207 98.0117 25.4727C98.7773 24.7305 99.2617 24.2031 99.4648 23.8906C99.7773 23.4141 99.9336 22.8984 99.9336 22.3438C99.9336 21.6094 99.75 21.0508 99.3828 20.668C99.0234 20.2773 98.4922 20.082 97.7891 20.082C97.1172 20.082 96.5742 20.2734 96.1602 20.6562C95.7539 21.0312 95.5508 21.543 95.5508 22.1914H92.7031C92.7188 20.8086 93.1875 19.7148 94.1094 18.9102C95.0391 18.1055 96.2656 17.7031 97.7891 17.7031C99.3594 17.7031 100.582 18.1016 101.457 18.8984C102.34 19.6953 102.781 20.8086 102.781 22.2383C102.781 23.5117 102.188 24.7656 101 26L99.5586 27.418C99.043 28.0039 98.7773 28.8594 98.7617 29.9844H96.1016ZM95.9023 33.6289C95.9023 33.168 96.0469 32.7969 96.3359 32.5156C96.625 32.2266 97.0156 32.082 97.5078 32.082C98.0078 32.082 98.4023 32.2305 98.6914 32.5273C98.9805 32.8164 99.125 33.1836 99.125 33.6289C99.125 34.0586 98.9844 34.418 98.7031 34.707C98.4219 34.9961 98.0234 35.1406 97.5078 35.1406C96.9922 35.1406 96.5938 34.9961 96.3125 34.707C96.0391 34.418 95.9023 34.0586 95.9023 33.6289Z" fill="#727272"/>
</svg>
