<svg width="137" height="92" viewBox="0 0 137 92" fill="none" xmlns="http://www.w3.org/2000/svg">
<rect x="1.5" y="1.5" width="134" height="88.3333" rx="5.5" stroke="#727272" stroke-width="3"/>
<rect x="97.0417" y="12.3672" width="28.5417" height="22.8333" fill="#727272"/>
<line x1="125.583" y1="44.3125" x2="72.3055" y2="44.3125" stroke="#727272" stroke-width="3"/>
<line x1="91.3333" y1="36.7012" x2="72.3055" y2="36.7012" stroke="#727272" stroke-width="3"/>
<line x1="91.3333" y1="29.0898" x2="72.3055" y2="29.0898" stroke="#727272" stroke-width="3"/>
<line x1="91.3333" y1="21.4785" x2="72.3055" y2="21.4785" stroke="#727272" stroke-width="3"/>
<line x1="91.3333" y1="13.8672" x2="72.3055" y2="13.8672" stroke="#727272" stroke-width="3"/>
<line x1="125.583" y1="51.9238" x2="72.3055" y2="51.9238" stroke="#727272" stroke-width="3"/>
<line x1="125.583" y1="59.5352" x2="72.3055" y2="59.5352" stroke="#727272" stroke-width="3"/>
<line x1="125.583" y1="67.1465" x2="72.3055" y2="67.1465" stroke="#727272" stroke-width="3"/>
<line x1="125.583" y1="75.709" x2="72.3055" y2="75.709" stroke="#727272" stroke-width="3"/>
<line x1="16.8193" y1="32.3477" x2="16.8193" y2="77.0629" stroke="#727272" stroke-width="7"/>
<line x1="28.2361" y1="42.8125" x2="28.2361" y2="77.0625" stroke="#727272" stroke-width="7"/>
<line x1="40.6042" y1="54.2285" x2="40.6042" y2="77.0619" stroke="#727272" stroke-width="7"/>
<line x1="52.9722" y1="58.0352" x2="52.9722" y2="77.0629" stroke="#727272" stroke-width="7"/>
<path d="M58.2955 48.0946C59.1113 47.9506 59.6559 47.1725 59.512 46.3567L57.1659 33.0621C57.0219 32.2463 56.2438 31.7017 55.428 31.8456C54.6122 31.9896 54.0676 32.7677 54.2115 33.5835L56.297 45.4009L44.4795 47.4863C43.6637 47.6303 43.1191 48.4084 43.263 49.2242C43.407 50.04 44.1851 50.5846 45.0009 50.4407L58.2955 48.0946ZM19.1191 21.2074L57.1746 47.8463L58.895 45.3886L20.8394 18.7497L19.1191 21.2074Z" fill="#727272"/>
</svg>
