<svg width="109" height="109" viewBox="0 0 109 109" fill="none" xmlns="http://www.w3.org/2000/svg">
<mask id="path-1-inside-1" fill="white">
<path d="M83.0304 83.2783C77.7592 88.5495 71.1406 92.2704 63.8977 94.0344C56.6549 95.7984 49.0665 95.5376 41.9618 93.2806C34.8571 91.0236 28.5095 86.8572 23.6126 81.2366C18.7157 75.616 15.4579 68.7576 14.1952 61.4107C12.9325 54.0639 13.7135 46.5113 16.4529 39.5783C19.1923 32.6453 23.7846 26.5987 29.7281 22.0991C35.6715 17.5995 42.7374 14.8202 50.1536 14.0648C57.5698 13.3094 65.0509 14.607 71.7795 17.8158L63.888 34.3637C60.1927 32.6015 56.0842 31.8889 52.0114 32.3038C47.9385 32.7186 44.058 34.245 40.794 36.7161C37.53 39.1871 35.0079 42.5079 33.5035 46.3154C31.9991 50.1228 31.5702 54.2706 32.2636 58.3054C32.9571 62.3401 34.7462 66.1067 37.4355 69.1934C40.1248 72.2801 43.6108 74.5683 47.5126 75.8078C51.4144 77.0473 55.5818 77.1905 59.5594 76.2217C63.5371 75.253 67.1719 73.2095 70.0668 70.3147L83.0304 83.2783Z"/>
</mask>
<path d="M83.0304 83.2783C77.7592 88.5495 71.1406 92.2704 63.8977 94.0344C56.6549 95.7984 49.0665 95.5376 41.9618 93.2806C34.8571 91.0236 28.5095 86.8572 23.6126 81.2366C18.7157 75.616 15.4579 68.7576 14.1952 61.4107C12.9325 54.0639 13.7135 46.5113 16.4529 39.5783C19.1923 32.6453 23.7846 26.5987 29.7281 22.0991C35.6715 17.5995 42.7374 14.8202 50.1536 14.0648C57.5698 13.3094 65.0509 14.607 71.7795 17.8158L63.888 34.3637C60.1927 32.6015 56.0842 31.8889 52.0114 32.3038C47.9385 32.7186 44.058 34.245 40.794 36.7161C37.53 39.1871 35.0079 42.5079 33.5035 46.3154C31.9991 50.1228 31.5702 54.2706 32.2636 58.3054C32.9571 62.3401 34.7462 66.1067 37.4355 69.1934C40.1248 72.2801 43.6108 74.5683 47.5126 75.8078C51.4144 77.0473 55.5818 77.1905 59.5594 76.2217C63.5371 75.253 67.1719 73.2095 70.0668 70.3147L83.0304 83.2783Z" fill="#9A9A9A" stroke="#727272" stroke-width="6" mask="url(#path-1-inside-1)"/>
<mask id="path-2-inside-2" fill="white">
<path d="M92.8519 40.9233C95.495 48.1359 96.0413 55.9498 94.4274 63.4601C92.8135 70.9704 89.1054 77.87 83.7325 83.3601L71.0427 70.9411C74.0697 67.8481 76.1588 63.9609 77.068 59.7297C77.9773 55.4985 77.6695 51.0963 76.1804 47.0327L92.8519 40.9233Z"/>
</mask>
<path d="M92.8519 40.9233C95.495 48.1359 96.0413 55.9498 94.4274 63.4601C92.8135 70.9704 89.1054 77.87 83.7325 83.3601L71.0427 70.9411C74.0697 67.8481 76.1588 63.9609 77.068 59.7297C77.9773 55.4985 77.6695 51.0963 76.1804 47.0327L92.8519 40.9233Z" fill="#C4C4C4" stroke="#727272" stroke-width="6" mask="url(#path-2-inside-2)"/>
<mask id="path-3-inside-3" fill="white">
<path d="M79.0514 15.6462C86.0187 19.5375 91.6871 25.3926 95.3505 32.4823L79.3155 40.768C77.278 36.8249 74.1255 33.5684 70.2505 31.4042L79.0514 15.6462Z"/>
</mask>
<path d="M79.0514 15.6462C86.0187 19.5375 91.6871 25.3926 95.3505 32.4823L79.3155 40.768C77.278 36.8249 74.1255 33.5684 70.2505 31.4042L79.0514 15.6462Z" fill="#E3E3E3" stroke="#727272" stroke-width="6" mask="url(#path-3-inside-3)"/>
</svg>
