<svg width="131" height="92" viewBox="0 0 131 92" fill="none" xmlns="http://www.w3.org/2000/svg">
<path d="M77.3108 16.0207C78.9844 10.9152 87.3523 8.36302 91.5363 16.0201C93.2098 20.279 92.373 26.2369 83.1683 27.0833V37.2969" stroke="#727272" stroke-width="4" stroke-linecap="round" stroke-linejoin="round"/>
<circle cx="82.9052" cy="44.1355" r="3.10811" fill="#727272"/>
<path d="M29.8108 82.6759C29.8108 84.5168 28.5593 86.4398 25.9874 87.9829C23.4453 89.5082 19.8366 90.5002 15.7703 90.5002C11.704 90.5002 8.0953 89.5082 5.5532 87.9829C2.98124 86.4398 1.72974 84.5168 1.72974 82.6759C1.72974 80.8349 2.98124 78.912 5.5532 77.3688C8.0953 75.8436 11.704 74.8516 15.7703 74.8516C19.8366 74.8516 23.4453 75.8436 25.9874 77.3688C28.5593 78.912 29.8108 80.8349 29.8108 82.6759Z" stroke="#727272" stroke-width="3"/>
<path d="M129.27 29.8378C129.27 37.3434 124.192 44.3947 115.433 49.6501C106.704 54.8876 94.5479 58.1757 81.0405 58.1757C67.5332 58.1757 55.3772 54.8876 46.648 49.6501C37.8891 44.3947 32.8108 37.3434 32.8108 29.8378C32.8108 22.3322 37.8891 15.2809 46.648 10.0255C55.3772 4.78807 67.5332 1.5 81.0405 1.5C94.5479 1.5 106.704 4.78807 115.433 10.0255C124.192 15.2809 129.27 22.3322 129.27 29.8378Z" stroke="#727272" stroke-width="3"/>
<path d="M77.0543 55.9445C77.0543 60.0116 74.2785 63.9553 69.2293 66.9633C64.2117 69.9525 57.1826 71.8499 49.338 71.8499C41.4935 71.8499 34.4644 69.9525 29.4468 66.9633C24.3976 63.9553 21.6218 60.0116 21.6218 55.9445C21.6218 51.8773 24.3976 47.9336 29.4468 44.9256C34.4644 41.9364 41.4935 40.0391 49.338 40.0391C57.1826 40.0391 64.2117 41.9364 69.2293 44.9256C74.2785 47.9336 77.0543 51.8773 77.0543 55.9445Z" fill="white" stroke="#727272" stroke-width="3"/>
</svg>
