<svg width="124" height="96" viewBox="0 0 124 96" fill="none" xmlns="http://www.w3.org/2000/svg">
<path d="M20.8008 74.0149V37.7553L53.356 50.5405V87.808L20.8008 74.0149Z" stroke="#727272" stroke-width="3"/>
<path d="M22.5802 35.6404L53.6795 22.9381L87.577 37.0127L72.5283 42.8008L53.7631 48.3608L22.5802 35.6404Z" stroke="#727272" stroke-width="3"/>
<path d="M89.5 75.3453V39.0727L55.5 50.2612V87.8501L89.5 75.3453Z" stroke="#727272" stroke-width="3"/>
<path d="M54.2995 8.43945L54.9542 7.68352L54.2995 7.11658L53.6449 7.68352L54.2995 8.43945ZM64.2182 17.0293V18.0293H66.9005L64.8729 16.2734L64.2182 17.0293ZM44.3809 17.0293L43.7262 16.2734L41.6986 18.0293H44.3809V17.0293ZM52.8678 17.0293H53.8678V16.0293H52.8678V17.0293ZM52.8678 39.9348H51.8678V40.9348H52.8678V39.9348ZM54.8678 39.9348V40.9348H55.8678V39.9348H54.8678ZM54.8678 17.0293V16.0293H53.8678V17.0293H54.8678ZM53.6449 9.19538L63.5636 17.7852L64.8729 16.2734L54.9542 7.68352L53.6449 9.19538ZM45.0355 17.7852L54.9542 9.19538L53.6449 7.68352L43.7262 16.2734L45.0355 17.7852ZM52.8678 16.0293H44.3809V18.0293H52.8678V16.0293ZM53.8678 39.9348V17.0293H51.8678V39.9348H53.8678ZM54.8678 38.9348H52.8678V40.9348H54.8678V38.9348ZM53.8678 17.0293V39.9348H55.8678V17.0293H53.8678ZM64.2182 16.0293H54.8678V18.0293H64.2182V16.0293Z" fill="#727272"/>
<path d="M6.23442 87.4916L5.23499 87.4575L5.20552 88.323L6.05795 88.4759L6.23442 87.4916ZM6.68103 74.378L7.4588 73.7494L5.7729 71.6633L5.68161 74.3439L6.68103 74.378ZM19.1497 89.807L18.9732 90.7913L21.6134 91.2646L19.9275 89.1784L19.1497 89.807ZM13.8138 83.2042L13.1853 82.4265L12.4075 83.055L13.0361 83.8328L13.8138 83.2042ZM31.6304 68.8061L32.259 69.5838L33.0367 68.9553L32.4082 68.1775L31.6304 68.8061ZM30.3733 67.2505L31.1511 66.622L30.5226 65.8442L29.7448 66.4727L30.3733 67.2505ZM12.5567 81.6487L11.779 82.2772L12.4075 83.055L13.1853 82.4265L12.5567 81.6487ZM7.23384 87.5256L7.68045 74.412L5.68161 74.3439L5.23499 87.4575L7.23384 87.5256ZM19.3262 88.8227L6.41088 86.5073L6.05795 88.4759L18.9732 90.7913L19.3262 88.8227ZM13.0361 83.8328L18.3719 90.4355L19.9275 89.1784L14.5916 82.5757L13.0361 83.8328ZM31.0019 68.0283L13.1853 82.4265L14.4424 83.982L32.259 69.5838L31.0019 68.0283ZM29.5956 67.8791L30.8527 69.4346L32.4082 68.1775L31.1511 66.622L29.5956 67.8791ZM13.1853 82.4265L31.0019 68.0283L29.7448 66.4727L11.9282 80.8709L13.1853 82.4265ZM5.90326 75.0065L11.779 82.2772L13.3345 81.0202L7.4588 73.7494L5.90326 75.0065Z" fill="#727272"/>
<path d="M97.3696 88.6777L97.4831 89.6712L98.3487 89.5723L98.3693 88.7013L97.3696 88.6777ZM84.2992 90.1704L83.561 89.4958L81.7599 91.4669L84.4127 91.1639L84.2992 90.1704ZM97.6806 75.526L98.6803 75.5496L98.7435 72.8804L96.9424 74.8514L97.6806 75.526ZM91.9549 81.7921L91.2803 82.5304L92.0186 83.2049L92.6931 82.4667L91.9549 81.7921ZM74.9429 66.2473L75.6175 65.5091L74.8792 64.8345L74.2047 65.5727L74.9429 66.2473ZM73.5938 67.7237L72.8556 67.0492L72.181 67.7874L72.9192 68.462L73.5938 67.7237ZM90.6058 83.2686L91.344 83.9431L92.0186 83.2049L91.2803 82.5304L90.6058 83.2686ZM97.2561 87.6841L84.1857 89.1768L84.4127 91.1639L97.4831 89.6712L97.2561 87.6841ZM96.6809 75.5023L96.3699 88.654L98.3693 88.7013L98.6803 75.5496L96.6809 75.5023ZM92.6931 82.4667L98.4189 76.2005L96.9424 74.8514L91.2167 81.1176L92.6931 82.4667ZM74.2683 66.9855L91.2803 82.5304L92.6294 81.0539L75.6175 65.5091L74.2683 66.9855ZM74.332 68.3983L75.6811 66.9218L74.2047 65.5727L72.8556 67.0492L74.332 68.3983ZM91.2803 82.5304L74.2683 66.9855L72.9192 68.462L89.9312 84.0068L91.2803 82.5304ZM85.0374 90.8449L91.344 83.9431L89.8676 82.594L83.561 89.4958L85.0374 90.8449Z" fill="#727272"/>
<path d="M122.096 37.3328C122.096 50.5449 111.126 61.314 97.522 61.314C83.9176 61.314 72.9482 50.5449 72.9482 37.3328C72.9482 24.1206 83.9176 13.3516 97.522 13.3516C111.126 13.3516 122.096 24.1206 122.096 37.3328Z" fill="white" stroke="#727272" stroke-width="3"/>
<line x1="80.029" y1="20.9086" x2="115.029" y2="53.9086" stroke="#727272" stroke-width="3"/>
</svg>
