<svg width="86" height="85" viewBox="0 0 86 85" fill="none" xmlns="http://www.w3.org/2000/svg">
<path d="M5.606 28.9284L27.6661 10.029C34.0693 28.004 44.0789 43.1418 48.2833 48.4639L27.863 60.4277C26.1375 47.0992 12.306 33.8747 5.606 28.9284Z" fill="#DEDEDE" stroke="#727272" stroke-width="3"/>
<path d="M9.88569 19.2888L35.1018 4.86719C38.0164 23.7247 45.0059 40.4726 48.1364 46.4894L25.8331 54.4067C26.6406 40.9912 15.538 25.405 9.88569 19.2888Z" fill="#DEDEDE" stroke="#727272" stroke-width="3"/>
<path d="M22.498 8.30821L57.4799 2C53.1215 24.9389 54.3258 47.1132 55.4728 55.333H26.5124C32.9353 40.1933 26.5124 17.6749 22.498 8.30821Z" fill="#DEDEDE" stroke="#727272" stroke-width="3"/>
<path d="M46.3105 32.896C47.0843 32.1487 47.5347 30.6669 47.4481 29.3145M38.1118 26.1564C37.1079 27.8225 36.7752 29.2693 36.8438 30.4359M36.8438 30.4359C36.9529 32.2897 38.0754 33.4361 39.128 33.6305C43.1417 33.7008 41.9543 26.9746 44.1274 26.5486C46.3748 26.108 47.3388 27.6083 47.4481 29.3145M36.8438 30.4359L34.0178 30.6732M47.4481 29.3145L49.821 28.9425" stroke="#727272" stroke-width="3" stroke-linecap="round" stroke-linejoin="round"/>
<path d="M64.2165 54.2624L84.0013 47.9542V82.6493L63.643 76.0889C57.282 83.5441 38.5914 83.0051 29.4686 83.0051C17.3942 81.912 23.6468 74.6559 28.232 74.1118C14.8988 74.5736 18.9279 65.6186 25.2661 65.0901C11.5468 64.0195 16.6772 56.5822 23.7821 55.9102C11.4255 54.9042 15.7014 47.1534 19.7723 47.094C56.7088 46.555 53.8414 45.4082 64.2165 54.2624Z" fill="#C4C4C4" stroke="#727272" stroke-width="3" stroke-linecap="round" stroke-linejoin="round"/>
</svg>
