<svg width="119" height="120" viewBox="0 0 119 120" fill="none" xmlns="http://www.w3.org/2000/svg">
<mask id="path-1-inside-1" fill="white">
<path d="M62.3535 83.3789C62.3535 82.2743 63.2489 81.3789 64.3535 81.3789H84.8139C85.9184 81.3789 86.8139 82.2743 86.8139 83.3789V120.001H62.3535V83.3789Z"/>
</mask>
<path d="M62.3535 83.3789C62.3535 82.2743 63.2489 81.3789 64.3535 81.3789H84.8139C85.9184 81.3789 86.8139 82.2743 86.8139 83.3789V120.001H62.3535V83.3789Z" stroke="#727272" stroke-width="6" mask="url(#path-1-inside-1)"/>
<mask id="path-2-inside-2" fill="white">
<path d="M30.1689 83.3789C30.1689 82.2743 31.0644 81.3789 32.1689 81.3789H52.6293C53.7339 81.3789 54.6293 82.2743 54.6293 83.3789V120.001H30.1689V83.3789Z"/>
</mask>
<path d="M30.1689 83.3789C30.1689 82.2743 31.0644 81.3789 32.1689 81.3789H52.6293C53.7339 81.3789 54.6293 82.2743 54.6293 83.3789V120.001H30.1689V83.3789Z" stroke="#727272" stroke-width="6" mask="url(#path-2-inside-2)"/>
<mask id="path-3-inside-3" fill="white">
<path d="M94.5381 83.3789C94.5381 82.2743 95.4335 81.3789 96.5381 81.3789H116.998C118.103 81.3789 118.998 82.2743 118.998 83.3789V120.001H94.5381V83.3789Z"/>
</mask>
<path d="M94.5381 83.3789C94.5381 82.2743 95.4335 81.3789 96.5381 81.3789H116.998C118.103 81.3789 118.998 82.2743 118.998 83.3789V120.001H94.5381V83.3789Z" stroke="#727272" stroke-width="6" mask="url(#path-3-inside-3)"/>
<line x1="52.0547" y1="94.4668" x2="32.7439" y2="94.4668" stroke="#727272" stroke-width="3"/>
<line x1="84.239" y1="94.4668" x2="64.9282" y2="94.4668" stroke="#727272" stroke-width="3"/>
<line x1="116.424" y1="94.4668" x2="97.113" y2="94.4668" stroke="#727272" stroke-width="3"/>
<circle cx="41.7554" cy="109.702" r="2.57477" fill="#727272"/>
<circle cx="73.94" cy="109.702" r="2.57477" fill="#727272"/>
<circle cx="74.5837" cy="73.0117" r="4.50586" fill="#727272"/>
<ellipse cx="105.481" cy="109.702" rx="3.21847" ry="2.57477" fill="#727272"/>
<path d="M41.7554 82.6666V73.1031H74.5837M107.412 82.6666V73.1031H74.5837M74.5837 73.1031V81.9309M74.5837 73.1031V62.0684" stroke="#727272" stroke-width="3"/>
<path d="M56.3996 29.8848V56.6785L52.0547 64.6442H98.4006L94.0557 56.6785V29.8848H56.3996Z" fill="#727272"/>
<rect x="61.0662" y="33.7461" width="28.3225" height="20.5982" fill="white"/>
<path d="M72.6526 59.4941H77.8022L79.0896 62.0689H71.3652L72.6526 59.4941Z" fill="white"/>
<path d="M22.4739 3.48293L41.2745 4.72916L49.5828 25.9878L38.4084 22.3615L53.2181 53.7261L41.1621 49.9565L58.1867 84.3958L18.6482 38.1526L35.3989 40.8755L10.4615 10.5794L29.857 13.7322L22.4739 3.48293Z" fill="white" stroke="#727272" stroke-width="3"/>
</svg>
