<svg width="109" height="100" viewBox="0 0 109 100" fill="none" xmlns="http://www.w3.org/2000/svg">
<line x1="1.5" y1="1.5" x2="1.5" y2="14.5" stroke="#727272" stroke-width="3" stroke-linecap="round" stroke-linejoin="round"/>
<line x1="1.5" y1="64.4336" x2="1.5" y2="77.4336" stroke="#727272" stroke-width="3" stroke-linecap="round" stroke-linejoin="round"/>
<line x1="1.5" y1="21.7676" x2="1.5" y2="34.7676" stroke="#727272" stroke-width="3" stroke-linecap="round" stroke-linejoin="round"/>
<line x1="1.5" y1="84.6992" x2="1.5" y2="97.6992" stroke="#727272" stroke-width="3" stroke-linecap="round" stroke-linejoin="round"/>
<line x1="1.5" y1="43.0996" x2="1.5" y2="56.0996" stroke="#727272" stroke-width="3" stroke-linecap="round" stroke-linejoin="round"/>
<line x1="50.5667" y1="1.5" x2="50.5667" y2="14.5" stroke="#727272" stroke-width="3" stroke-linecap="round" stroke-linejoin="round"/>
<line x1="50.5667" y1="64.4336" x2="50.5667" y2="77.4336" stroke="#727272" stroke-width="3" stroke-linecap="round" stroke-linejoin="round"/>
<line x1="46.3" y1="21.7676" x2="46.3" y2="34.7676" stroke="#727272" stroke-width="3" stroke-linecap="round" stroke-linejoin="round"/>
<line x1="46.3" y1="84.6992" x2="46.3" y2="97.6992" stroke="#727272" stroke-width="3" stroke-linecap="round" stroke-linejoin="round"/>
<line x1="48.4333" y1="43.0996" x2="48.4333" y2="56.0996" stroke="#727272" stroke-width="3" stroke-linecap="round" stroke-linejoin="round"/>
<line x1="42.0334" y1="43.0996" x2="42.0334" y2="56.0996" stroke="#727272" stroke-width="3" stroke-linecap="round" stroke-linejoin="round"/>
<line x1="27.1001" y1="1.5" x2="27.1001" y2="14.5" stroke="#727272" stroke-width="3" stroke-linecap="round" stroke-linejoin="round"/>
<line x1="27.1001" y1="64.4336" x2="27.1001" y2="77.4336" stroke="#727272" stroke-width="3" stroke-linecap="round" stroke-linejoin="round"/>
<line x1="10.0334" y1="21.7676" x2="10.0334" y2="34.7676" stroke="#727272" stroke-width="3" stroke-linecap="round" stroke-linejoin="round"/>
<line x1="10.0334" y1="84.6992" x2="10.0334" y2="97.6992" stroke="#727272" stroke-width="3" stroke-linecap="round" stroke-linejoin="round"/>
<line x1="36.7" y1="21.7676" x2="36.7" y2="34.7676" stroke="#727272" stroke-width="3" stroke-linecap="round" stroke-linejoin="round"/>
<line x1="36.7" y1="84.6992" x2="36.7" y2="97.6992" stroke="#727272" stroke-width="3" stroke-linecap="round" stroke-linejoin="round"/>
<line x1="21.7666" y1="43.0996" x2="21.7666" y2="56.0996" stroke="#727272" stroke-width="3" stroke-linecap="round" stroke-linejoin="round"/>
<line x1="69.7666" y1="43.0996" x2="69.7666" y2="56.0996" stroke="#727272" stroke-width="3" stroke-linecap="round" stroke-linejoin="round"/>
<line x1="78.3" y1="1.5" x2="78.3" y2="14.5" stroke="#727272" stroke-width="3" stroke-linecap="round" stroke-linejoin="round"/>
<line x1="78.3" y1="64.4336" x2="78.3" y2="77.4336" stroke="#727272" stroke-width="3" stroke-linecap="round" stroke-linejoin="round"/>
<line x1="78.3" y1="43.0996" x2="78.3" y2="56.0996" stroke="#727272" stroke-width="3" stroke-linecap="round" stroke-linejoin="round"/>
<line x1="78.3" y1="21.7676" x2="78.3" y2="34.7676" stroke="#727272" stroke-width="3" stroke-linecap="round" stroke-linejoin="round"/>
<line x1="78.3" y1="84.6992" x2="78.3" y2="97.6992" stroke="#727272" stroke-width="3" stroke-linecap="round" stroke-linejoin="round"/>
<line x1="69.7666" y1="21.7676" x2="69.7666" y2="34.7676" stroke="#727272" stroke-width="3" stroke-linecap="round" stroke-linejoin="round"/>
<line x1="69.7666" y1="84.6992" x2="69.7666" y2="97.6992" stroke="#727272" stroke-width="3" stroke-linecap="round" stroke-linejoin="round"/>
<rect x="10.0334" y="1.5" width="8.73334" height="13" rx="1.5" stroke="#727272" stroke-width="3"/>
<rect x="10.0334" y="64.4336" width="8.73334" height="13" rx="1.5" stroke="#727272" stroke-width="3"/>
<rect x="18.5667" y="21.7676" width="8.73334" height="13" rx="1.5" stroke="#727272" stroke-width="3"/>
<rect x="18.5667" y="84.6992" width="8.73334" height="13" rx="1.5" stroke="#727272" stroke-width="3"/>
<rect x="35.6333" y="1.5" width="8.73334" height="13" rx="1.5" stroke="#727272" stroke-width="3"/>
<rect x="35.6333" y="64.4336" width="8.73334" height="13" rx="1.5" stroke="#727272" stroke-width="3"/>
<rect x="53.7666" y="21.7676" width="8.73334" height="13" rx="1.5" stroke="#727272" stroke-width="3"/>
<rect x="53.7666" y="84.6992" width="8.73334" height="13" rx="1.5" stroke="#727272" stroke-width="3"/>
<rect x="62.3" y="1.5" width="8.73334" height="13" rx="1.5" stroke="#727272" stroke-width="3"/>
<rect x="62.3" y="64.4336" width="8.73334" height="13" rx="1.5" stroke="#727272" stroke-width="3"/>
<rect x="54.8335" y="43.0996" width="8.73334" height="13" rx="1.5" stroke="#727272" stroke-width="3"/>
<rect x="27.1001" y="43.0996" width="8.73334" height="13" rx="1.5" stroke="#727272" stroke-width="3"/>
<rect x="7.90015" y="43.0996" width="8.73334" height="13" rx="1.5" stroke="#727272" stroke-width="3"/>
<rect x="14.5" y="51.5" width="93" height="38" rx="6.5" fill="white" stroke="#727272" stroke-width="3"/>
<path d="M40.7803 71.2871H35.5244V75.2246H41.668V77H33.3008V64.2031H41.6064V65.9961H35.5244V69.5293H40.7803V71.2871ZM48.1807 72.0693H45.7021V77H43.4785V64.2031H47.9785C49.4551 64.2031 50.5947 64.5342 51.3975 65.1963C52.2002 65.8584 52.6016 66.8164 52.6016 68.0703C52.6016 68.9258 52.3936 69.6436 51.9775 70.2236C51.5674 70.7979 50.9932 71.2402 50.2549 71.5508L53.1289 76.8857V77H50.7471L48.1807 72.0693ZM45.7021 70.2852H47.9873C48.7373 70.2852 49.3232 70.0977 49.7451 69.7227C50.167 69.3418 50.3779 68.8232 50.3779 68.167C50.3779 67.4814 50.1816 66.9512 49.7891 66.5762C49.4023 66.2012 48.8223 66.0078 48.0488 65.9961H45.7021V70.2852ZM59.4131 72.0693H56.9346V77H54.7109V64.2031H59.2109C60.6875 64.2031 61.8271 64.5342 62.6299 65.1963C63.4326 65.8584 63.834 66.8164 63.834 68.0703C63.834 68.9258 63.626 69.6436 63.21 70.2236C62.7998 70.7979 62.2256 71.2402 61.4873 71.5508L64.3613 76.8857V77H61.9795L59.4131 72.0693ZM56.9346 70.2852H59.2197C59.9697 70.2852 60.5557 70.0977 60.9775 69.7227C61.3994 69.3418 61.6104 68.8232 61.6104 68.167C61.6104 67.4814 61.4141 66.9512 61.0215 66.5762C60.6348 66.2012 60.0547 66.0078 59.2812 65.9961H56.9346V70.2852ZM76.1562 70.9355C76.1562 72.1895 75.9395 73.291 75.5059 74.2402C75.0723 75.1836 74.4512 75.9102 73.6426 76.4199C72.8398 76.9238 71.9141 77.1758 70.8652 77.1758C69.8281 77.1758 68.9023 76.9238 68.0879 76.4199C67.2793 75.9102 66.6523 75.1865 66.207 74.249C65.7676 73.3115 65.5449 72.2305 65.5391 71.0059V70.2852C65.5391 69.0371 65.7588 67.9355 66.1982 66.9805C66.6436 66.0254 67.2676 65.2959 68.0703 64.792C68.8789 64.2822 69.8047 64.0273 70.8477 64.0273C71.8906 64.0273 72.8135 64.2793 73.6162 64.7832C74.4248 65.2812 75.0488 66.002 75.4883 66.9453C75.9277 67.8828 76.1504 68.9756 76.1562 70.2236V70.9355ZM73.9326 70.2676C73.9326 68.8496 73.6631 67.7627 73.124 67.0068C72.5908 66.251 71.832 65.873 70.8477 65.873C69.8867 65.873 69.1338 66.251 68.5889 67.0068C68.0498 67.7568 67.7744 68.8203 67.7627 70.1973V70.9355C67.7627 72.3418 68.0352 73.4287 68.5801 74.1963C69.1309 74.9639 69.8926 75.3477 70.8652 75.3477C71.8496 75.3477 72.6055 74.9727 73.1328 74.2227C73.666 73.4727 73.9326 72.377 73.9326 70.9355V70.2676ZM83.0732 72.0693H80.5947V77H78.3711V64.2031H82.8711C84.3477 64.2031 85.4873 64.5342 86.29 65.1963C87.0928 65.8584 87.4941 66.8164 87.4941 68.0703C87.4941 68.9258 87.2861 69.6436 86.8701 70.2236C86.46 70.7979 85.8857 71.2402 85.1475 71.5508L88.0215 76.8857V77H85.6396L83.0732 72.0693ZM80.5947 70.2852H82.8799C83.6299 70.2852 84.2158 70.0977 84.6377 69.7227C85.0596 69.3418 85.2705 68.8232 85.2705 68.167C85.2705 67.4814 85.0742 66.9512 84.6816 66.5762C84.2949 66.2012 83.7148 66.0078 82.9414 65.9961H80.5947V70.2852Z" fill="#727272"/>
</svg>
