<svg width="48" height="44" viewBox="0 0 48 44" fill="none" xmlns="http://www.w3.org/2000/svg">
<path fill-rule="evenodd" clip-rule="evenodd" d="M16.5905 8.41602C16.5905 12.5582 13.2326 15.916 9.09047 15.916C8.84434 15.916 8.60097 15.9042 8.36091 15.881C8.42269 17.711 8.85133 19.6404 9.64253 21.5776C11.1724 25.3237 13.9586 28.8555 17.5044 31.5437C21.0501 34.2319 25.1251 35.9017 29.003 36.2555C30.4363 36.3863 31.8083 36.3342 33.0881 36.108C32.7666 35.2724 32.5905 34.3648 32.5905 33.416C32.5905 29.2739 35.9483 25.916 40.0905 25.916C44.2326 25.916 47.5905 29.2739 47.5905 33.416C47.5905 35.8029 46.4755 37.9294 44.7379 39.303L44.8569 39.4174C41.4056 42.5482 36.4093 43.9837 30.7586 43.4681C25.1078 42.9525 19.1699 40.5193 14.0031 36.6022C8.83625 32.685 4.77635 27.5385 2.547 22.0799C0.374529 16.7606 0.0779419 11.4818 1.69912 7.13687C2.30618 3.60408 5.38441 0.916016 9.09047 0.916016C13.2326 0.916016 16.5905 4.27388 16.5905 8.41602Z" fill="black"/>
</svg>
