<svg width="151" height="106" viewBox="0 0 151 106" fill="none" xmlns="http://www.w3.org/2000/svg">
<rect x="1.5" y="1.5" width="52.1095" height="54.3139" rx="6.5" stroke="#727272" stroke-width="3"/>
<rect x="10.3176" y="29.0547" width="33.3723" height="26.7591" stroke="#727272" stroke-width="3"/>
<line x1="16.9307" y1="35.9746" x2="37.0766" y2="35.9746" stroke="#727272" stroke-width="3" stroke-linecap="round" stroke-linejoin="round"/>
<line x1="16.9307" y1="41.4863" x2="37.0766" y2="41.4863" stroke="#727272" stroke-width="3" stroke-linecap="round" stroke-linejoin="round"/>
<line x1="16.9307" y1="46.9961" x2="37.0766" y2="46.9961" stroke="#727272" stroke-width="3" stroke-linecap="round" stroke-linejoin="round"/>
<rect x="10.3176" y="1.5" width="20.146" height="12.4307" stroke="#727272" stroke-width="3"/>
<circle cx="41.3321" cy="9.36876" r="2.75547" fill="#727272"/>
<rect x="97.3906" y="1.5" width="52.1095" height="54.3139" rx="6.5" stroke="#727272" stroke-width="3"/>
<rect x="106.208" y="29.0547" width="33.3723" height="26.7591" stroke="#727272" stroke-width="3"/>
<line x1="112.821" y1="35.9746" x2="132.967" y2="35.9746" stroke="#727272" stroke-width="3" stroke-linecap="round" stroke-linejoin="round"/>
<line x1="112.821" y1="41.4863" x2="132.967" y2="41.4863" stroke="#727272" stroke-width="3" stroke-linecap="round" stroke-linejoin="round"/>
<line x1="112.821" y1="46.9961" x2="132.967" y2="46.9961" stroke="#727272" stroke-width="3" stroke-linecap="round" stroke-linejoin="round"/>
<rect x="106.208" y="1.5" width="20.146" height="12.4307" stroke="#727272" stroke-width="3"/>
<circle cx="137.223" cy="9.36876" r="2.75547" fill="#727272"/>
<circle cx="74.7169" cy="76.921" r="26.9249" fill="white" stroke="#727272" stroke-width="3"/>
<line x1="87.2236" y1="87.5156" x2="62.2097" y2="87.5156" stroke="#727272" stroke-width="3"/>
<line x1="70.1687" y1="71.5996" x2="62.2097" y2="71.5996" stroke="#727272" stroke-width="3"/>
<line x1="87.2236" y1="71.5996" x2="79.2647" y2="71.5996" stroke="#727272" stroke-width="3"/>
<mask id="path-19-inside-1" fill="white">
<path fill-rule="evenodd" clip-rule="evenodd" d="M95.9235 68.3846L91.8271 57.5918L88.6166 68.7113C88.4513 69.1488 88.3608 69.6231 88.3608 70.1184C88.3608 72.3167 90.1425 74.0988 92.3403 74.0988C94.5381 74.0988 96.3198 72.3167 96.3198 70.1184C96.3198 69.497 96.1774 68.9087 95.9235 68.3846Z"/>
</mask>
<path fill-rule="evenodd" clip-rule="evenodd" d="M95.9235 68.3846L91.8271 57.5918L88.6166 68.7113C88.4513 69.1488 88.3608 69.6231 88.3608 70.1184C88.3608 72.3167 90.1425 74.0988 92.3403 74.0988C94.5381 74.0988 96.3198 72.3167 96.3198 70.1184C96.3198 69.497 96.1774 68.9087 95.9235 68.3846Z" fill="white"/>
<path d="M91.8271 57.5918L92.7621 57.237L91.6981 54.4337L90.8664 57.3144L91.8271 57.5918ZM95.9235 68.3846L94.9885 68.7395L95.0043 68.7809L95.0236 68.8207L95.9235 68.3846ZM88.6166 68.7113L89.5521 69.0648L89.5663 69.0273L89.5774 68.9887L88.6166 68.7113ZM90.8922 57.9466L94.9885 68.7395L96.8584 68.0298L92.7621 57.237L90.8922 57.9466ZM89.5774 68.9887L92.7879 57.8692L90.8664 57.3144L87.6559 68.4339L89.5774 68.9887ZM89.3608 70.1184C89.3608 69.7457 89.4288 69.3911 89.5521 69.0648L87.6812 68.3578C87.4739 68.9065 87.3608 69.5004 87.3608 70.1184H89.3608ZM92.3403 73.0988C90.695 73.0988 89.3608 71.7647 89.3608 70.1184H87.3608C87.3608 72.8688 89.59 75.0988 92.3403 75.0988V73.0988ZM95.3198 70.1184C95.3198 71.7647 93.9857 73.0988 92.3403 73.0988V75.0988C95.0906 75.0988 97.3198 72.8688 97.3198 70.1184H95.3198ZM95.0236 68.8207C95.2131 69.2118 95.3198 69.6512 95.3198 70.1184H97.3198C97.3198 69.3427 97.1418 68.6057 96.8234 67.9486L95.0236 68.8207Z" fill="#727272" mask="url(#path-19-inside-1)"/>
<mask id="path-21-inside-2" fill="white">
<path fill-rule="evenodd" clip-rule="evenodd" d="M86.4937 61.2481L83.811 54.1797L81.7077 61.4642C81.5986 61.7519 81.5388 62.0638 81.5388 62.3897C81.5388 63.8304 82.7068 64.9984 84.1475 64.9984C85.5882 64.9984 86.7561 63.8304 86.7561 62.3897C86.7561 61.9803 86.6618 61.5929 86.4937 61.2481Z"/>
</mask>
<path fill-rule="evenodd" clip-rule="evenodd" d="M86.4937 61.2481L83.811 54.1797L81.7077 61.4642C81.5986 61.7519 81.5388 62.0638 81.5388 62.3897C81.5388 63.8304 82.7068 64.9984 84.1475 64.9984C85.5882 64.9984 86.7561 63.8304 86.7561 62.3897C86.7561 61.9803 86.6618 61.5929 86.4937 61.2481Z" fill="white"/>
<path d="M83.811 54.1797L84.7459 53.8248L83.682 51.0216L82.8502 53.9023L83.811 54.1797ZM86.4937 61.2481L85.5588 61.6029L85.5749 61.6454L85.5948 61.6863L86.4937 61.2481ZM81.7077 61.4642L82.6427 61.8191L82.6572 61.7809L82.6685 61.7416L81.7077 61.4642ZM82.8761 54.5345L85.5588 61.6029L87.4286 60.8932L84.7459 53.8248L82.8761 54.5345ZM82.6685 61.7416L84.7717 54.4571L82.8502 53.9023L80.747 61.1869L82.6685 61.7416ZM82.5388 62.3897C82.5388 62.1869 82.5759 61.9951 82.6427 61.8191L80.7728 61.1094C80.6213 61.5086 80.5388 61.9407 80.5388 62.3897H82.5388ZM84.1475 63.9984C83.259 63.9984 82.5388 63.2782 82.5388 62.3897H80.5388C80.5388 64.3827 82.1545 65.9984 84.1475 65.9984V63.9984ZM85.7561 62.3897C85.7561 63.2782 85.0359 63.9984 84.1475 63.9984V65.9984C86.1405 65.9984 87.7561 64.3827 87.7561 62.3897H85.7561ZM85.5948 61.6863C85.6979 61.8976 85.7561 62.1354 85.7561 62.3897H87.7561C87.7561 61.8251 87.6258 61.2882 87.3926 60.8099L85.5948 61.6863Z" fill="#727272" mask="url(#path-21-inside-2)"/>
<path d="M64.9268 35.2699V30.6342H86.0734V35.2699L93.6862 28.1056L86.0734 20.9414V25.5771H64.9268V20.9414L57.314 28.1056L64.9268 35.2699Z" stroke="#727272" stroke-width="3"/>
</svg>
