<svg width="175" height="86" viewBox="0 0 175 86" fill="none" xmlns="http://www.w3.org/2000/svg">
<path d="M64.2607 30.5504C60.4636 29.4655 58.1581 16.0846 57.48 9.52979C55.8527 1.93511 47.987 1.79994 46.6308 2.07067C36.4463 4.10562 34.61 12.9206 35.0621 19.0233L39.8503 19.0231C49.3431 41.3995 64.4868 53.6047 71.7195 59.0293L65.6169 71.9127H80.5344L85.959 60.3855C97.3506 66.3525 125.965 64.6799 138.849 63.0977L142.917 70.5565H158.513L152.41 59.0293L170.718 57.6732L158.513 47.5021M64.2607 30.5504C67.7287 24.7096 77.2696 13.7098 91.3835 8.26393M64.2607 30.5504L87.9932 36.653M64.2607 30.5504C67.82 37.5503 77.3205 46.954 94.0958 51.6419M158.513 47.5021L134.78 44.1118M158.513 47.5021C154.249 33.9363 147.608 24.467 140.205 17.981M158.513 47.5021C147.524 50.9297 137.599 52.9585 128.677 53.9042M134.78 44.1118L127.321 27.8381M134.78 44.1118L128.677 53.9042M127.321 27.8381L140.205 17.981M127.321 27.8381L100.198 23.0916M140.205 17.981C126.885 6.31213 111.094 4.2996 102.233 5.4618C98.3701 5.98378 94.747 6.96615 91.3835 8.26393M100.198 23.0916L91.3835 8.26393M100.198 23.0916L87.9932 36.653M87.9932 36.653L94.0958 51.6419M94.0958 51.6419C103.34 54.225 114.793 55.3762 128.677 53.9042" stroke="#727272" stroke-width="3"/>
<circle cx="45.2332" cy="10.8155" r="2.03421" fill="#727272"/>
<mask id="path-3-inside-1" fill="white">
<path fill-rule="evenodd" clip-rule="evenodd" d="M69.0641 85.7481C69.1574 84.712 69.2051 83.6629 69.2051 82.6026C69.2051 63.4921 53.713 48 34.6026 48C15.4921 48 0 63.4921 0 82.6026C0 83.6629 0.0476912 84.712 0.141046 85.7481H69.0641Z"/>
</mask>
<path fill-rule="evenodd" clip-rule="evenodd" d="M69.0641 85.7481C69.1574 84.712 69.2051 83.6629 69.2051 82.6026C69.2051 63.4921 53.713 48 34.6026 48C15.4921 48 0 63.4921 0 82.6026C0 83.6629 0.0476912 84.712 0.141046 85.7481H69.0641Z" fill="white"/>
<path d="M69.0641 85.7481V88.7481H71.8059L72.052 86.0173L69.0641 85.7481ZM0.141046 85.7481L-2.84685 86.0173L-2.60078 88.7481H0.141046V85.7481ZM66.2051 82.6026C66.2051 83.5729 66.1615 84.5322 66.0762 85.4788L72.052 86.0173C72.1534 84.8919 72.2051 83.7529 72.2051 82.6026H66.2051ZM34.6026 51C52.0562 51 66.2051 65.1489 66.2051 82.6026H72.2051C72.2051 61.8352 55.3699 45 34.6026 45V51ZM3 82.6026C3 65.1489 17.1489 51 34.6026 51V45C13.8352 45 -3 61.8352 -3 82.6026H3ZM3.12894 85.4788C3.04364 84.5322 3 83.5729 3 82.6026H-3C-3 83.7529 -2.94826 84.8919 -2.84685 86.0173L3.12894 85.4788ZM0.141046 88.7481H69.0641V82.7481H0.141046V88.7481Z" fill="#727272" mask="url(#path-3-inside-1)"/>
<path d="M35.8406 82.9727L5.56724 71.0536" stroke="#727272" stroke-width="3" stroke-linecap="round" stroke-linejoin="round"/>
<path d="M34.9351 58.0352L34.9468 50.5155" stroke="#727272" stroke-width="3" stroke-linecap="round" stroke-linejoin="round"/>
<path d="M50.3313 64.9746L56.5207 60.704" stroke="#727272" stroke-width="3" stroke-linecap="round" stroke-linejoin="round"/>
</svg>
