<svg width="89" height="110" viewBox="0 0 89 110" fill="none" xmlns="http://www.w3.org/2000/svg">
<path d="M30.5602 90.4826L35.0602 107.483L74.0602 88.4823C70.8602 76.8823 73.7268 68.9823 75.5602 66.4823C86.5602 53.4785 89.0602 35.9785 84.5602 24.4825C68.5602 -5.52138 30.5602 -0.519531 19.5602 10.9792C14.0602 16.7286 11.2268 24.8159 9.56018 29.9825C8.76018 31.9825 9.89352 40.1492 10.5602 43.9825C10.5602 45.9825 5.22686 52.8159 2.56019 55.9825C0.560192 59.5825 4.39353 62.1492 6.56019 62.9826V67.9826L9.56018 70.9826L8.06019 72.9826L10.5602 76.9826C8.96018 82.1825 9.22685 84.4826 9.56018 84.9826C13.9602 90.9826 25.3935 91.1492 30.5602 90.4826Z" fill="#C4C4C4" stroke="#727272" stroke-width="3"/>
<path d="M45.8792 27.1982C28.085 29.3985 31.4845 47.4084 39.6468 52.3246C39.4167 58.878 44.7562 61.6091 47.579 61.0642C53.2449 59.9704 53.2449 54.5082 53.2449 52.3246C68.3126 38.6676 54.7145 26.1057 45.8792 27.1982Z" fill="white" stroke="#727272" stroke-width="3"/>
<path d="M43 61.1318C43 66.6496 49.4167 68.8567 50 61.1318H43Z" fill="white" stroke="#727272" stroke-width="3"/>
<line x1="20.5" y1="34.5" x2="27.5" y2="34.5" stroke="#727272" stroke-width="3" stroke-linecap="round" stroke-linejoin="round"/>
<line x1="64.5" y1="34.5" x2="71.5" y2="34.5" stroke="#727272" stroke-width="3" stroke-linecap="round" stroke-linejoin="round"/>
<line x1="29.1213" y1="18.9861" x2="34.1034" y2="23.9032" stroke="#727272" stroke-width="3" stroke-linecap="round" stroke-linejoin="round"/>
<line x1="63.1763" y1="20.1208" x2="58.1208" y2="24.9625" stroke="#727272" stroke-width="3" stroke-linecap="round" stroke-linejoin="round"/>
<line x1="45.5" y1="19.5" x2="45.5" y2="12.5" stroke="#727272" stroke-width="3" stroke-linecap="round" stroke-linejoin="round"/>
</svg>
