<svg width="28" height="49" viewBox="0 0 28 49" fill="none" xmlns="http://www.w3.org/2000/svg">
<path fill-rule="evenodd" clip-rule="evenodd" d="M27.6681 13.5506C27.6681 15.5889 27.1524 17.5145 26.2364 19.2192H26.309L14.168 48.6856L2.027 19.2192H2.09979C1.18381 17.5145 0.668091 15.5889 0.668091 13.5506C0.668091 6.57273 6.71225 0.916016 14.1681 0.916016C21.6239 0.916016 27.6681 6.57273 27.6681 13.5506ZM14.2547 20.6466C17.9349 20.6466 20.9182 17.6632 20.9182 13.9831C20.9182 10.303 17.9349 7.31965 14.2547 7.31965C10.5746 7.31965 7.59128 10.303 7.59128 13.9831C7.59128 17.6632 10.5746 20.6466 14.2547 20.6466Z" fill="black"/>
</svg>
