<svg width="131" height="111" viewBox="0 0 131 111" fill="none" xmlns="http://www.w3.org/2000/svg">
<line x1="52.7" y1="1.5" x2="52.7" y2="14.5" stroke="#727272" stroke-width="3" stroke-linecap="round" stroke-linejoin="round"/>
<line x1="52.7" y1="64.4336" x2="52.7" y2="77.4336" stroke="#727272" stroke-width="3" stroke-linecap="round" stroke-linejoin="round"/>
<line x1="52.7" y1="21.7676" x2="52.7" y2="34.7676" stroke="#727272" stroke-width="3" stroke-linecap="round" stroke-linejoin="round"/>
<line x1="52.7" y1="84.6992" x2="52.7" y2="97.6992" stroke="#727272" stroke-width="3" stroke-linecap="round" stroke-linejoin="round"/>
<line x1="52.7" y1="43.0996" x2="52.7" y2="56.0996" stroke="#727272" stroke-width="3" stroke-linecap="round" stroke-linejoin="round"/>
<line x1="101.767" y1="1.5" x2="101.767" y2="14.5" stroke="#727272" stroke-width="3" stroke-linecap="round" stroke-linejoin="round"/>
<line x1="101.767" y1="64.4336" x2="101.767" y2="77.4336" stroke="#727272" stroke-width="3" stroke-linecap="round" stroke-linejoin="round"/>
<line x1="97.5" y1="21.7676" x2="97.5" y2="34.7676" stroke="#727272" stroke-width="3" stroke-linecap="round" stroke-linejoin="round"/>
<line x1="97.5" y1="84.6992" x2="97.5" y2="97.6992" stroke="#727272" stroke-width="3" stroke-linecap="round" stroke-linejoin="round"/>
<line x1="99.6333" y1="43.0996" x2="99.6333" y2="56.0996" stroke="#727272" stroke-width="3" stroke-linecap="round" stroke-linejoin="round"/>
<line x1="93.2334" y1="43.0996" x2="93.2334" y2="56.0996" stroke="#727272" stroke-width="3" stroke-linecap="round" stroke-linejoin="round"/>
<line x1="78.3" y1="1.5" x2="78.3" y2="14.5" stroke="#727272" stroke-width="3" stroke-linecap="round" stroke-linejoin="round"/>
<line x1="78.3" y1="64.4336" x2="78.3" y2="77.4336" stroke="#727272" stroke-width="3" stroke-linecap="round" stroke-linejoin="round"/>
<line x1="61.2334" y1="21.7676" x2="61.2334" y2="34.7676" stroke="#727272" stroke-width="3" stroke-linecap="round" stroke-linejoin="round"/>
<line x1="61.2334" y1="84.6992" x2="61.2334" y2="97.6992" stroke="#727272" stroke-width="3" stroke-linecap="round" stroke-linejoin="round"/>
<line x1="87.8999" y1="21.7676" x2="87.8999" y2="34.7676" stroke="#727272" stroke-width="3" stroke-linecap="round" stroke-linejoin="round"/>
<line x1="87.8999" y1="84.6992" x2="87.8999" y2="97.6992" stroke="#727272" stroke-width="3" stroke-linecap="round" stroke-linejoin="round"/>
<line x1="72.9668" y1="43.0996" x2="72.9668" y2="56.0996" stroke="#727272" stroke-width="3" stroke-linecap="round" stroke-linejoin="round"/>
<line x1="120.967" y1="43.0996" x2="120.967" y2="56.0996" stroke="#727272" stroke-width="3" stroke-linecap="round" stroke-linejoin="round"/>
<line x1="129.5" y1="1.5" x2="129.5" y2="14.5" stroke="#727272" stroke-width="3" stroke-linecap="round" stroke-linejoin="round"/>
<line x1="129.5" y1="64.4336" x2="129.5" y2="77.4336" stroke="#727272" stroke-width="3" stroke-linecap="round" stroke-linejoin="round"/>
<line x1="129.5" y1="43.0996" x2="129.5" y2="56.0996" stroke="#727272" stroke-width="3" stroke-linecap="round" stroke-linejoin="round"/>
<line x1="129.5" y1="21.7676" x2="129.5" y2="34.7676" stroke="#727272" stroke-width="3" stroke-linecap="round" stroke-linejoin="round"/>
<line x1="129.5" y1="84.6992" x2="129.5" y2="97.6992" stroke="#727272" stroke-width="3" stroke-linecap="round" stroke-linejoin="round"/>
<line x1="120.967" y1="21.7676" x2="120.967" y2="34.7676" stroke="#727272" stroke-width="3" stroke-linecap="round" stroke-linejoin="round"/>
<line x1="120.967" y1="84.6992" x2="120.967" y2="97.6992" stroke="#727272" stroke-width="3" stroke-linecap="round" stroke-linejoin="round"/>
<rect x="61.2334" y="1.5" width="8.73334" height="13" rx="1.5" stroke="#727272" stroke-width="3"/>
<rect x="61.2334" y="64.4336" width="8.73334" height="13" rx="1.5" stroke="#727272" stroke-width="3"/>
<rect x="69.7666" y="21.7676" width="8.73334" height="13" rx="1.5" stroke="#727272" stroke-width="3"/>
<rect x="69.7666" y="84.6992" width="8.73334" height="13" rx="1.5" stroke="#727272" stroke-width="3"/>
<rect x="86.8333" y="1.5" width="8.73334" height="13" rx="1.5" stroke="#727272" stroke-width="3"/>
<rect x="86.8333" y="64.4336" width="8.73334" height="13" rx="1.5" stroke="#727272" stroke-width="3"/>
<rect x="104.967" y="21.7676" width="8.73334" height="13" rx="1.5" stroke="#727272" stroke-width="3"/>
<rect x="104.967" y="84.6992" width="8.73334" height="13" rx="1.5" stroke="#727272" stroke-width="3"/>
<rect x="113.5" y="1.5" width="8.73334" height="13" rx="1.5" stroke="#727272" stroke-width="3"/>
<rect x="113.5" y="64.4336" width="8.73334" height="13" rx="1.5" stroke="#727272" stroke-width="3"/>
<rect x="106.033" y="43.0996" width="8.73334" height="13" rx="1.5" stroke="#727272" stroke-width="3"/>
<rect x="78.3" y="43.0996" width="8.73334" height="13" rx="1.5" stroke="#727272" stroke-width="3"/>
<rect x="59.1001" y="43.0996" width="8.73334" height="13" rx="1.5" stroke="#727272" stroke-width="3"/>
<rect x="45.8443" y="22.3887" width="61" height="61" rx="12.5" transform="rotate(45.7886 45.8443 22.3887)" fill="white" stroke="#727272" stroke-width="3"/>
<path d="M28.2559 68.1045C28.2559 67.542 28.0566 67.1084 27.6582 66.8037C27.2656 66.499 26.5537 66.1914 25.5225 65.8809C24.4912 65.5703 23.6709 65.2246 23.0615 64.8438C21.8955 64.1113 21.3125 63.1562 21.3125 61.9785C21.3125 60.9473 21.7314 60.0977 22.5693 59.4297C23.4131 58.7617 24.5059 58.4277 25.8477 58.4277C26.7383 58.4277 27.5322 58.5918 28.2295 58.9199C28.9268 59.248 29.4746 59.7168 29.873 60.3262C30.2715 60.9297 30.4707 61.6006 30.4707 62.3389H28.2559C28.2559 61.6709 28.0449 61.1494 27.623 60.7744C27.207 60.3936 26.6094 60.2031 25.8301 60.2031C25.1035 60.2031 24.5381 60.3584 24.1338 60.6689C23.7354 60.9795 23.5361 61.4131 23.5361 61.9697C23.5361 62.4385 23.7529 62.8311 24.1865 63.1475C24.6201 63.458 25.335 63.7627 26.3311 64.0615C27.3271 64.3545 28.127 64.6914 28.7305 65.0723C29.334 65.4473 29.7764 65.8809 30.0576 66.373C30.3389 66.8594 30.4795 67.4307 30.4795 68.0869C30.4795 69.1533 30.0693 70.0029 29.249 70.6357C28.4346 71.2627 27.3271 71.5762 25.9268 71.5762C25.001 71.5762 24.1484 71.4062 23.3691 71.0664C22.5957 70.7207 21.9922 70.2461 21.5586 69.6426C21.1309 69.0391 20.917 68.3359 20.917 67.5332H23.1406C23.1406 68.2598 23.3809 68.8223 23.8613 69.2207C24.3418 69.6191 25.0303 69.8184 25.9268 69.8184C26.7002 69.8184 27.2803 69.6631 27.667 69.3525C28.0596 69.0361 28.2559 68.6201 28.2559 68.1045ZM34.6543 69.625H40.4639V71.4004H32.4307V58.6035H34.6543V69.625ZM51.8193 65.3359C51.8193 66.5898 51.6025 67.6914 51.1689 68.6406C50.7354 69.584 50.1143 70.3105 49.3057 70.8203C48.5029 71.3242 47.5771 71.5762 46.5283 71.5762C45.4912 71.5762 44.5654 71.3242 43.751 70.8203C42.9424 70.3105 42.3154 69.5869 41.8701 68.6494C41.4307 67.7119 41.208 66.6309 41.2021 65.4062V64.6855C41.2021 63.4375 41.4219 62.3359 41.8613 61.3809C42.3066 60.4258 42.9307 59.6963 43.7334 59.1924C44.542 58.6826 45.4678 58.4277 46.5107 58.4277C47.5537 58.4277 48.4766 58.6797 49.2793 59.1836C50.0879 59.6816 50.7119 60.4023 51.1514 61.3457C51.5908 62.2832 51.8135 63.376 51.8193 64.624V65.3359ZM49.5957 64.668C49.5957 63.25 49.3262 62.1631 48.7871 61.4072C48.2539 60.6514 47.4951 60.2734 46.5107 60.2734C45.5498 60.2734 44.7969 60.6514 44.252 61.4072C43.7129 62.1572 43.4375 63.2207 43.4258 64.5977V65.3359C43.4258 66.7422 43.6982 67.8291 44.2432 68.5967C44.7939 69.3643 45.5557 69.748 46.5283 69.748C47.5127 69.748 48.2686 69.373 48.7959 68.623C49.3291 67.873 49.5957 66.7773 49.5957 65.3359V64.668ZM64.0713 68.2363L66.04 58.6035H68.2461L65.293 71.4004H63.166L60.7314 62.0576L58.2441 71.4004H56.1084L53.1553 58.6035H55.3613L57.3477 68.2188L59.791 58.6035H61.6543L64.0713 68.2363Z" fill="#727272"/>
<line x1="23.4666" y1="52.9004" x2="66.1332" y2="52.9004" stroke="#727272" stroke-width="3"/>
<line x1="23.4666" y1="78.5" x2="66.1332" y2="78.5" stroke="#727272" stroke-width="3"/>
</svg>
