<svg width="115" height="97" viewBox="0 0 115 97" fill="none" xmlns="http://www.w3.org/2000/svg">
<path d="M45.3506 32.6035C45.3506 27.1206 49.7954 22.6758 55.2783 22.6758H63.1141C68.6097 22.6758 73.0649 27.1309 73.0649 32.6266C73.0649 34.2345 71.9117 35.6108 70.3286 35.8923L64.7333 36.8872C61.3631 37.4864 57.9153 37.5045 54.5391 36.9405L48.1146 35.8675C46.5195 35.601 45.3506 34.2207 45.3506 32.6035Z" fill="#727272"/>
<path d="M22.6753 83.8805C22.6753 79.2984 26.3898 75.584 30.9718 75.584H35.7738C40.3672 75.584 44.0909 79.3077 44.0909 83.9011C44.0909 85.2309 43.1466 86.3734 41.8406 86.6238L37.8977 87.3799C35.1347 87.9097 32.2977 87.9256 29.529 87.4269L24.9505 86.6022C23.6335 86.3649 22.6753 85.2187 22.6753 83.8805Z" fill="#727272"/>
<path d="M85.6624 74.6754C85.6624 71.0032 88.6392 68.0264 92.3113 68.0264H95.3729C99.0545 68.0264 102.039 71.0109 102.039 74.6925C102.039 75.7512 101.292 76.6629 100.254 76.8711L97.4062 77.4424C95.2268 77.8796 92.9837 77.8927 90.7994 77.4811L87.4683 76.8533C86.4209 76.656 85.6624 75.7411 85.6624 74.6754Z" fill="#727272"/>
<circle cx="59.2079" cy="13.8573" r="6.2987" fill="#727272"/>
<circle cx="34.0131" cy="69.286" r="5.03896" fill="#727272"/>
<circle cx="94.4804" cy="62.9872" r="3.77922" fill="#727272"/>
<circle cx="59.2078" cy="23.9351" r="22.4351" stroke="#727272" stroke-width="3"/>
<circle cx="33.3832" cy="77.4742" r="18.026" stroke="#727272" stroke-width="3"/>
<circle cx="93.8508" cy="69.9157" r="14.2468" stroke="#727272" stroke-width="3"/>
<circle cx="8.19294" cy="44.7256" r="6.2987" transform="rotate(-21.8909 8.19294 44.7256)" fill="#727272"/>
<circle cx="106.442" cy="20.7799" r="6.2987" transform="rotate(-21.7227 106.442 20.7799)" fill="#727272"/>
<line x1="36.425" y1="26.4679" x2="12.1301" y2="41.5848" stroke="#727272" stroke-width="3"/>
<line x1="50.4715" y1="44.7616" x2="41.6533" y2="62.398" stroke="#727272" stroke-width="3"/>
<line x1="74.2539" y1="40.6567" x2="86.8513" y2="57.0333" stroke="#727272" stroke-width="3"/>
<line x1="81.7733" y1="23.6398" x2="106.806" y2="21.8027" stroke="#727272" stroke-width="3"/>
<line x1="79.5578" y1="74.5519" x2="50.5838" y2="78.3311" stroke="#727272" stroke-width="3"/>
</svg>
