<?xml version="1.0" standalone="no"?>
<!DOCTYPE svg PUBLIC "-//W3C//DTD SVG 20010904//EN"
 "http://www.w3.org/TR/2001/REC-SVG-20010904/DTD/svg10.dtd">
<svg version="1.0" xmlns="http://www.w3.org/2000/svg"
 width="3200.000000pt" height="3200.000000pt" viewBox="0 0 3200.000000 3200.000000"
 preserveAspectRatio="xMidYMid meet">

<g transform="translate(0.000000,3200.000000) scale(0.100000,-0.100000)"
fill="#000000" stroke="none">
<path d="M7686 29229 c-14 -17 -26 -34 -26 -37 0 -4 -9 -225 -20 -492 -60
-1478 -114 -3346 -151 -5215 -15 -806 -25 -2923 -19 -4175 3 -608 4 -1110 2
-1116 -10 -35 -63 -41 -572 -73 -1062 -67 -1902 -61 -3770 29 -386 19 -2230
117 -2635 140 -99 5 -215 10 -257 10 -72 0 -80 -2 -113 -31 l-35 -31 0 -217
c0 -194 2 -220 20 -260 24 -53 84 -113 142 -142 71 -35 159 -90 223 -137 87
-65 227 -208 274 -282 42 -64 47 -78 76 -204 42 -180 141 -314 326 -442 35
-24 68 -44 72 -44 34 0 248 -150 371 -260 81 -71 265 -258 337 -340 41 -47 76
-87 79 -90 30 -27 111 -150 161 -241 33 -63 70 -130 82 -149 46 -78 161 -222
216 -272 96 -86 144 -106 404 -163 42 -9 98 -28 123 -41 174 -92 436 -358 523
-530 35 -70 83 -252 111 -429 12 -71 27 -140 35 -154 23 -45 107 -120 185
-166 93 -53 114 -73 145 -134 32 -64 45 -150 34 -231 -26 -199 -29 -264 -20
-379 21 -235 119 -521 268 -774 64 -110 113 -158 228 -223 207 -116 341 -239
511 -466 122 -163 210 -256 271 -287 37 -18 59 -21 178 -21 161 0 196 -9 385
-104 122 -61 445 -245 545 -311 28 -18 91 -59 140 -91 50 -32 131 -88 180
-124 192 -140 253 -163 462 -168 120 -3 164 0 209 13 139 40 251 138 375 325
100 151 137 216 260 460 100 196 107 208 190 291 108 109 129 162 129 322 0
77 5 112 19 142 30 66 136 164 283 261 40 26 75 51 78 54 30 33 246 149 340
182 142 51 146 51 231 13 42 -19 96 -42 120 -51 57 -20 269 -34 494 -34 99 1
187 1 195 1 9 -1 36 -19 60 -41 67 -59 123 -75 260 -74 84 0 137 6 197 22 95
25 170 28 197 7 28 -21 139 -20 157 1 12 14 14 14 20 -3 4 -10 8 -32 8 -48 3
-135 107 -327 252 -465 94 -90 125 -108 246 -141 155 -42 191 -75 268 -235 31
-65 74 -144 96 -176 37 -54 48 -63 142 -108 56 -26 113 -58 127 -70 106 -90
138 -121 195 -193 125 -155 205 -327 205 -437 0 -79 14 -109 92 -200 85 -101
145 -180 202 -270 27 -41 56 -86 65 -100 33 -47 221 -408 221 -424 0 -3 11
-29 24 -58 23 -51 97 -246 205 -543 71 -193 65 -182 144 -255 172 -158 432
-426 527 -542 14 -18 42 -52 64 -77 21 -25 46 -56 56 -67 10 -12 87 -114 171
-225 138 -184 218 -286 342 -434 47 -56 271 -282 332 -336 54 -47 152 -120
198 -148 21 -13 40 -34 43 -47 9 -33 -12 -132 -39 -191 -20 -44 -22 -63 -21
-223 0 -161 3 -182 28 -265 45 -150 79 -213 211 -395 294 -405 385 -570 622
-1125 146 -341 220 -462 316 -511 19 -10 84 -22 162 -30 160 -16 194 -28 419
-143 339 -174 472 -219 716 -242 133 -12 130 -11 225 -91 214 -180 321 -244
472 -286 97 -26 102 -26 443 -28 362 -1 392 -4 590 -54 176 -44 356 -122 451
-196 34 -26 97 -65 140 -86 l78 -38 185 0 184 0 34 28 c51 42 70 62 124 132
65 84 75 101 109 185 28 67 29 77 29 220 0 106 -5 169 -17 215 -9 36 -17 68
-17 73 0 4 23 7 51 7 l52 0 -6 113 c-6 113 -25 206 -47 233 -9 9 -33 14 -76
14 -52 0 -65 -4 -77 -21 -14 -19 -17 -15 -62 68 -45 83 -127 214 -150 239 -5
6 -17 22 -25 34 -18 26 -40 52 -86 102 -34 37 -34 39 -54 207 -33 288 -84 473
-180 664 -27 54 -50 113 -50 129 0 42 25 136 61 227 47 118 65 151 76 140 5
-5 41 -9 78 -7 l69 3 29 80 c28 78 29 86 37 355 5 151 11 284 14 295 3 11 14
57 25 102 26 104 93 261 166 388 58 100 121 200 140 222 5 6 20 25 33 41 13
17 36 45 52 64 41 46 137 241 155 313 19 74 19 175 1 219 -19 45 -57 58 -150
54 -65 -3 -75 -1 -69 12 30 67 52 194 52 303 l1 118 -51 54 -50 53 58 38 c32
21 63 42 68 47 19 15 120 79 154 98 l34 18 21 -42 c28 -56 71 -77 159 -77 38
0 67 -4 67 -10 0 -5 -10 -10 -22 -10 -12 0 -41 -9 -65 -21 -102 -49 -163 -213
-163 -439 l0 -110 69 0 69 0 67 73 c128 138 195 253 195 332 0 28 4 35 19 35
47 0 268 111 327 165 6 5 22 17 34 25 12 8 28 20 34 25 65 59 128 94 196 109
61 13 236 162 294 250 23 34 26 49 26 126 0 78 -3 90 -24 113 -30 33 -83 47
-173 47 l-71 0 -4 88 c-5 120 -34 182 -133 278 -41 40 -75 75 -75 77 0 10 180
87 240 103 75 20 196 23 256 6 22 -7 67 -29 100 -50 81 -53 113 -62 216 -62
96 0 114 6 258 91 87 51 153 68 301 78 134 10 198 24 329 71 102 38 315 143
390 193 76 51 191 133 226 163 96 81 142 124 204 188 95 98 103 108 187 221
40 55 77 105 81 110 14 18 109 188 170 306 75 144 113 207 171 284 64 84 104
118 197 165 117 60 216 163 244 256 8 26 11 83 8 160 -4 107 -7 127 -37 196
-18 42 -46 94 -62 115 -75 97 -128 200 -163 317 l-13 41 151 -2 151 -2 12 -38
c6 -21 23 -76 37 -123 28 -93 74 -168 128 -206 39 -28 149 -54 228 -53 30 0
87 7 125 15 39 9 153 19 255 23 171 7 192 10 280 40 115 38 265 112 380 185
47 30 90 59 95 64 6 4 33 21 60 37 28 16 64 39 80 51 38 28 191 100 315 150
52 21 110 47 129 58 l33 19 -5 111 c-3 75 -12 133 -26 179 l-22 68 36 66 c20
36 62 100 94 142 78 104 95 134 124 221 34 103 51 258 44 405 -8 152 -26 245
-83 431 -50 165 -64 242 -64 356 0 149 58 366 133 493 36 62 87 170 116 250
22 60 22 67 19 540 l-3 480 -27 58 c-35 75 -111 154 -200 208 -39 24 -93 64
-120 88 -132 120 -244 379 -342 791 -41 171 -136 371 -244 515 -59 79 -175
188 -227 216 -70 37 -73 49 -79 349 -3 177 -12 323 -26 440 -12 96 -25 279
-30 405 -10 243 -23 330 -78 510 -27 90 -27 90 -26 395 0 168 6 463 13 655
l13 350 -35 85 c-18 47 -53 141 -77 210 -43 123 -44 127 -50 300 -4 96 -12
186 -17 200 -28 66 -86 80 -339 80 -186 0 -259 11 -469 70 -193 54 -249 78
-542 222 -165 81 -192 98 -242 150 -69 73 -93 87 -173 95 -81 8 -108 22 -142
75 -25 40 -43 52 -224 141 -179 88 -202 97 -253 97 -61 0 -74 -7 -160 -86
-107 -98 -188 -128 -374 -140 -231 -15 -238 -14 -348 39 -92 44 -104 47 -179
47 -44 0 -108 -7 -142 -15 -137 -35 -481 -147 -966 -315 -455 -158 -456 -158
-510 -129 -40 21 -75 52 -107 93 -20 25 -23 41 -23 112 0 148 -36 184 -184
184 -108 0 -218 -28 -326 -84 -106 -55 -155 -69 -184 -54 -26 14 -48 43 -62
82 -16 44 -52 66 -132 78 -84 13 -181 0 -222 -30 -57 -43 -90 -148 -90 -288 0
-87 -1 -93 -32 -135 l-33 -44 -5 100 c-6 111 -20 146 -74 183 -27 18 -46 22
-117 22 -79 0 -88 -2 -137 -34 -58 -37 -177 -63 -241 -51 -54 10 -210 100
-251 145 -15 17 -90 70 -119 85 -28 14 -53 16 -132 13 l-98 -4 -153 -76 c-218
-108 -214 -108 -294 -64 -87 48 -142 101 -224 216 -102 143 -149 186 -232 211
-56 17 -86 36 -166 101 l-97 80 -95 -6 c-92 -5 -146 -14 -516 -90 -232 -48
-466 -79 -523 -71 -56 8 -122 38 -176 79 -22 17 -119 110 -215 207 -386 388
-655 586 -985 722 -219 90 -545 158 -836 173 -178 10 -171 1 -180 212 -19 424
-31 2028 -24 3212 l7 1245 -22 28 -21 27 -3129 0 -3128 0 -26 -31z m6244 -56
l21 -27 -7 -1235 c-6 -1175 6 -2804 25 -3223 9 -211 2 -202 180 -212 418 -22
795 -126 1091 -300 249 -146 433 -296 730 -595 261 -263 287 -279 450 -288
123 -6 313 18 584 73 211 43 398 79 451 88 39 5 45 3 138 -73 78 -64 109 -83
165 -100 83 -25 130 -68 232 -211 81 -114 137 -168 222 -215 55 -30 74 -35
130 -35 81 0 127 16 292 100 151 77 205 91 257 65 29 -15 104 -69 119 -85 19
-21 96 -74 154 -106 62 -33 79 -38 155 -42 129 -7 238 13 302 54 62 40 91 42
136 12 54 -37 73 -89 73 -201 l0 -97 49 0 c57 0 89 21 126 84 23 39 25 52 23
147 -1 87 2 114 21 161 36 92 96 128 193 115 51 -7 88 -34 102 -74 15 -43 50
-81 82 -89 14 -4 57 -4 96 -2 59 5 86 14 172 57 96 48 230 91 282 91 41 0 91
-31 108 -67 11 -23 16 -61 16 -117 0 -89 8 -107 70 -164 58 -53 98 -65 190
-59 93 7 110 12 500 147 627 217 985 330 1048 330 11 0 65 -21 119 -47 l98
-48 120 0 c191 0 373 15 438 37 74 24 117 51 203 127 38 34 75 61 84 61 8 1
99 -41 202 -92 171 -85 189 -96 214 -136 34 -53 61 -67 142 -75 80 -8 104 -22
173 -95 50 -52 77 -69 242 -150 298 -147 350 -168 557 -226 230 -63 279 -71
457 -68 241 4 308 -11 336 -78 5 -14 13 -104 17 -200 6 -173 7 -177 50 -300
24 -69 58 -163 76 -209 l34 -83 -11 -252 c-6 -138 -12 -433 -13 -656 l-1 -405
27 -90 c55 -180 68 -267 78 -510 5 -126 18 -309 30 -405 14 -117 23 -263 26
-440 6 -300 9 -312 79 -349 52 -28 168 -137 227 -216 108 -144 203 -344 244
-515 98 -412 210 -671 342 -791 27 -24 81 -64 120 -88 89 -54 165 -133 200
-208 l27 -58 3 -419 c3 -412 3 -421 -19 -480 -30 -81 -80 -189 -117 -253 -46
-78 -98 -226 -117 -336 -14 -79 -17 -134 -12 -270 5 -161 7 -179 41 -292 94
-309 116 -446 96 -612 -13 -104 -48 -225 -83 -283 -11 -19 -48 -71 -81 -114
-78 -104 -136 -216 -136 -264 0 -20 11 -72 25 -115 14 -42 28 -101 31 -130 6
-53 6 -54 -27 -73 -19 -11 -77 -37 -129 -58 -124 -50 -277 -122 -315 -150 -16
-12 -52 -35 -80 -51 -27 -16 -54 -33 -60 -37 -5 -5 -48 -34 -95 -64 -113 -72
-264 -146 -380 -186 -90 -31 -103 -33 -255 -34 -119 -1 -184 -7 -252 -22 -85
-19 -98 -19 -159 -6 -82 17 -124 44 -169 109 -37 53 -56 101 -81 199 -29 117
-30 119 -88 112 -161 -18 -214 -18 -268 -2 -31 9 -70 16 -87 16 -27 0 -31 -3
-31 -28 0 -39 42 -185 79 -273 31 -75 62 -127 120 -202 74 -95 118 -269 91
-353 -31 -94 -128 -195 -244 -254 -93 -47 -133 -81 -197 -165 -58 -77 -96
-140 -171 -284 -61 -118 -156 -288 -170 -306 -4 -5 -41 -55 -81 -110 -84 -113
-92 -123 -187 -221 -62 -64 -108 -107 -204 -188 -35 -30 -150 -112 -226 -163
-75 -50 -288 -155 -390 -193 -131 -47 -195 -61 -329 -71 -148 -10 -214 -27
-301 -78 -197 -116 -213 -116 -373 -18 -75 45 -166 62 -302 54 -119 -7 -192
-26 -301 -76 -104 -49 -124 -66 -124 -110 0 -30 11 -45 90 -121 118 -113 143
-165 148 -302 l4 -98 31 0 c18 0 49 5 69 10 75 21 168 -29 168 -90 0 -37 -39
-92 -123 -175 -79 -76 -157 -133 -197 -141 -68 -15 -131 -50 -196 -109 -6 -5
-22 -17 -34 -25 -12 -8 -28 -20 -34 -25 -59 -54 -280 -165 -327 -165 -15 0
-19 -7 -19 -35 0 -49 -34 -130 -85 -200 -50 -70 -173 -205 -186 -205 -24 0 2
203 37 287 39 93 117 163 180 163 20 0 39 48 51 134 l5 38 -43 -5 c-24 -3 -62
-10 -84 -15 -60 -16 -103 8 -135 75 -23 48 -28 53 -58 53 -43 0 -189 -75 -267
-137 -5 -4 -30 -21 -55 -37 -78 -52 -90 -66 -90 -108 0 -33 8 -47 60 -103 58
-62 60 -67 60 -117 0 -97 -73 -330 -110 -353 -5 -3 -10 -22 -10 -41 0 -31 2
-34 30 -34 17 0 44 7 60 15 16 8 51 20 79 26 99 21 144 -35 116 -146 -18 -72
-114 -267 -155 -313 -16 -19 -39 -47 -52 -64 -13 -16 -28 -35 -33 -41 -19 -22
-82 -122 -140 -222 -73 -127 -140 -284 -166 -388 -11 -45 -22 -91 -25 -102 -3
-11 -9 -144 -14 -295 -8 -268 -9 -277 -37 -354 -16 -44 -34 -81 -41 -84 -20
-6 -40 59 -52 168 -5 57 -15 120 -22 141 -10 36 -14 39 -46 39 l-35 0 9 -77
c16 -138 11 -232 -13 -283 -43 -89 -92 -227 -108 -309 -24 -118 -17 -166 44
-287 97 -191 147 -376 181 -665 20 -168 20 -170 54 -207 46 -50 68 -76 86
-102 8 -12 20 -28 25 -34 67 -72 216 -356 270 -515 86 -251 100 -401 50 -526
-34 -84 -44 -101 -109 -185 -54 -70 -73 -90 -124 -132 -33 -27 -37 -28 -158
-28 -124 0 -125 0 -203 38 -43 21 -106 60 -140 86 -99 77 -277 153 -466 200
-201 50 -282 57 -613 54 -305 -2 -308 -2 -405 24 -151 42 -258 107 -472 286
-95 80 -92 79 -225 91 -244 23 -377 68 -716 242 -225 115 -259 127 -419 143
-78 8 -143 20 -162 30 -96 49 -170 170 -316 511 -237 555 -328 720 -622 1125
-133 184 -167 248 -210 395 -47 163 -44 272 10 415 18 47 32 220 21 263 -3 15
-22 35 -43 48 -46 28 -144 101 -198 148 -61 54 -285 280 -332 336 -124 148
-204 250 -342 434 -84 111 -161 213 -171 225 -10 11 -35 42 -56 67 -22 25 -50
59 -64 77 -95 116 -355 384 -527 542 -79 73 -73 62 -144 255 -108 297 -182
492 -205 543 -13 29 -24 55 -24 58 0 16 -188 377 -221 424 -9 14 -38 59 -65
100 -57 90 -117 169 -202 270 -78 91 -92 121 -92 200 0 110 -80 282 -205 437
-57 72 -89 103 -195 193 -14 12 -71 44 -127 70 -94 45 -105 54 -142 108 -22
32 -65 111 -96 176 -77 160 -113 193 -268 235 -75 20 -143 50 -174 74 -98 79
-220 226 -264 322 -30 65 -59 164 -59 205 0 47 -12 69 -42 79 -45 16 -98 14
-98 -3 0 -26 -25 -37 -49 -20 -36 25 -206 23 -308 -5 -149 -40 -259 -25 -338
45 -22 20 -51 40 -64 46 -14 5 -94 6 -185 2 -187 -7 -442 8 -505 30 -24 9 -79
32 -124 52 -75 34 -85 36 -156 32 -87 -6 -203 -43 -330 -107 -73 -37 -187
-106 -201 -121 -3 -3 -38 -28 -78 -54 -147 -97 -253 -195 -283 -261 -14 -30
-19 -65 -19 -142 0 -160 -21 -213 -129 -322 -83 -83 -90 -95 -190 -291 -123
-244 -160 -309 -260 -460 -167 -253 -316 -348 -525 -338 -144 8 -231 44 -401
168 -49 36 -130 92 -180 124 -49 32 -112 73 -140 91 -100 66 -423 250 -545
311 -189 95 -224 104 -385 104 -119 0 -141 3 -178 21 -61 31 -149 124 -271
287 -170 227 -304 350 -511 466 -56 32 -118 76 -141 101 -121 129 -292 519
-339 769 -19 99 -17 229 5 409 17 134 4 249 -34 326 -33 63 -53 82 -146 136
-78 46 -162 121 -185 166 -8 14 -23 83 -35 154 -28 177 -76 359 -111 429 -87
172 -349 438 -523 530 -25 13 -81 32 -123 41 -260 57 -308 77 -404 163 -55 50
-170 194 -216 272 -12 19 -49 86 -82 149 -50 91 -131 214 -161 241 -3 3 -38
43 -79 90 -72 82 -256 269 -337 340 -123 110 -337 260 -371 260 -4 0 -37 20
-72 44 -185 128 -284 262 -326 442 -29 126 -34 140 -76 204 -47 74 -187 217
-274 282 -64 47 -152 102 -223 137 -58 29 -118 89 -142 142 -17 38 -20 66 -20
200 l0 157 35 31 c20 17 43 31 53 31 9 0 98 -5 197 -10 405 -23 2249 -121
2635 -140 1118 -54 1767 -73 2465 -74 584 0 841 8 1425 45 509 32 561 38 573
73 2 6 1 529 -2 1161 -7 1301 2 3297 18 4125 37 1865 91 3741 151 5220 11 267
20 488 20 492 0 3 12 20 26 37 l26 31 3068 0 3069 0 21 -27z m6741 -25325 c14
-53 30 -151 25 -156 -8 -8 -77 93 -87 129 -10 32 -9 42 5 64 22 33 41 20 57
-37z"/>
<path d="M23087 13616 c-55 -21 -103 -61 -134 -114 -24 -40 -28 -58 -28 -123
0 -67 4 -81 30 -125 99 -159 326 -164 425 -8 101 160 -4 368 -192 380 -39 3
-77 -1 -101 -10z"/>
<path d="M21306 9038 c-3 -13 -7 -58 -10 -101 -4 -50 -11 -84 -21 -93 -12 -12
-15 -41 -15 -125 l0 -109 31 0 c33 0 162 75 272 158 56 42 57 44 57 91 0 33 6
56 20 74 11 14 20 39 20 55 l0 30 -113 3 c-86 3 -119 8 -140 22 -14 9 -42 17
-61 17 -29 0 -36 -4 -40 -22z m185 -78 l69 0 0 -44 c0 -43 -3 -47 -57 -89 -32
-24 -76 -54 -98 -67 -22 -13 -50 -30 -62 -38 -22 -14 -23 -13 -23 16 0 17 7
38 15 46 11 10 18 44 22 102 l6 86 30 -6 c16 -3 60 -6 98 -6z"/>
<path d="M20325 7729 c-108 -19 -177 -42 -200 -66 -8 -8 -15 -29 -15 -48 0
-27 10 -44 53 -87 29 -29 64 -72 77 -96 20 -36 28 -42 57 -42 18 0 33 5 33 11
0 23 88 196 123 242 24 30 37 58 37 77 0 27 -3 30 -32 29 -18 -1 -78 -10 -133
-20z m3 -135 l-40 -76 -43 49 -43 48 24 13 c13 7 49 19 81 26 32 8 59 15 59
15 1 1 -17 -33 -38 -75z"/>
<path d="M19738 6527 c-35 -27 -44 -40 -46 -70 -2 -27 1 -37 11 -37 18 0 152
-88 195 -129 24 -22 43 -31 68 -31 40 0 41 5 22 137 l-12 83 -46 0 c-46 0 -47
1 -60 40 -12 37 -16 40 -51 40 -27 0 -50 -9 -81 -33z m182 -122 c0 -13 -4 -14
-20 -5 -11 6 -20 13 -20 15 0 3 9 5 20 5 11 0 20 -7 20 -15z"/>
<path d="M20432 4308 c7 -162 21 -203 85 -236 33 -18 110 -15 117 4 3 9 6 66
6 127 0 103 -2 114 -23 137 -12 14 -33 42 -46 63 -22 36 -24 37 -83 37 l-61 0
5 -132z m125 -28 c18 -20 23 -36 23 -82 0 -64 -10 -72 -42 -35 -29 32 -37 59
-44 140 l-6 72 23 -35 c13 -19 34 -46 46 -60z"/>
</g>
</svg>
